<?xml version="1.0" standalone="no"?>
<!DOCTYPE svg PUBLIC "-//W3C//DTD SVG 1.1//EN" "http://www.w3.org/Graphics/SVG/1.1/DTD/svg11.dtd" >
<svg xmlns="http://www.w3.org/2000/svg">
<defs>
  <font id="DesignaIcon-Regular" horiz-adv-x="256">
    <font-face font-family="DesignaIcon-Regular"
      units-per-em="256" ascent="256"
      descent="0" />
    <missing-glyph horiz-adv-x="0" />
    <glyph glyph-name="browser"
      unicode="&#xEA02;"
      horiz-adv-x="256" d="M45.047 222.695C40.28 221.175 34.332 214.946 33.03 210.11C32.293 207.374 32.04 180.757 32.227 125.643L32.5 45.171L35.5 40.925C37.15 38.589 40.3 35.738 42.5 34.589C46.461 32.52 47.285 32.5 128 32.5C208.715 32.5 209.539 32.52 213.5 34.589C215.7 35.738 218.85 38.589 220.5 40.925L223.5 45.172L223.5 127.909L223.5 210.646L220.686 214.899C218.737 217.844 216.277 219.894 212.686 221.566L207.5 223.98L128 223.888C73.149 223.824 47.429 223.455 45.047 222.695M74.5 192L74.5 181.5L64 181.5L53.5 181.5L53.216 192.284L52.932 203.068L63.716 202.784L74.5 202.5L74.5 192M202.5 192L202.5 181.5L149.25 181.241L96 180.982L96 192L96 203.018L149.25 202.759L202.5 202.5L202.5 192M202.759 106.75L202.5 53.5L127.75 53.244L53 52.987L53 106.494L53 160L128.009 160L203.018 160L202.759 106.75" />
    <glyph glyph-name="building"
      unicode="&#xEA03;"
      horiz-adv-x="256" d="M67.131 233.811C57.607 231.685 48.545 223.572 44.86 213.874C43.101 209.244 43 204.476 43 125.989L43 43L36.901 43C29.298 43 24.655 40.9 22.577 36.522C20.617 32.39 20.617 31.61 22.577 27.478C25.814 20.658 20.249 21 128 21C235.751 21 230.186 20.658 233.423 27.478C235.383 31.61 235.383 32.39 233.423 36.522C231.345 40.9 226.702 43 219.099 43L213 43L213 125.989C213 204.476 212.899 209.244 211.14 213.874C207.317 223.934 198.418 231.672 188.134 233.878C181.503 235.3 73.534 235.24 67.131 233.811M186.288 211.915C187.598 211.318 189.419 209.561 190.335 208.01C191.852 205.443 192 197.963 192 124.096L192 43L128 43L64 43L64 124.096C64 198.058 64.147 205.44 65.67 208.019C66.589 209.574 68.276 211.3 69.42 211.855C72.405 213.304 183.116 213.36 186.288 211.915M89.15 178.473C85.159 175.115 84.33 171.031 86.67 166.254C89.124 161.242 92.005 160.032 101.527 160.015C112.706 159.994 116.91 162.939 116.968 170.827C116.994 174.3 116.423 175.731 114.077 178.077C111.256 180.897 110.821 181 101.654 181C92.952 181 91.901 180.788 89.15 178.473M141.923 178.077C139.577 175.731 139.006 174.3 139.032 170.827C139.09 162.939 143.294 159.994 154.473 160.015C163.995 160.032 166.876 161.242 169.33 166.254C171.67 171.031 170.841 175.115 166.85 178.473C164.099 180.788 163.048 181 154.346 181C145.179 181 144.744 180.897 141.923 178.077M93.327 138.304C90.296 137.714 86.249 133.409 85.494 129.974C84.573 125.778 87.414 120.506 91.691 118.477C94.344 117.218 97.22 116.889 103.206 117.161C110.748 117.503 111.344 117.702 114.092 120.777C119.279 126.583 117.514 134.634 110.401 137.606C107.29 138.906 98.302 139.274 93.327 138.304M145.378 137.563C138.465 134.554 136.799 126.495 141.908 120.777C144.656 117.702 145.252 117.503 152.794 117.161C162.548 116.718 167.04 118.457 169.492 123.624C172.423 129.801 168.693 137.011 161.861 138.378C156.722 139.406 148.701 139.009 145.378 137.563M90.353 94.074C86.782 91.896 84.565 86.582 85.565 82.598C85.924 81.166 87.554 78.87 89.186 77.497C91.895 75.218 92.982 75 101.654 75C110.821 75 111.256 75.103 114.077 77.923C116.423 80.269 116.994 81.7 116.968 85.173C116.934 89.79 115.963 91.583 112.027 94.296C108.365 96.82 94.626 96.679 90.353 94.074M143.973 94.296C140.037 91.583 139.066 89.79 139.032 85.173C139.006 81.7 139.577 80.269 141.923 77.923C144.744 75.103 145.179 75 154.346 75C163.048 75 164.099 75.212 166.85 77.527C168.502 78.917 170.137 81.345 170.483 82.923C171.372 86.972 168.78 92.545 165.128 94.434C160.803 96.67 147.29 96.582 143.973 94.296" />
    <glyph glyph-name="building-arch"
      unicode="&#xEA04;"
      horiz-adv-x="256" d="M54.296 222.566C44.65 219.52 35.28 209.552 33.084 200C32.42 197.116 32.04 168.188 32.024 119.442L32 43.385L28.101 41.665C25.55 40.539 23.648 38.778 22.601 36.571C20.615 32.387 20.613 31.617 22.577 27.478C25.814 20.658 20.249 21 128 21C235.751 21 230.186 20.658 233.423 27.478C235.387 31.617 235.385 32.387 233.399 36.571C232.356 38.77 230.451 40.539 227.928 41.652L224.058 43.359L223.779 121.93L223.5 200.5L221.151 205.27C218.149 211.366 211.366 218.149 205.27 221.151L200.5 223.5L129.5 223.696C72.845 223.853 57.651 223.625 54.296 222.566M199.231 199.231L202.5 195.962L202.768 119.481L203.037 43L187.096 43L171.155 43L170.733 84.25C170.262 130.323 170.197 130.807 163.133 141C158.223 148.085 150.713 154.187 143.344 157.081C138.704 158.902 135.542 159.375 128 159.375C120.458 159.375 117.296 158.902 112.656 157.081C105.206 154.155 97.522 147.923 92.783 140.96C85.801 130.703 85.737 130.224 85.267 84.25L84.845 43L68.904 43L52.963 43L53.232 119.42L53.5 195.84L56 198.529C57.375 200.008 59.4 201.596 60.5 202.057C61.6 202.518 92.529 202.806 129.231 202.697L195.962 202.5L199.231 199.231M136.556 136.973C140.275 135.569 145.252 130.654 147.12 126.541C148.801 122.84 148.958 119.152 148.978 82.75L149 43L128 43L107 43L107.022 82.75C107.042 119.255 107.195 122.832 108.893 126.571C113.38 136.45 125.686 141.077 136.556 136.973" />
    <glyph glyph-name="building-bank"
      unicode="&#xEA05;"
      horiz-adv-x="256" d="M87 217.984C59.783 206.302 46.8 200.231 45.25 198.459C41.893 194.623 42.167 188.679 45.872 184.974C51.259 179.587 50.834 179.478 90.41 196.401C110.475 204.98 127.391 212 128 212C128.609 212 145.525 204.98 165.59 196.401C205.166 179.478 204.741 179.587 210.128 184.974C213.67 188.517 214.065 194.377 211.021 198.246C209.602 200.05 197.745 205.604 169.104 217.881C147.138 227.296 128.566 234.986 127.833 234.969C127.1 234.952 108.725 227.308 87 217.984M26.353 158.074C22.782 155.896 20.565 150.582 21.565 146.598C22.345 143.491 27.376 139 30.077 139C31.948 139 32 137.698 32 91.192L32 43.385L28.101 41.665C25.55 40.539 23.648 38.778 22.601 36.571C20.615 32.387 20.613 31.617 22.577 27.478C25.814 20.658 20.249 21 128 21C235.751 21 230.186 20.658 233.423 27.478C235.387 31.617 235.385 32.387 233.399 36.571C232.352 38.778 230.45 40.539 227.899 41.665L224 43.385L224 91.192C224 137.698 224.052 139 225.923 139C228.76 139 233.759 143.627 234.483 146.923C234.852 148.604 234.501 151.258 233.635 153.33C230.681 160.401 237.044 160 127.8 159.996C32.649 159.993 29.399 159.931 26.353 158.074M202.76 90.75L203.019 43L128.01 43L53 43L53 90.333C53 116.367 53.303 137.97 53.673 138.34C54.043 138.71 87.681 138.897 128.423 138.756L202.5 138.5L202.76 90.75M77.923 114.077L75 111.154L75.022 90.827C75.042 73.078 75.264 70.229 76.772 68.367C80.989 63.161 87.359 62.563 92.234 66.916L95.5 69.832L95.826 89.166C96.105 105.732 95.913 108.948 94.482 111.632C91.23 117.732 82.82 118.973 77.923 114.077M122.217 115.439C117.634 112.229 117 109.261 117 91.018C117 71.856 117.852 68.162 122.872 65.566C126.698 63.588 129.302 63.588 133.128 65.566C138.118 68.146 139 71.893 139 90.5C139 108.35 138.174 112.364 133.883 115.369C130.935 117.434 125.115 117.469 122.217 115.439M165.349 115.824C160.487 113.471 159.822 110.046 160.174 89.166L160.5 69.832L163.766 66.916C167.308 63.753 171.135 63.193 175.528 65.195C180.433 67.43 181 70.157 181 91.527L181 111.154L178.077 114.077C174.941 117.212 169.704 117.931 165.349 115.824" />
    <glyph glyph-name="building-bridge"
      unicode="&#xEA06;"
      horiz-adv-x="256" d="M58.217 211.439C55.056 209.225 53 204.756 53 200.099C53 196.594 52.447 195.63 48.521 192.3C46.057 190.21 39.644 186.25 34.271 183.5C26.285 179.413 24.184 177.854 22.771 174.966C21.369 172.101 21.239 170.719 22.082 167.664C23.188 163.659 27.71 160.011 31.578 160.004C34.069 159.999 45.205 164.393 49.75 167.174L53 169.163L53 138.145L53 107.126L34.916 106.813L16.831 106.5L13.916 103.234C8.911 97.629 10.331 89.949 17.011 86.494C19.232 85.346 23.716 85 36.387 85L52.874 85L53.187 66.916L53.5 48.831L56.766 45.916C61.282 41.883 66.718 41.883 71.234 45.916L74.5 48.831L74.813 66.916L75.126 85L128 85L180.874 85L181.187 66.916L181.5 48.831L184.766 45.916C187.21 43.733 189.029 43 192 43C194.971 43 196.79 43.733 199.234 45.916L202.5 48.831L202.813 66.916L203.126 85L219.613 85C232.284 85 236.768 85.346 238.989 86.494C245.669 89.949 247.089 97.629 242.084 103.234L239.169 106.5L221.084 106.813L203 107.126L203 138.145L203 169.163L206.25 167.174C210.795 164.393 221.931 159.999 224.422 160.004C228.29 160.011 232.812 163.659 233.918 167.664C234.761 170.719 234.631 172.101 233.229 174.966C231.816 177.854 229.715 179.413 221.729 183.5C216.356 186.25 209.943 190.21 207.479 192.3C203.759 195.456 203 196.689 203 199.582C203 207.452 198.452 213 192 213C185.193 213 181 207.669 181 199.016C181 191.983 177.241 185.017 169.11 176.979C161.384 169.344 153.17 164.729 142.404 161.975C118.373 155.829 92.443 165.788 79.032 186.313C75.608 191.552 75 193.282 75 197.774C75 204.055 73.093 209.121 69.883 211.369C66.935 213.434 61.115 213.469 58.217 211.439M88.519 149.509C96.558 144.915 110.015 140 114.552 140L117 140L117 123.5L117 107L96 107L75 107L75 133.187L75 159.374L77.769 156.722C79.291 155.263 84.129 152.017 88.519 149.509M181 132.5L181 107L159.975 107L138.95 107L139.225 123.152L139.5 139.305L146.667 140.988C154.884 142.918 168.198 149.104 175.497 154.385C178.245 156.373 180.608 158 180.747 158C180.886 158 181 146.525 181 132.5" />
    <glyph glyph-name="building-bridge-2"
      unicode="&#xEA07;"
      horiz-adv-x="256" d="M54.296 190.566C44.65 187.52 35.28 177.552 33.084 168C32.442 165.209 32.048 143.751 32.046 111.5C32.044 62.989 32.168 59.232 33.896 55.5C34.914 53.3 37.042 50.286 38.624 48.803C43.923 43.834 47.569 43 64 43C80.44 43 84.116 43.842 89.339 48.803C94.857 54.044 95.362 56.078 95.988 75.549C96.537 92.601 96.721 93.909 99.314 99.21C102.333 105.379 107.597 110.68 114.205 114.204C117.815 116.129 120.015 116.494 128 116.494C135.985 116.494 138.185 116.129 141.795 114.204C148.414 110.674 153.669 105.376 156.703 99.174C159.324 93.817 159.494 92.601 160.006 75.513C160.588 56.06 161.074 54.11 166.661 48.803C171.908 43.819 175.537 42.998 192.218 43.022C204.833 43.04 208.2 43.362 211.509 44.865C216.657 47.204 221.62 52.876 222.999 57.997C223.731 60.714 223.988 79.291 223.791 115.26L223.5 168.5L221.151 173.27C218.149 179.366 211.366 186.149 205.27 189.151L200.5 191.5L129.5 191.696C72.845 191.853 57.651 191.625 54.296 190.566M199.231 167.231L202.5 163.963L202.777 113.981L203.054 64L192.027 64L181 64L180.988 78.75C180.97 101.138 177.775 110.187 165.474 122.689C159.947 128.306 156.527 130.811 150.717 133.495C129.61 143.247 106.837 139.183 90.644 122.774C77.952 109.913 75 101.613 75 78.79L75 64L63.973 64L52.946 64L53.223 113.92L53.5 163.84L56 166.529C57.375 168.009 59.4 169.596 60.5 170.057C61.6 170.518 92.529 170.806 129.231 170.697L195.962 170.5L199.231 167.231" />
    <glyph glyph-name="building-carousel"
      unicode="&#xEA08;"
      horiz-adv-x="256" d="M118.365 243.969C116.64 243.437 113.055 241.539 110.398 239.751C98.048 231.441 92.917 216.133 97.999 202.761C99.099 199.867 99.999 197.436 99.999 197.358C100 197.281 98.987 196.96 97.75 196.647C96.513 196.333 92.383 194.026 88.574 191.52L81.649 186.964L76.574 192.15C69.597 199.28 63.069 202.129 53.625 202.166C38.383 202.226 26.365 193.031 22.473 178.333C19.59 167.444 23.055 155.746 31.586 147.573C36.656 142.714 44.789 139 50.358 139L53.64 139L53.64 128.11L53.64 117.22L48.968 116.771C31 115.044 17.753 95.494 22.473 77.667C28.957 53.178 58.958 45.354 76.436 63.594C78.946 66.214 81 68.718 81 69.158C81 69.599 83.025 68.531 85.5 66.787C87.975 65.042 90 63.127 90 62.531C90 61.935 86.625 53.025 82.5 42.731C78.262 32.155 75 22.522 75 20.584C75 15.609 79.809 11 85 11C91.933 11 93.917 13.765 102.598 35.521L110.376 55.017L116.938 54.259C120.547 53.841 125.525 53.5 128 53.5C130.475 53.5 135.453 53.841 139.062 54.259L145.624 55.017L153.402 35.521C162.083 13.765 164.067 11 171 11C176.191 11 181 15.609 181 20.584C181 22.522 177.738 32.155 173.5 42.731C169.375 53.025 166 61.935 166 62.531C166 63.127 168.025 65.042 170.5 66.787C172.975 68.531 175 69.599 175 69.158C175 68.718 177.054 66.214 179.564 63.594C193.551 48.997 216.65 50.526 228.489 66.833C232.699 72.632 234.487 78.683 234.344 86.656C234.076 101.532 221.518 115.379 207.031 116.771L202.358 117.22L202.319 128.11L202.281 139L205.603 139C211.139 139 219.331 142.702 224.273 147.437C240.754 163.229 236.886 189.039 216.537 199.056C211.056 201.755 209.091 202.192 202.569 202.167C192.914 202.129 186.455 199.333 179.426 192.15L174.351 186.964L167.473 191.482C163.689 193.967 160.123 196.007 159.547 196.015C156.369 196.062 156.052 197.63 158.124 203.047C163.637 217.462 156.501 234.542 141.795 242.129C136.955 244.627 123.839 245.656 118.365 243.969M133.712 222.034C142.127 216.903 138.077 203 128.167 203C117.783 203 113.567 216.717 122.311 222.048C126.356 224.515 129.65 224.511 133.712 222.034M60.728 177.472C63.94 174.26 64.205 173.567 63.69 169.722C62.616 161.715 54.744 157.675 47.99 161.665C38.999 166.976 42.649 181 53.023 181C56.47 181 57.817 180.383 60.728 177.472M141.458 179.469C155.002 175.941 169.653 164.389 175.242 152.829C185.964 130.656 181.6 105.271 164.31 89.229C161.186 86.329 158.203 84.099 157.683 84.272C157.163 84.446 152.184 96.043 146.618 110.044C136.739 134.893 136.409 135.544 132.753 137.33C128.6 139.36 124.9 138.993 121.219 136.185C119.661 134.996 115.821 126.541 109.107 109.518C103.7 95.809 98.84 84.447 98.309 84.27C96.666 83.722 88.096 91.963 84.154 97.88C77.237 108.263 75.014 115.635 75.006 128.212C74.99 152.328 90.915 173.181 114.112 179.419C121.264 181.343 134.174 181.366 141.458 179.469M210.077 178.077C214.399 173.755 214.212 168.012 209.6 163.4C207.02 160.82 205.35 160 202.677 160C194.966 160 189.787 168.735 193.458 175.551C196.795 181.748 205.138 183.016 210.077 178.077M132.75 87.223C135.088 81.302 137 76.13 137 75.729C137 75.328 132.95 75 128 75C123.05 75 119 75.328 119 75.729C119 77.014 127.481 97.987 128 97.987C128.275 97.987 130.412 93.143 132.75 87.223M60.583 92.922C63.157 90.504 64.575 85.388 63.56 82.188C61.231 74.851 51.378 72.468 45.923 77.923C41.234 82.613 42.173 90.718 47.826 94.344C51.314 96.581 57.412 95.901 60.583 92.922M209.6 92.6C216.637 85.563 212.504 75 202.713 75C195.695 75 191.124 80.519 192.42 87.427C193.018 90.614 196.021 94.205 199 95.294C202.99 96.752 206.285 95.915 209.6 92.6" />
    <glyph glyph-name="building-castle"
      unicode="&#xEA09;"
      horiz-adv-x="256" d="M24.766 210.082L21.5 207.165L21.203 130.832C21.04 88.85 21.173 52.633 21.499 50.352C22.404 44.022 27.2 37.578 33.249 34.563C38.367 32.013 38.521 32 64 32C89.399 32 89.649 32.021 94.691 34.533C100.376 37.366 104.683 42.724 106.067 48.684C106.554 50.783 106.973 58.575 106.998 66C107.049 80.937 108.189 85.1 113.624 90.197C124.177 100.092 140.978 96.732 147.104 83.5C148.624 80.217 148.96 76.988 148.978 65.493C148.99 57.79 149.44 49.954 149.977 48.08C151.629 42.321 155.88 37.239 161.309 34.533C166.351 32.021 166.601 32 192 32C217.479 32 217.633 32.013 222.751 34.563C229.274 37.814 233.623 44.025 234.489 51.327C234.826 54.172 234.967 90.4 234.801 131.832L234.5 207.165L231.234 210.082L227.968 213L202.407 213L176.846 213L173.923 210.077L171 207.154L171 194.077L171 181L165.5 181L160 181L160 193.6L160 206.2L156.6 209.6L153.2 213L128.647 213C113.123 213 103.218 212.601 101.712 211.915C97.078 209.803 96 206.253 96 193.096L96 181L90.5 181L85 181L85 194.077L85 207.154L82.077 210.077L79.154 213L53.593 213L28.032 213L24.766 210.082M64 179.4L64 166.8L67.4 163.4L70.8 160L90.177 160C106.8 160 109.907 160.242 112.027 161.704C116.652 164.892 116.935 165.895 116.968 179.25L117 192L128 192L139 192L139.032 179.25C139.065 165.895 139.348 164.892 143.973 161.704C146.093 160.242 149.2 160 165.823 160L185.2 160L188.6 163.4L192 166.8L192 179.4L192 192L202.5 192L213 192L213 170.5L213 149L128 149L43 149L43 170.5L43 192L53.5 192L64 192L64 179.4M213 90.5L213 53L192 53L171 53L170.98 63.75C170.941 84.5 168.134 93.748 158.918 103.493C150.314 112.59 140.22 117 128 117C115.78 117 105.686 112.59 97.082 103.493C87.859 93.742 85.016 84.502 85.006 64.25L85 53L64 53L43 53L43 90.5L43 128L128 128L213 128L213 90.5" />
    <glyph glyph-name="building-church"
      unicode="&#xEA0A;"
      horiz-adv-x="256" d="M123.321 233.387C119.089 231.3 117 226.578 117 219.099L117 213L110.547 213C102.698 213 99.725 211.761 97.453 207.542C95.069 203.115 96.135 197.905 100.111 194.56C102.734 192.353 104.107 192 110.077 192L117 192L117 183.265L117 174.531L74.5 131.988C35.824 93.274 32 89.151 32 86.173C32 76.45 42.56 71.393 49.923 77.589L53 80.178L53 61.589L53 43L41.901 43C28.99 43 25.02 41.669 22.577 36.522C20.617 32.39 20.617 31.61 22.577 27.478C25.814 20.658 20.249 21 128 21C235.751 21 230.186 20.658 233.423 27.478C235.383 31.61 235.383 32.39 233.423 36.522C230.98 41.669 227.01 43 214.099 43L203 43L203 61.589L203 80.178L206.077 77.589C213.44 71.393 224 76.45 224 86.173C224 89.151 220.176 93.274 181.5 131.988L139 174.531L139 183.265L139 192L145.923 192C151.893 192 153.266 192.353 155.889 194.56C159.865 197.905 160.931 203.115 158.547 207.542C156.275 211.761 153.302 213 145.453 213L139 213L139 219.099C139 226.702 136.9 231.345 132.522 233.423C128.421 235.369 127.331 235.364 123.321 233.387M154.743 128.757L181 102.514L181 72.757L181 43L170.575 43L160.15 43L159.825 62.75C159.45 85.539 158.55 88.791 150.295 97.195C143.922 103.683 137.474 106.324 128 106.324C118.526 106.324 112.078 103.683 105.705 97.195C97.45 88.791 96.55 85.539 96.175 62.75L95.85 43L85.425 43L75 43L75 72.743L75 102.486L101.243 128.743C115.677 143.184 127.711 155 127.986 155C128.261 155 140.302 143.191 154.743 128.757M133.883 83.369C138.145 80.384 139 76.319 139 59.032L139 43L128 43L117 43L117 59.55C117 77.224 117.66 80.248 122.217 83.439C125.115 85.469 130.935 85.434 133.883 83.369" />
    <glyph glyph-name="building-community"
      unicode="&#xEA0B;"
      horiz-adv-x="256" d="M103.5 234.532C102.95 234.336 101.251 233.899 99.725 233.562C96.038 232.748 89.083 226.367 87.123 222C85.894 219.26 85.438 213.294 85.026 194.512C84.522 171.515 84.417 170.51 82.5 170.18C79.752 169.707 24.139 114.281 22.4 110.282C21.281 107.71 21 99.412 21 68.933C21 26.462 21.122 25.594 27.509 22.563C30.518 21.135 41.007 20.998 129.413 21.236L227.962 21.5L231.231 24.769L234.5 28.038L234.767 120.269C234.954 184.868 234.702 214.102 233.926 217.848C233.149 221.597 231.746 224.382 229.234 227.163C222.215 234.932 226.274 234.477 162 234.695C130.375 234.802 104.05 234.729 103.5 234.532M213 128L213 43L181 43L149 43L149 77.197L149 111.394L128 132.477L107 153.56L107 183.28L107 213L160 213L213 213L213 128M134.388 191.02C131.216 189.738 128 185.104 128 181.815C128 171.988 139.236 167.082 146.077 173.923C148.423 176.269 148.994 177.7 148.968 181.173C148.909 189.197 141.785 194.008 134.388 191.02M176 190.362C172.015 187.54 171.066 185.785 171.032 181.173C171.006 177.7 171.577 176.269 173.923 173.923C180.811 167.035 192 171.994 192 181.935C192 189.104 181.806 194.474 176 190.362M173.923 146.077C171.582 143.735 171.004 142.293 171.022 138.827C171.056 132.255 175.383 128 182.034 128C186.72 128 192 133.563 192 138.5C192 141.375 191.241 142.959 188.6 145.6C183.988 150.212 178.245 150.399 173.923 146.077M128 72.759L128 43L112 43L96 43L96 60.096C96 74.251 95.714 77.676 94.335 80.01C90.917 85.796 82.68 86.834 77.923 82.077L75 79.154L75 61.077L75 43L59 43L43 43L43 72.741L43 102.483L64.241 123.742L85.483 145L106.741 123.759L128 102.517L128 72.759M177.378 105.539C170.58 102.633 168.793 94.479 173.75 88.981C177.561 84.754 182.406 84.096 186.968 87.187C197.497 94.32 189.032 110.52 177.378 105.539" />
    <glyph glyph-name="building-cottage"
      unicode="&#xEA0C;"
      horiz-adv-x="256" d="M125 234.307C124.175 233.972 109.809 227.453 93.075 219.821C73.981 211.113 62.063 205.121 61.075 203.734C60.209 202.517 53.425 190.717 46 177.511L32.5 153.5L32.226 98.432L31.951 43.363L28.076 41.654C25.549 40.539 23.645 38.771 22.601 36.571C20.615 32.387 20.613 31.617 22.577 27.478C25.814 20.658 20.249 21 128 21C235.751 21 230.186 20.658 233.423 27.478C235.387 31.617 235.385 32.387 233.399 36.571C232.355 38.771 230.451 40.539 227.924 41.654L224.049 43.363L223.774 98.432L223.5 153.5L210.106 177.5C202.739 190.7 195.539 202.706 194.106 204.181C191.422 206.942 133.9 233.774 129.063 234.52C127.654 234.738 125.825 234.642 125 234.307M153.071 200.862C166.507 194.736 178.018 189.318 178.651 188.821C179.285 188.325 185.022 178.509 191.401 167.008L203 146.097L203 94.548L203 43L187 43L171 43L171 63.951C171 88.664 170.174 93.694 165.217 99.181C158.566 106.543 158.785 106.5 128 106.5C97.215 106.5 97.434 106.543 90.783 99.181C85.826 93.694 85 88.664 85 63.951L85 43L69 43L53 43L53 94.548L53 146.097L64.678 167.151C71.101 178.731 77.064 188.639 77.928 189.17C80.64 190.833 126.445 211.815 127.571 211.91C128.16 211.959 139.635 206.988 153.071 200.862M120.734 190.97C111.404 188.627 103.095 181.89 98.812 173.193C96.946 169.404 96.5 166.862 96.5 160C96.5 149.879 98.692 144.466 105.579 137.579C116.752 126.406 133.733 124.939 146.421 134.051C167.042 148.86 163.331 179.659 139.744 189.47C134.969 191.456 125.609 192.195 120.734 190.97M133.64 168.827C137.998 166.694 139.693 159.533 137.022 154.541C136.301 153.193 134.18 151.364 132.308 150.476C121.798 145.489 112.426 159.153 120.689 167.416C124.256 170.983 128.328 171.427 133.64 168.827M149 64L149 43L128 43L107 43L107 64L107 85L128 85L149 85L149 64" />
    <glyph glyph-name="brush"
      unicode="&#xEA0D;"
      horiz-adv-x="256" d="M210.749 232.469C156.026 220.742 109.871 185.526 85.422 136.846L80.98 128L75.674 128C52.014 128 31.027 113.055 23.814 91.072C21.881 85.178 21.614 81.75 21.234 57.851C20.618 19.073 18.877 20.991 54.651 21.017C81.629 21.037 88.577 22.012 99 27.24C107.16 31.333 117.382 41.387 121.725 49.593C125.632 56.975 127.965 66.347 127.985 74.737L128 80.975L135.25 84.608C158.448 96.234 177.083 110.755 192.72 129.39C214.223 155.017 227.269 182.646 233.534 215.825C235.436 225.9 234.484 230.124 229.647 233.074C225.797 235.421 224.306 235.374 210.749 232.469M210 208.377C210 204.949 202.847 185.6 197.981 175.865C191.103 162.104 182.494 149.791 172.053 138.778L163.363 129.612L160.015 134.479C155.002 141.764 143.326 153.666 136.211 158.744C132.747 161.216 130.045 163.567 130.206 163.97C130.732 165.281 145.346 178.407 151.5 183.096C164.547 193.036 176.767 199.498 195 206.097C206.709 210.334 210 210.835 210 208.377M121.579 142.788C127.897 138.663 138.663 127.897 142.788 121.579C144.554 118.872 146 116.374 146 116.028C146 115.234 132.09 106.885 125.672 103.827C120.894 101.549 120.834 101.546 119.775 103.513C118.464 105.948 107.422 117.041 104.033 119.327L101.567 120.992L104.868 127.746C108.454 135.082 115.149 145.977 116.079 145.991C116.397 145.996 118.872 144.554 121.579 142.788M86.171 104.437C92.817 102.238 99.337 96.091 103.074 88.501C109.294 75.866 106.689 61.417 96.414 51.573C88.577 44.063 84.306 43 61.962 43L43 43L43 61.989C43 83.267 43.839 87.184 50.055 94.918C58.579 105.525 72.103 109.09 86.171 104.437" />
    <glyph glyph-name="building-fortress"
      unicode="&#xEA0E;"
      horiz-adv-x="256" d="M72 234.329C67.843 232.906 34.076 209.462 33.101 207.321C32.328 205.626 32 180.098 32 121.649L32 38.393L34.533 33.309C37.366 27.624 42.724 23.317 48.684 21.933C55.221 20.416 85.965 20.8 91.586 22.47C97.029 24.086 103.078 29.482 105.074 34.5C105.73 36.15 106.559 42.77 106.917 49.211C107.521 60.099 107.778 61.224 110.578 65.211C119.125 77.386 136.875 77.386 145.422 65.211C148.222 61.224 148.479 60.099 149.083 49.211C149.441 42.77 150.27 36.15 150.926 34.5C152.922 29.482 158.971 24.086 164.414 22.47C170.035 20.8 200.779 20.416 207.316 21.933C213.276 23.317 218.634 27.624 221.467 33.309L224 38.393L224 121.649C224 180.098 223.672 205.626 222.899 207.321C221.785 209.767 187.543 233.25 183.323 234.463C182.126 234.807 179.604 234.444 177.719 233.656C172.39 231.43 141.212 210.264 140.043 208.08C139.389 206.858 139 195.475 139 177.566L139 149L128 149L117 149L117 177.566C117 195.475 116.611 206.858 115.957 208.08C114.801 210.239 83.637 231.418 78.387 233.612C74.864 235.084 74.369 235.139 72 234.329M85.533 203.978L96 196.955L96 165.878L96 134.8L99.4 131.4L102.8 128L128 128L153.2 128L156.6 131.4L160 134.8L160 165.878L160 196.955L170.586 204.058L181.172 211.16L192.086 203.943L203 196.727L203 119.863L203 43L187.151 43L171.302 43L170.683 52.25C170.343 57.338 169.384 63.772 168.553 66.549C165.329 77.322 154.434 88.768 143.344 93.034C135.08 96.214 120.92 96.214 112.656 93.034C101.566 88.768 90.671 77.322 87.447 66.549C86.616 63.772 85.657 57.338 85.317 52.25L84.698 43L68.849 43L53 43L53 119.856L53 196.711L63.75 203.85C69.662 207.777 74.628 210.992 74.783 210.995C74.939 210.998 79.777 207.84 85.533 203.978M70.388 191.02C67.216 189.738 64 185.104 64 181.815C64 171.988 75.236 167.082 82.077 173.923C84.423 176.269 84.994 177.7 84.968 181.173C84.909 189.197 77.785 194.008 70.388 191.02M176 190.362C172.015 187.54 171.066 185.785 171.032 181.173C171.006 177.7 171.577 176.269 173.923 173.923C180.811 167.035 192 171.994 192 181.935C192 189.104 181.806 194.474 176 190.362M70.388 159.02C67.216 157.738 64 153.104 64 149.815C64 139.988 75.236 135.082 82.077 141.923C84.423 144.269 84.994 145.7 84.968 149.173C84.909 157.197 77.785 162.008 70.388 159.02M176 158.362C172.015 155.54 171.066 153.785 171.032 149.173C171.006 145.7 171.577 144.269 173.923 141.923C180.811 135.035 192 139.994 192 149.935C192 157.104 181.806 162.474 176 158.362M70.388 127.02C67.216 125.738 64 121.104 64 117.815C64 107.988 75.236 103.082 82.077 109.923C84.423 112.269 84.994 113.7 84.968 117.173C84.909 125.197 77.785 130.008 70.388 127.02M176 126.362C172.015 123.54 171.066 121.785 171.032 117.173C171.006 113.7 171.577 112.269 173.923 109.923C180.811 103.035 192 107.994 192 117.935C192 125.104 181.806 130.474 176 126.362" />
    <glyph glyph-name="building-hospital"
      unicode="&#xEA0F;"
      horiz-adv-x="256" d="M67.131 233.811C57.607 231.685 48.545 223.572 44.86 213.874C43.101 209.244 43 204.476 43 125.989L43 43L36.901 43C29.298 43 24.655 40.9 22.577 36.522C20.617 32.39 20.617 31.61 22.577 27.478C25.814 20.658 20.249 21 128 21C235.751 21 230.186 20.658 233.423 27.478C235.383 31.61 235.383 32.39 233.423 36.522C231.345 40.9 226.702 43 219.099 43L213 43L213 125.989C213 204.476 212.899 209.244 211.14 213.874C207.317 223.934 198.418 231.672 188.134 233.878C181.503 235.3 73.534 235.24 67.131 233.811M186.288 211.915C187.598 211.318 189.419 209.561 190.335 208.01C191.852 205.443 192 197.963 192 124.096L192 43L181.619 43L171.237 43L170.825 62.25C170.437 80.399 170.265 81.821 167.822 87.12C164.324 94.704 158.975 100.374 152.161 103.72C146.59 106.456 146.206 106.5 128 106.5C109.753 106.5 109.422 106.462 103.786 103.694C97.781 100.745 91.324 94.31 88.59 88.549C85.894 82.868 85 75.473 85 58.864L85 43L74.5 43L64 43L64 124.096C64 198.058 64.147 205.44 65.67 208.019C66.589 209.574 68.276 211.3 69.42 211.855C72.405 213.304 183.116 213.36 186.288 211.915M122.381 190.09C118.652 187.817 117 183.598 117 176.351L117 171L111.468 171C100.524 171 94.509 165.492 96.571 157.358C97.954 151.901 101.669 149.641 110.032 149.168L117 148.774L117 143.355C117 136.371 119.058 131.539 122.872 129.566C126.698 127.588 129.302 127.588 133.128 129.566C136.942 131.539 139 136.371 139 143.355L139 148.774L145.968 149.168C154.331 149.641 158.046 151.901 159.429 157.358C161.491 165.492 155.476 171 144.532 171L139 171L139 176.532C139 183.624 136.961 188.452 133.128 190.434C129.133 192.5 126.177 192.405 122.381 190.09M146.077 82.077L149 79.154L149 61.077L149 43L128 43L107 43L107 61.077L107 79.154L109.923 82.077L112.846 85L128 85L143.154 85L146.077 82.077" />
    <glyph glyph-name="building-lighthouse"
      unicode="&#xEA10;"
      horiz-adv-x="256" d="M123.763 233.842C121.797 233.124 117.97 228.294 110.158 216.671C104.179 207.777 98.604 199.15 97.767 197.5C96.931 195.85 95.715 190.45 95.065 185.5C93.03 169.999 93.759 171.295 86.797 170.792C81.48 170.407 80.339 169.944 77.851 167.16C71.294 159.82 76.715 149 86.95 149C88.628 149 90 148.747 90 148.439C90 148.13 86.625 122.613 82.5 91.735C78.375 60.856 75 33.984 75 32.019C75 27.78 77.04 24.548 81.011 22.494C85.154 20.352 169.297 20.262 174.401 22.394C178.707 24.193 181 27.537 181 32.019C181 33.984 177.625 60.856 173.5 91.735C169.375 122.613 166 148.13 166 148.439C166 148.747 167.372 149 169.05 149C179.285 149 184.706 159.82 178.149 167.16C175.661 169.944 174.52 170.407 169.203 170.792C162.241 171.295 162.97 169.999 160.935 185.5C160.285 190.45 159.069 195.85 158.233 197.5C157.396 199.15 151.826 207.769 145.855 216.652C137.189 229.545 134.363 233.026 131.85 233.902C128.172 235.185 127.422 235.179 123.763 233.842M133.754 195.98C138.108 189.371 139.175 186.849 139.984 181.253C141.614 169.983 142.803 171 128 171C113.197 171 114.386 169.983 116.016 181.253C116.825 186.849 117.892 189.371 122.246 195.98C125.136 200.366 127.725 203.955 128 203.955C128.275 203.955 130.864 200.366 133.754 195.98M26.353 190.074C22.836 187.929 20.46 182.359 21.53 178.766C21.9 177.52 25.86 172.788 30.329 168.251L38.454 160.001L30.78 152.251C21.956 143.339 20.408 140.323 22.073 135.279C23.307 131.541 28.027 128.01 31.8 128.004C35.846 127.997 39.243 130.571 51.172 142.679C63.007 154.692 64.813 157.624 63.53 162.737C62.766 165.78 41.141 188.308 36.8 190.584C33.134 192.506 30.099 192.358 26.353 190.074M218.5 190.118C213.445 186.961 193.205 165.667 192.469 162.732C191.187 157.625 192.996 154.69 204.828 142.679C216.757 130.571 220.154 127.997 224.2 128.004C227.973 128.01 232.693 131.541 233.927 135.279C235.592 140.323 234.044 143.339 225.22 152.251L217.546 160.001L225.654 168.251C230.185 172.86 234.043 177.71 234.398 179.242C235.776 185.183 230.105 192.007 223.8 191.996C222.535 191.994 220.15 191.149 218.5 190.118M144.466 146.75C145.126 143.805 158 46.605 158 44.565C158 43.18 154.556 43 128 43C99.393 43 98 43.087 98 44.865C98 47.094 110.807 143.514 111.533 146.75C112.031 148.968 112.263 149 128 149C143.737 149 143.969 148.968 144.466 146.75" />
    <glyph glyph-name="bucket"
      unicode="&#xEA11;"
      horiz-adv-x="256" d="M114.5 222.567C105.017 220.344 100.29 218.347 92.932 213.455C80.259 205.03 70.385 191.548 66.406 177.237L64.672 171L58.286 171C48.569 171 43 167.175 43 160.502C43 154.864 65.65 55.356 68.079 50.322C71.359 43.524 78.804 36.591 85.526 34.076C90.775 32.112 93.072 32 128 32C162.928 32 165.225 32.112 170.474 34.076C177.171 36.582 184.638 43.518 187.887 50.251C190.35 55.356 213 154.943 213 160.667C213 162.899 212.058 165.023 210.092 167.223C207.345 170.297 206.745 170.497 199.229 170.838L191.272 171.199L189.566 177.337C183.993 197.382 167.159 214.779 147.282 221.034C138.535 223.787 122.832 224.521 114.5 222.567M134.855 201.954C138.351 201.386 143.833 199.599 147.038 197.981C156.452 193.229 166.272 182.02 168.38 173.623L169.038 171L127.911 171L86.783 171L87.369 173.333C90.479 185.725 106.437 199.591 120.233 201.889C127.555 203.108 127.734 203.109 134.855 201.954M189 148.219C189 147.789 184.702 128.117 179.448 104.503C173.477 77.662 169.156 60.371 167.921 58.373C166.835 56.615 164.541 54.687 162.824 54.088C158.565 52.604 97.435 52.604 93.176 54.088C91.459 54.687 89.165 56.615 88.079 58.373C86.844 60.371 82.523 77.662 76.552 104.503C71.298 128.117 67 147.789 67 148.219C67 148.649 94.45 149 128 149C161.55 149 189 148.649 189 148.219" />
    <glyph glyph-name="building-pavilon"
      unicode="&#xEA12;"
      horiz-adv-x="256" d="M125.294 234.318C121.759 233.604 119.139 230.073 115.585 221.233C108.215 202.905 95.907 190.034 76.297 180.146C66.429 175.171 54.115 172.063 40.523 171.116C27.293 170.195 24.83 169.27 22.492 164.342C20.437 160.011 21.899 149.951 25.792 141.631C30.276 132.049 42.019 121.539 50.667 119.369L53 118.783L53 80.973L53 43.163L40.563 42.832C28.41 42.508 28.057 42.434 25.111 39.609C21.224 35.881 20.397 32.074 22.508 27.624C25.607 21.095 26.277 21 69.451 21C101.059 21 108.604 21.261 110.872 22.434C116.332 25.257 116.463 25.798 117 47.633L117.5 67.967L120.747 71.211C125.313 75.773 130.687 75.773 135.253 71.211L138.5 67.967L139 47.585C139.439 29.701 139.723 26.956 141.322 25.193C145.049 21.082 146.953 20.921 188.27 21.216L227.963 21.5L231.209 24.747C235.774 29.312 235.774 34.686 231.211 39.253L227.967 42.5L215.484 42.832L203 43.163L203 80.973L203 118.783L205.333 119.369C209.784 120.486 217.197 125.293 222.227 130.322C228.336 136.431 232.799 145.515 234.058 154.403C235.1 161.766 234.437 164.361 230.595 167.935C228.254 170.113 226.738 170.448 216.239 171.114C199.395 172.181 190.2 174.62 177.246 181.454C158.74 191.219 146.496 204.692 139.507 222.982C135.912 232.39 131.837 235.64 125.294 234.318M133.016 190.865C147.59 170.852 177.76 153.798 204.501 150.457C207.526 150.079 210 149.423 210 148.999C210 147.237 202.258 140.889 199.009 139.986C194.296 138.677 61.704 138.677 56.991 139.986C53.742 140.889 46 147.237 46 148.999C46 149.423 48.474 150.079 51.499 150.457C78.24 153.798 108.41 170.852 122.984 190.865C125.441 194.239 127.698 197 128 197C128.302 197 130.559 194.239 133.016 190.865M181 80L181 43L170.609 43L160.218 43L159.841 57.75C159.509 70.707 159.18 73.08 157.133 77.27C154.16 83.354 147.379 90.143 141.27 93.151C134.449 96.51 121.56 96.515 114.75 93.161C108.446 90.056 101.968 83.62 98.971 77.484C96.8 73.04 96.496 70.901 96.159 57.75L95.782 43L85.391 43L75 43L75 80L75 117L128 117L181 117L181 80" />
    <glyph glyph-name="building-skyscraper"
      unicode="&#xEA13;"
      horiz-adv-x="256" d="M91.867 212.502C61.748 197.393 46.545 189.237 45.117 187.421C43.006 184.738 43 184.519 43 113.865L43 43L36.901 43C29.298 43 24.655 40.9 22.577 36.522C20.617 32.39 20.617 31.61 22.577 27.478C25.814 20.658 20.249 21 128 21C235.751 21 230.186 20.658 233.423 27.478C234.29 29.307 235 31.341 235 32C235 32.659 234.29 34.693 233.423 36.522C231.345 40.9 226.702 43 219.099 43L213 43L213 92.777C213 133.862 212.755 142.905 211.598 144.557C210.827 145.658 196.427 155.728 179.598 166.935L149 187.311L149 207.433C149 224.417 148.746 227.918 147.369 229.883C145.768 232.169 140.307 235.053 137.782 234.945C137.077 234.915 116.415 224.816 91.867 212.502M128 125L128 43L96 43L64 43L64.026 108.75L64.051 174.5L95.776 190.693C113.224 199.6 127.612 206.912 127.75 206.943C127.888 206.975 128 170.1 128 125M93.327 170.292C90.286 169.717 86.249 165.409 85.483 161.923C84.438 157.165 87.663 151.789 92.584 150.088C96.293 148.806 97.026 148.851 100.584 150.588C103.569 152.046 104.832 153.46 105.897 156.54C107.136 160.125 107.103 160.98 105.601 164.145C103.392 168.8 98.471 171.265 93.327 170.292M171.017 146.988L192 132.977L192 87.988L192 43L170.5 43L149 43L149 102C149 134.45 149.233 161 149.517 161C149.802 161 159.477 154.695 171.017 146.988M93.327 138.292C90.286 137.717 86.249 133.409 85.483 129.923C84.438 125.165 87.663 119.789 92.584 118.088C96.293 116.806 97.026 116.851 100.584 118.588C103.569 120.046 104.832 121.46 105.897 124.54C107.136 128.125 107.103 128.98 105.601 132.145C103.392 136.8 98.471 139.265 93.327 138.292M93.327 106.292C90.286 105.717 86.249 101.409 85.483 97.923C84.438 93.165 87.663 87.789 92.584 86.088C96.293 84.806 97.026 84.851 100.584 86.588C103.569 88.046 104.832 89.46 105.897 92.54C107.136 96.125 107.103 96.98 105.601 100.145C103.392 104.8 98.471 107.265 93.327 106.292M93.327 74.292C90.286 73.717 86.249 69.409 85.483 65.923C84.438 61.165 87.663 55.789 92.584 54.088C96.293 52.806 97.026 52.851 100.584 54.588C103.569 56.046 104.832 57.46 105.897 60.54C107.136 64.125 107.103 64.98 105.601 68.145C103.392 72.8 98.471 75.265 93.327 74.292" />
    <glyph glyph-name="building-skyscrappers"
      unicode="&#xEA14;"
      horiz-adv-x="256" d="M91.867 212.502C61.748 197.393 46.545 189.237 45.117 187.421C43.006 184.738 43 184.519 43 113.865L43 43L36.901 43C29.298 43 24.655 40.9 22.577 36.522C20.617 32.39 20.617 31.61 22.577 27.478C25.814 20.658 20.249 21 128 21C235.751 21 230.186 20.658 233.423 27.478C234.29 29.307 235 31.341 235 32C235 32.659 234.29 34.693 233.423 36.522C231.345 40.9 226.702 43 219.099 43L213 43L213 92.777C213 133.862 212.755 142.905 211.598 144.557C210.827 145.658 196.427 155.728 179.598 166.935L149 187.311L149 207.433C149 224.417 148.746 227.918 147.369 229.883C145.768 232.169 140.307 235.053 137.782 234.945C137.077 234.915 116.415 224.816 91.867 212.502M128 125L128 43L96 43L64 43L64.026 108.75L64.051 174.5L95.776 190.693C113.224 199.6 127.612 206.912 127.75 206.943C127.888 206.975 128 170.1 128 125M93.327 170.292C90.286 169.717 86.249 165.409 85.483 161.923C84.438 157.165 87.663 151.789 92.584 150.088C96.293 148.806 97.026 148.851 100.584 150.588C103.569 152.046 104.832 153.46 105.897 156.54C107.136 160.125 107.103 160.98 105.601 164.145C103.392 168.8 98.471 171.265 93.327 170.292M171.017 146.988L192 132.977L192 87.988L192 43L170.5 43L149 43L149 102C149 134.45 149.233 161 149.517 161C149.802 161 159.477 154.695 171.017 146.988M93.327 138.292C90.286 137.717 86.249 133.409 85.483 129.923C84.438 125.165 87.663 119.789 92.584 118.088C96.293 116.806 97.026 116.851 100.584 118.588C103.569 120.046 104.832 121.46 105.897 124.54C107.136 128.125 107.103 128.98 105.601 132.145C103.392 136.8 98.471 139.265 93.327 138.292M93.327 106.292C90.286 105.717 86.249 101.409 85.483 97.923C84.438 93.165 87.663 87.789 92.584 86.088C96.293 84.806 97.026 84.851 100.584 86.588C103.569 88.046 104.832 89.46 105.897 92.54C107.136 96.125 107.103 96.98 105.601 100.145C103.392 104.8 98.471 107.265 93.327 106.292M93.327 74.292C90.286 73.717 86.249 69.409 85.483 65.923C84.438 61.165 87.663 55.789 92.584 54.088C96.293 52.806 97.026 52.851 100.584 54.588C103.569 56.046 104.832 57.46 105.897 60.54C107.136 64.125 107.103 64.98 105.601 68.145C103.392 72.8 98.471 75.265 93.327 74.292" />
    <glyph glyph-name="building-store"
      unicode="&#xEA15;"
      horiz-adv-x="256" d="M51 234.287C49.625 234.029 47.655 233.071 46.623 232.159C45.591 231.246 39.351 219.7 32.758 206.5L20.769 182.5L21.338 172.5C21.651 167 22.594 160.228 23.433 157.451C25.467 150.718 31.33 142.528 37.676 137.556L42.851 133.5L42.926 88.25L43 43L36.901 43C29.298 43 24.655 40.9 22.577 36.522C20.617 32.39 20.617 31.61 22.577 27.478C25.814 20.658 20.249 21 128 21C235.751 21 230.186 20.658 233.423 27.478C235.383 31.61 235.383 32.39 233.423 36.522C231.345 40.9 226.702 43 219.099 43L213 43L213.074 88.25L213.149 133.5L218.324 137.556C224.67 142.528 230.533 150.718 232.567 157.451C233.406 160.228 234.349 167 234.662 172.5L235.231 182.5L223.242 206.5C216.649 219.7 210.25 231.4 209.023 232.5C206.835 234.461 205.287 234.503 130.146 234.629C87.99 234.699 52.375 234.546 51 234.287M200.991 203.018C203.746 197.528 206 192.803 206 192.518C206 192.233 170.9 192 128 192C85.1 192 50 192.233 50 192.518C50 192.803 52.254 197.528 55.009 203.018L60.018 213L128 213L195.982 213L200.991 203.018M84.705 166.834C83.435 157.367 74.072 149.551 64 149.551C53.928 149.551 44.565 157.367 43.295 166.834L42.737 171L64 171L85.263 171L84.705 166.834M148.705 166.834C147.435 157.367 138.072 149.551 128 149.551C117.928 149.551 108.565 157.367 107.295 166.834L106.737 171L128 171L149.263 171L148.705 166.834M212.705 166.834C211.435 157.367 202.072 149.551 192 149.551C181.928 149.551 172.565 157.367 171.295 166.834L170.737 171L192 171L213.263 171L212.705 166.834M101.423 137.606C109.578 130.964 116.5 128.625 128 128.625C139.505 128.625 146.422 130.964 154.591 137.617L160 142.023L165.409 137.617C171.366 132.765 179.11 129.452 186.915 128.417L192 127.742L192 85.371L192 43L181.619 43L171.237 43L170.825 62.25C170.437 80.399 170.265 81.821 167.822 87.12C164.324 94.704 158.975 100.374 152.161 103.72C146.59 106.456 146.206 106.5 128 106.5C109.753 106.5 109.422 106.462 103.786 103.694C97.781 100.745 91.324 94.31 88.59 88.549C85.894 82.868 85 75.473 85 58.864L85 43L74.5 43L64 43L64 85.371L64 127.742L69.085 128.417C76.916 129.456 84.674 132.783 90.344 137.536C93.18 139.913 95.619 141.89 95.764 141.929C95.909 141.968 98.456 140.023 101.423 137.606M146.077 82.077L149 79.154L149 61.077L149 43L128 43L107 43L107 61.077L107 79.154L109.923 82.077L112.846 85L128 85L143.154 85L146.077 82.077" />
    <glyph glyph-name="bug"
      unicode="&#xEA16;"
      horiz-adv-x="256" d="M115 211.125C107.724 208.787 102.537 205.384 96.68 199.104C91.475 193.524 87.51 185.879 86.511 179.5C84.593 167.248 84.448 167.257 62.928 181.015C46.797 191.328 45.21 192.12 41.597 191.653C36.541 191 33.005 187.456 32.321 182.354C31.553 176.629 34.248 173.979 53.043 161.972C65.537 153.991 68.954 151.356 68.43 150.107C67.328 147.478 65.14 137.847 64.486 132.75L63.877 128L46.889 128C27.558 128 24.843 127.262 22.365 121.33C20.434 116.708 21.38 112.7 25.15 109.527C28.116 107.032 28.376 107 45.939 107L63.725 107L64.297 95.25C64.612 88.787 65.13 82.6 65.45 81.5C65.946 79.792 63.819 78.194 50.879 70.551C32.193 59.514 29.79 56.46 33.548 48.54C34.4 46.745 36.221 44.765 37.595 44.139C42.744 41.793 45.806 42.777 60.188 51.404L74.199 59.808L82.35 51.572C88.815 45.039 92.257 42.471 99 39.15C118.23 29.679 137.77 29.679 157 39.15C163.743 42.471 167.185 45.039 173.65 51.572L181.801 59.808L195.812 51.404C211.793 41.818 214.862 41.101 220.019 45.75C223.97 49.312 224.821 54.343 222.184 58.551C220.907 60.588 215.238 64.575 205.121 70.551C192.181 78.194 190.054 79.792 190.55 81.5C190.87 82.6 191.388 88.787 191.703 95.25L192.275 107L210.061 107C227.624 107 227.884 107.032 230.85 109.527C234.62 112.7 235.566 116.708 233.635 121.33C231.157 127.262 228.442 128 209.111 128L192.123 128L191.514 132.75C190.86 137.847 188.672 147.478 187.57 150.107C187.046 151.356 190.463 153.991 202.957 161.972C223.499 175.094 225.892 177.893 223.025 185.434C221.855 188.512 216.497 191.991 212.919 191.996C211.339 191.999 203.578 187.689 192.923 180.893C177.818 171.259 175.177 169.903 173.006 170.667C170.857 171.423 170.399 172.373 169.773 177.386C169.372 180.597 167.933 185.65 166.576 188.615C163.708 194.88 155.554 203.901 149.626 207.368C139.976 213.012 125.695 214.562 115 211.125M134.277 190.94C141.357 188.974 148.913 179.881 148.978 173.25L149 171L128 171L107 171L107.022 173.25C107.034 174.487 107.877 177.3 108.896 179.5C113.427 189.288 123.644 193.893 134.277 190.94M166.83 144.174C169.795 137.281 170.877 128.646 170.923 111.5C170.973 92.932 169.959 85.647 166.209 77.632C161.724 68.049 149.982 57.539 141.333 55.369L139 54.783L139 80.924C139 108.972 138.534 112.112 133.883 115.369C130.935 117.434 125.115 117.469 122.217 115.439C117.31 112.002 117 109.985 117 81.441L117 54.783L114.317 55.456C105.876 57.575 94.264 68.075 89.791 77.632C86.041 85.647 85.027 92.932 85.077 111.5C85.123 128.646 86.205 137.281 89.17 144.174L91.246 149L128 149L164.754 149L166.83 144.174" />
    <glyph glyph-name="bulb"
      unicode="&#xEA17;"
      horiz-adv-x="256" d="M124.5 234.084C123.4 233.608 121.375 232.008 120 230.529C117.697 228.051 117.5 227.088 117.5 218.337C117.5 208.871 117.512 208.825 120.766 205.918C125.282 201.882 130.717 201.882 135.234 205.917C138.491 208.826 138.5 208.861 138.5 218.396C138.5 227.686 138.415 228.042 135.5 230.955C132.273 234.181 127.719 235.476 124.5 234.084M55.256 205.971C52.538 204.878 49.009 199.363 49.004 196.2C48.996 191.723 54.606 184.563 61.973 179.649C66.768 176.45 73.702 178.589 76.58 184.155C78.816 188.478 77.823 192.165 72.831 198.085C66.065 206.109 61.119 208.328 55.256 205.971M189.336 204.128C184.203 200.41 179.148 193.991 178.398 190.238C177.235 184.423 182.995 178 189.373 178C194.679 178 207.004 190.468 206.996 195.828C206.991 199.485 203.544 204.843 200.434 206.025C196.231 207.623 193.521 207.16 189.336 204.128M114.5 190.502C96.401 186.759 79.266 173.501 71.161 156.966C65.24 144.888 63.656 137.692 64.236 125.506C65.094 107.492 71.679 93.495 85.694 79.894C93.951 71.881 96.012 67.063 96.005 55.788C95.998 45.706 98.74 38.262 104.872 31.706C112.723 23.313 123.089 19.845 133.75 22.045C141.634 23.672 145.757 25.964 151.128 31.706C157.396 38.407 160 45.658 160 56.41C160 67.529 161.834 71.348 172.452 82.338C186.709 97.095 192.687 112.02 191.741 130.5C190.345 157.791 173.943 179.613 148.059 188.614C138.983 191.771 124.558 192.582 114.5 190.502M134.389 169.965C153.094 167.261 167.855 151.858 169.877 132.935C171.52 117.553 167.631 108 154.079 94.136L145.15 85L128.028 85L110.906 85L101.811 94.191C91.023 105.093 87.314 111.918 86.123 123.065C85.125 132.412 86.204 138.942 90.037 146.726C96.018 158.875 107.8 167.677 121 169.858C124.025 170.357 126.725 170.81 127 170.863C127.275 170.917 130.6 170.512 134.389 169.965M29 138.345C26.108 137.199 22.091 132.692 21.479 129.906C20.596 125.882 23.452 120.488 27.478 118.577C31.778 116.537 43.111 116.489 46.989 118.494C53.67 121.949 55.089 129.63 50.082 135.234C47.27 138.381 46.861 138.508 38.832 138.72C34.249 138.84 29.825 138.672 29 138.345M209.388 138.069C203.453 135.533 201.065 126.73 204.966 121.77C207.982 117.936 212.029 116.732 220.474 117.159C227.385 117.508 228.264 117.803 231.227 120.766C235.774 125.312 235.767 130.694 231.208 135.253C228.127 138.335 227.544 138.512 219.731 138.736C215.204 138.865 210.55 138.565 209.388 138.069M138.157 58.484C138.346 55.45 138.157 51.653 137.738 50.047C136.69 46.032 132.538 43 128.088 43C120.729 43 117.071 48.409 117.774 58.25L118.185 64L128 64L137.815 64L138.157 58.484" />
    <glyph glyph-name="bulb-off"
      unicode="&#xEA18;"
      horiz-adv-x="256" d="M114.5 190.502C96.401 186.759 79.266 173.501 71.161 156.966C65.24 144.888 63.656 137.692 64.236 125.506C65.094 107.492 71.679 93.495 85.694 79.894C93.951 71.881 96.012 67.063 96.005 55.788C95.998 45.706 98.74 38.262 104.872 31.706C112.723 23.313 123.089 19.845 133.75 22.045C141.634 23.672 145.757 25.964 151.128 31.706C157.396 38.407 160 45.658 160 56.41C160 67.529 161.834 71.348 172.452 82.338C186.709 97.095 192.687 112.02 191.741 130.5C190.345 157.791 173.943 179.613 148.059 188.614C138.983 191.771 124.558 192.582 114.5 190.502M134.389 169.965C153.094 167.261 167.855 151.858 169.877 132.935C171.52 117.553 167.631 108 154.079 94.136L145.15 85L128.028 85L110.906 85L101.811 94.191C91.023 105.093 87.314 111.918 86.123 123.065C85.125 132.412 86.204 138.942 90.037 146.726C96.018 158.875 107.8 167.677 121 169.858C124.025 170.357 126.725 170.81 127 170.863C127.275 170.917 130.6 170.512 134.389 169.965M138.157 58.484C138.346 55.45 138.157 51.653 137.738 50.047C136.69 46.032 132.538 43 128.088 43C120.729 43 117.071 48.409 117.774 58.25L118.185 64L128 64L137.815 64L138.157 58.484" />
    <glyph glyph-name="bulldozer"
      unicode="&#xEA19;"
      horiz-adv-x="256" d="M80.5 190.839C75.184 187.916 75.046 187.195 75.022 162.25L75 139L69.549 139C51.578 139 43.069 131.25 43.022 114.838L43 107.176L38.75 106.499C27.496 104.706 16.719 96.193 12.929 86.102C10.091 78.547 10.493 67.469 13.84 61C16.936 55.015 23.064 48.835 28.817 45.894L33.5 43.5L89.148 43.226C143 42.96 144.971 43.017 150.227 44.984C156.509 47.334 163.91 53.943 166.964 59.929C169.037 63.992 169.052 64 174.911 64L180.781 64L181.165 56.396C181.524 49.3 181.766 48.598 184.79 45.896L188.032 43L207.939 43C227.673 43 227.872 43.022 230.794 45.48C234.423 48.534 235.45 52.986 233.566 57.496C231.347 62.808 227.861 64 214.55 64L203 64L203 91.032C203 120.924 202.551 123.629 197.128 126.434C193.302 128.412 190.698 128.412 186.872 126.434C181.884 123.855 181 120.104 181 101.532L181 85L175.047 85C169.299 85 169.04 85.113 167.533 88.289C164.914 93.809 160.024 98.969 154.413 102.136L149.073 105.15L149.035 130.825C148.996 157.673 148.574 161.034 144.159 169.688C141.291 175.31 132.147 184.094 125.861 187.265C122.912 188.753 118.076 190.427 115.114 190.985C107.887 192.347 83.051 192.242 80.5 190.839M117.766 167.341C124.598 163.117 128 156.151 128 146.386L128 139L112 139L96 139L96 155.141L96 171.282L104.56 170.748C111.685 170.303 113.899 169.732 117.766 167.341M128 112L128 107L96 107L64 107L64 112L64 117L96 117L128 117L128 112M50.077 82.077C54.399 77.755 54.212 72.012 49.6 67.4C47.02 64.82 45.35 64 42.677 64C34.966 64 29.787 72.735 33.458 79.551C36.795 85.748 45.138 87.016 50.077 82.077M107.5 74.5L107.5 64L90.231 64L72.962 64L73.674 66.75C74.066 68.262 74.387 71.75 74.387 74.5C74.387 77.25 74.066 80.738 73.674 82.25L72.962 85L90.231 85L107.5 85L107.5 74.5M146.077 82.077C150.399 77.755 150.212 72.012 145.6 67.4C143.02 64.82 141.35 64 138.677 64C130.966 64 125.787 72.735 129.458 79.551C132.795 85.748 141.138 87.016 146.077 82.077" />
    <glyph glyph-name="bus"
      unicode="&#xEA1A;"
      horiz-adv-x="256" d="M25.5 212.281C23.002 211.638 18.051 208.194 15.785 205.522C10.847 199.701 10.959 201.36 10.977 134.612C10.988 88.206 11.301 71.433 12.191 69.48C13.986 65.541 17.925 64 26.202 64L33.503 64L35.9 59.482C38.683 54.236 44.104 49.05 50.205 45.796C53.815 43.871 56.015 43.506 64 43.506C71.985 43.506 74.185 43.871 77.795 45.796C83.896 49.05 89.317 54.236 92.1 59.482L94.497 64L128 64L161.503 64L163.9 59.482C166.683 54.236 172.104 49.05 178.205 45.796C181.815 43.871 184.015 43.506 192 43.506C199.985 43.506 202.185 43.871 205.795 45.796C211.896 49.05 217.317 54.236 220.1 59.482L222.497 64L229.798 64C238.047 64 242.014 65.541 243.787 69.432C245.692 73.612 245.498 137.13 243.548 148.176C239.481 171.204 226.675 193.032 211 203.653C208.525 205.33 203.35 208.007 199.5 209.601L192.5 212.5L110 212.648C64.625 212.729 26.6 212.564 25.5 212.281M64 176L64 160L48 160L32 160L32 176L32 192L48 192L64 192L64 176M117 176L117 160L101 160L85 160L85 176L85 192L101 192L117 192L117 176M162.367 190.25C162.643 189.287 164.053 182.875 165.5 176C166.947 169.125 168.357 162.713 168.633 161.75C169.095 160.139 167.942 160 154.067 160L139 160L139 176L139 192L150.433 192C160.463 192 161.927 191.785 162.367 190.25M195.034 188.469C206.467 182.71 217.549 166.492 221.499 149.742C224.215 138.221 225.122 139 209 139C201.3 139 195 139.229 195 139.51C195 139.79 192.525 151.546 189.5 165.635C186.475 179.723 184 191.455 184 191.705C184 192.629 190.642 190.682 195.034 188.469M175.029 131.5C178.261 117.374 179.034 117 204.968 117L224 117L224 101C224 92.2 223.618 85 223.152 85C222.685 85 221.49 86.804 220.496 89.009C218.526 93.377 211.111 100.857 206.267 103.362C199.138 107.049 184.862 107.049 177.733 103.362C172.889 100.857 165.474 93.377 163.504 89.009L161.696 85L128 85L94.304 85L92.496 89.009C90.526 93.377 83.111 100.857 78.267 103.362C71.138 107.049 56.862 107.049 49.733 103.362C44.889 100.857 37.474 93.377 35.504 89.009C34.51 86.804 33.315 85 32.848 85C32.382 85 32 97.153 32 112.007L32 139.013L102.713 138.757L173.427 138.5L175.029 131.5M71.077 82.077C74.971 78.183 75.202 71.508 71.587 67.306C69.521 64.904 68.428 64.5 64 64.5C57.226 64.5 54 67.769 54 74.633C54 80.868 57.986 85 64 85C67.258 85 68.784 84.369 71.077 82.077M199.077 82.077C202.971 78.183 203.202 71.508 199.587 67.306C197.521 64.904 196.428 64.5 192 64.5C185.226 64.5 182 67.769 182 74.633C182 80.868 185.986 85 192 85C195.258 85 196.784 84.369 199.077 82.077" />
    <glyph glyph-name="businessplan"
      unicode="&#xEA1B;"
      horiz-adv-x="256" d="M159.517 233.928C134.305 231.166 112.81 217.379 107.924 200.834C106.687 196.645 106.627 59.749 107.86 55.472C111.657 42.304 125.177 31.034 144.228 25.155C154.145 22.095 169.296 20.787 180.346 22.039C193.229 23.498 200.206 25.508 210.093 30.608C220.321 35.884 228.147 43.212 231.871 51L234.5 56.5L234.5 128L234.5 199.5L231.66 205.283C227.43 213.899 220.367 220.25 208.557 226.061C193.988 233.228 177.411 235.887 159.517 233.928M186.5 211.489C201.545 208.316 213 199.892 213 192C213 180.863 193.296 171.062 170.815 171.017C151.151 170.978 132.996 178.352 128.999 188.003C125.464 196.536 134.992 206.015 152 210.886C160.477 213.314 176.517 213.594 186.5 211.489M45.923 178.077C44.253 176.407 43 174.083 43 172.656C43 170.751 42.348 170.01 40.25 169.531C38.737 169.186 35.713 167.675 33.529 166.173C17.576 155.205 17.342 133.458 33.054 122.076C37.83 118.616 44.493 117 53.978 117C61.268 117 64 115.637 64 112C64 107.69 61.661 107 47.054 107C30.64 107 27.807 106.534 24.578 103.305C21.209 99.936 20.49 95.877 22.508 91.624C24.659 87.091 29.202 85 36.901 85C42.409 85 43 84.799 43 82.923C43 81.781 44.315 79.531 45.923 77.923C52.01 71.836 64 76.139 64 84.411C64 85.136 66.085 86.525 68.634 87.498C74.205 89.626 80.481 95.644 83.067 101.339C85.942 107.671 85.666 117.27 82.422 123.78C77.48 133.698 69.837 137.887 55.163 138.719C49.848 139.02 44.938 139.712 44.25 140.256C42.626 141.541 42.638 146.454 44.268 147.807C45.007 148.421 52.548 148.993 62.352 149.18L79.169 149.5L82.084 152.766C84.21 155.146 85 157.051 85 159.793C85 166.984 79.588 170.978 69.782 171.026C64.644 171.051 64.452 171.156 62.743 174.869C59.63 181.63 51.103 183.257 45.923 178.077M144.228 153.153C163.624 147.173 190.909 148.877 207.17 157.086L213 160.029L213 153.465C213 145.888 211.433 142.178 206.751 138.664C188.025 124.61 152.839 124.58 134.456 138.602C129.474 142.401 128 145.796 128 153.467L128 160.034L132.75 157.631C135.363 156.309 140.528 154.294 144.228 153.153M144 110.402C152.069 107.717 153.413 107.574 170.5 107.574C187.587 107.574 188.931 107.717 197 110.402C201.675 111.958 207.188 114.088 209.25 115.136L213 117.041L213 110.023C213 103.339 212.825 102.812 209.31 98.921C203.145 92.097 192.968 87.737 179.316 86.071C159.49 83.652 137.346 90.347 130.277 100.898C128.501 103.547 128 105.699 128 110.668L128 117.041L131.75 115.136C133.813 114.088 139.325 111.958 144 110.402M136.616 70.571C146.731 66.367 156.223 64.725 170.5 64.711C187.366 64.694 195.284 66.412 211.75 73.664C212.684 74.075 213 72.42 213 67.11C213 60.355 212.823 59.809 209.392 56.013C194.986 40.067 153.362 38.457 134.836 53.13C132.693 54.827 130.278 57.495 129.47 59.058C127.599 62.676 127.421 74.469 129.25 73.664C129.938 73.361 133.252 71.969 136.616 70.571" />
    <glyph glyph-name="brightness-half"
      unicode="&#xEA1C;"
      horiz-adv-x="256" d="M110.583 216.07L97.5 203.141L79 202.82C52.741 202.366 53 202.634 53 175.895L53 158.591L40 145.463C27.352 132.69 27 132.217 27 128C27 123.783 27.352 123.31 40 110.537L53 97.409L53 80.105C53 53.302 53.302 53 80.105 53L97.409 53L110.537 40C123.31 27.352 123.783 27 128 27C132.217 27 132.69 27.352 145.463 40L158.591 53L175.895 53C202.698 53 203 53.302 203 80.105L203 97.409L216 110.537C228.648 123.31 229 123.783 229 128C229 132.217 228.648 132.69 216 145.463L203 158.591L203 175.895C203 202.634 203.259 202.366 177 202.82L158.5 203.141L145.417 216.07C132.696 228.642 132.214 229 128 229C123.786 229 123.304 228.642 110.583 216.07M138.02 193.395C143.234 188.112 148.948 183.162 150.718 182.395C152.946 181.429 158.099 181 167.468 181L181 181L181 167.565C181 160.176 181.473 152.863 182.051 151.315C182.629 149.767 187.683 143.888 193.283 138.25L203.464 128L193.283 117.75C187.683 112.113 182.629 106.233 182.051 104.685C181.473 103.137 181 95.824 181 88.435L181 75L168.243 75C161.227 75 153.924 74.552 152.015 74.004C149.669 73.331 145.21 69.687 138.271 62.772L128 52.536L117.729 62.772C110.79 69.687 106.331 73.331 103.985 74.004C102.076 74.552 94.773 75 87.757 75L75 75L75 88.435C75 95.824 74.527 103.137 73.949 104.685C73.371 106.233 68.317 112.113 62.717 117.75L52.536 128L62.717 138.25C68.317 143.888 73.371 149.767 73.949 151.315C74.527 152.863 75 160.176 75 167.565L75 181L88.532 181C97.901 181 103.054 181.429 105.282 182.395C107.052 183.162 112.766 188.112 117.98 193.395C123.194 198.678 127.703 203 128 203C128.297 203 132.806 198.678 138.02 193.395M120.233 169.932C108.347 167.854 95.405 158.035 89.774 146.823C77.255 121.895 93.539 90.447 121.25 86.036C129.441 84.732 131.926 85.269 135.64 89.147L138.5 92.131L138.5 128.046L138.5 163.962L135.45 167.011C131.931 170.53 127.986 171.288 120.233 169.932M117 127.953L117 109.907L114.605 111.703C107.723 116.866 104.817 128.598 108.499 136.357C109.918 139.347 115.569 146 116.69 146C116.86 146 117 137.879 117 127.953" />
    <glyph glyph-name="calendar"
      unicode="&#xEA1D;"
      horiz-adv-x="256" d="M81.5 234.055C77.098 232.253 75.521 229.123 75 221.149L74.5 213.5L63.921 212.958C54.839 212.492 52.504 211.997 47.421 209.458C40.763 206.132 35.814 200.419 33.777 193.708C32.791 190.459 32.5 172.867 32.5 116.5L32.5 43.5L34.804 38.5C39.009 29.373 46.162 23.942 56.434 22.077C64.565 20.601 191.435 20.601 199.566 22.077C209.838 23.942 216.991 29.373 221.196 38.5L223.5 43.5L223.5 116.5C223.5 172.867 223.209 190.459 222.223 193.708C220.246 200.22 215.167 206.094 208.617 209.444C203.602 212.009 201.384 212.482 192.16 212.954L181.5 213.5L181 221.174C180.59 227.463 180.072 229.302 178.124 231.372C175.001 234.691 171.06 235.47 166.67 233.635C161.9 231.642 160 227.63 160 219.55L160 213L128 213L96 213L96 219.55C96 227.547 94.091 231.646 89.466 233.579C85.665 235.167 84.402 235.242 81.5 234.055M75 184.423C75 177.382 75.207 176.639 77.923 173.923C80.05 171.796 81.808 171 84.376 171C92.658 171 96 175.154 96 185.45L96 192L128 192L160 192L160 185.45C160 175.154 163.342 171 171.624 171C174.192 171 175.95 171.796 178.077 173.923C180.793 176.639 181 177.382 181 184.423L181 192L188.453 192C202.354 192 203.191 190.468 202.775 165.8L202.5 149.5L128 149.5L53.5 149.5L53.225 165.8C52.923 183.718 53.791 189.112 57.247 190.778C58.486 191.376 62.987 191.895 67.25 191.932L75 192L75 184.423M203 89.649C203 50.131 202.63 45.942 198.961 43.979C197.818 43.367 171.069 43 127.677 43C60.793 43 58.134 43.071 55.861 44.911L53.5 46.822L53.207 87.411L52.915 128L127.957 128L203 128L203 89.649M113.378 105.563C109.225 103.756 107 100.368 107 95.854C107 91.528 110.628 86.561 114.497 85.59C116.979 84.967 117 84.87 117 73.882C117 60.991 118.333 57.019 123.478 54.577C127.61 52.617 128.39 52.617 132.522 54.577C138.201 57.272 139 60.465 139 80.451C139 99.963 138.338 102.74 133.033 105.483C129.356 107.385 117.673 107.432 113.378 105.563" />
    <glyph glyph-name="calendar-1"
      unicode="&#xEA1E;"
      horiz-adv-x="256" d="M81.5 234.055C77.098 232.253 75.521 229.123 75 221.149L74.5 213.5L64.5 212.928C56.934 212.495 53.454 211.815 50.205 210.134C43.667 206.754 38.356 201.425 35.28 195.161L32.5 189.5L32.5 117.5L32.5 45.5L34.808 40.401C39.013 31.113 48.3 24.029 58.91 22.017C66.133 20.647 189.867 20.647 197.09 22.017C207.7 24.029 216.987 31.113 221.192 40.401L223.5 45.5L223.5 117.5L223.5 189.5L220.72 195.161C217.644 201.425 212.333 206.754 205.795 210.134C202.546 211.815 199.066 212.495 191.5 212.928L181.5 213.5L181 221.174C180.59 227.463 180.072 229.302 178.124 231.372C175.001 234.691 171.06 235.47 166.67 233.635C161.9 231.642 160 227.63 160 219.55L160 213L128 213L96 213L96 219.55C96 227.547 94.091 231.646 89.466 233.579C85.665 235.167 84.402 235.242 81.5 234.055M75 184.423C75 177.382 75.207 176.639 77.923 173.923C80.05 171.796 81.808 171 84.376 171C92.658 171 96 175.154 96 185.45L96 192L128 192L160 192L160 185.45C160 175.154 163.342 171 171.624 171C174.192 171 175.95 171.796 178.077 173.923C180.793 176.639 181 177.382 181 184.423L181 192L187.75 191.996C196.285 191.992 200.403 189.767 202 184.298C202.668 182.009 202.987 174.34 202.804 165L202.5 149.5L128 149.5L53.5 149.5L53.196 165C53.013 174.34 53.332 182.009 54 184.298C55.597 189.767 59.715 191.992 68.25 191.996L75 192L75 184.423M202.794 88.417L202.5 48.834L199.234 45.917L195.968 43L128 43L60.032 43L56.766 45.917L53.5 48.834L53.217 88.417L52.934 128L128.01 128L203.087 128L202.794 88.417" />
    <glyph glyph-name="calendar-event"
      unicode="&#xEA1F;"
      horiz-adv-x="256" d="M81.5 234.055C77.098 232.253 75.521 229.123 75 221.149L74.5 213.5L63.921 212.958C54.839 212.492 52.504 211.997 47.421 209.458C40.763 206.132 35.814 200.419 33.777 193.708C32.791 190.459 32.5 172.867 32.5 116.5L32.5 43.5L34.804 38.5C39.009 29.373 46.162 23.942 56.434 22.077C64.565 20.601 191.435 20.601 199.566 22.077C209.838 23.942 216.991 29.373 221.196 38.5L223.5 43.5L223.5 116.5C223.5 172.867 223.209 190.459 222.223 193.708C220.246 200.22 215.167 206.094 208.617 209.444C203.602 212.009 201.384 212.482 192.16 212.954L181.5 213.5L181 221.174C180.59 227.463 180.072 229.302 178.124 231.372C175.001 234.691 171.06 235.47 166.67 233.635C161.9 231.642 160 227.63 160 219.55L160 213L128 213L96 213L96 219.55C96 227.547 94.091 231.646 89.466 233.579C85.665 235.167 84.402 235.242 81.5 234.055M75 184.423C75 177.382 75.207 176.639 77.923 173.923C80.05 171.796 81.808 171 84.376 171C92.658 171 96 175.154 96 185.45L96 192L128 192L160 192L160 185.45C160 175.154 163.342 171 171.624 171C174.192 171 175.95 171.796 178.077 173.923C180.793 176.639 181 177.382 181 184.423L181 192L188.453 192C202.354 192 203.191 190.468 202.775 165.8L202.5 149.5L128 149.5L53.5 149.5L53.225 165.8C52.923 183.718 53.791 189.112 57.247 190.778C58.486 191.376 62.987 191.895 67.25 191.932L75 192L75 184.423M203 89.649C203 50.131 202.63 45.942 198.961 43.979C197.818 43.367 171.069 43 127.677 43C60.793 43 58.134 43.071 55.861 44.911L53.5 46.822L53.207 87.411L52.915 128L127.957 128L203 128L203 89.649M81.378 105.563C75.586 103.042 74.997 101.134 75.032 85.027C75.065 69.781 75.281 68.938 79.973 65.704C83.604 63.201 108.396 63.201 112.027 65.704C116.719 68.938 116.935 69.781 116.968 85.027C117.004 101.253 116.417 103.092 110.401 105.606C105.935 107.472 85.696 107.442 81.378 105.563" />
    <glyph glyph-name="calendar-minus"
      unicode="&#xEA20;"
      horiz-adv-x="256" d="M81.5 234.055C77.098 232.253 75.521 229.123 75 221.149L74.5 213.5L63.921 212.958C54.839 212.492 52.504 211.997 47.421 209.458C40.763 206.132 35.814 200.419 33.777 193.708C32.791 190.459 32.5 172.867 32.5 116.5L32.5 43.5L34.804 38.5C39.009 29.373 46.162 23.942 56.434 22.077C64.565 20.601 191.435 20.601 199.566 22.077C209.838 23.942 216.991 29.373 221.196 38.5L223.5 43.5L223.5 116.5C223.5 172.867 223.209 190.459 222.223 193.708C220.246 200.22 215.167 206.094 208.617 209.444C203.602 212.009 201.384 212.482 192.16 212.954L181.5 213.5L181 221.174C180.59 227.463 180.072 229.302 178.124 231.372C175.001 234.691 171.06 235.47 166.67 233.635C161.9 231.642 160 227.63 160 219.55L160 213L128 213L96 213L96 219.55C96 227.547 94.091 231.646 89.466 233.579C85.665 235.167 84.402 235.242 81.5 234.055M75 184.423C75 177.382 75.207 176.639 77.923 173.923C80.05 171.796 81.808 171 84.376 171C92.658 171 96 175.154 96 185.45L96 192L128 192L160 192L160 185.45C160 175.154 163.342 171 171.624 171C174.192 171 175.95 171.796 178.077 173.923C180.793 176.639 181 177.382 181 184.423L181 192L188.453 192C202.354 192 203.191 190.468 202.775 165.8L202.5 149.5L128 149.5L53.5 149.5L53.225 165.8C52.923 183.718 53.791 189.112 57.247 190.778C58.486 191.376 62.987 191.895 67.25 191.932L75 192L75 184.423M203 89.649C203 50.131 202.63 45.942 198.961 43.979C197.818 43.367 171.069 43 127.677 43C60.793 43 58.134 43.071 55.861 44.911L53.5 46.822L53.207 87.411L52.915 128L127.957 128L203 128L203 89.649M102.388 95.045C99.202 93.72 96 89.094 96 85.815C96 81.763 98.361 77.612 101.472 76.195C105.534 74.344 151.212 74.541 154.855 76.425C160.565 79.378 161.656 87.114 157.084 92.234L154.167 95.5L129.334 95.712C115.675 95.828 103.55 95.528 102.388 95.045" />
    <glyph glyph-name="calendar-off"
      unicode="&#xEA21;"
      horiz-adv-x="256" d="M27.321 233.387C23.295 231.401 20.615 226.028 21.544 221.801C21.976 219.832 25.23 215.552 30.442 210.098L38.659 201.5L35.579 195.571L32.5 189.641L32.5 117.571L32.5 45.5L34.808 40.401C39.013 31.113 48.3 24.029 58.91 22.017C66.084 20.657 189.838 20.647 197.114 22.006C200.076 22.56 204.67 24.13 207.322 25.496L212.144 27.979L215.822 25.052C220.772 21.114 224.031 20.446 228.338 22.49C232.715 24.567 235.415 29.762 234.473 34.297C233.943 36.85 214.101 57.23 136.668 134.748C83.241 188.235 38.103 232.672 36.363 233.498C32.428 235.365 31.305 235.351 27.321 233.387M81.378 233.539C76.077 231.273 75 228.683 75 218.201C75 209.195 75.109 208.737 77.923 205.923C79.531 204.315 81.746 203 82.846 203C84.252 203 85.195 201.939 86.026 199.423C86.74 197.258 88.449 195.087 90.353 193.926C93.289 192.136 95.732 192.007 126.75 192.004L160 192L160 185.45C160 175.154 163.342 171 171.624 171C174.192 171 175.95 171.796 178.077 173.923C180.793 176.639 181 177.382 181 184.423L181 192L187.75 191.996C196.285 191.992 200.403 189.767 202 184.298C202.668 182.009 202.987 174.34 202.804 165L202.5 149.5L178.853 149C157.569 148.55 154.999 148.313 153.14 146.629C149.754 143.561 148.648 138.777 150.372 134.652C152.958 128.463 155.052 128 180.45 128L203 128L203 104.423L203 80.846L205.923 77.923C210.858 72.988 220.338 74.573 222.901 80.761C223.774 82.868 224.007 97.5 223.792 136.558L223.5 189.5L220.72 195.161C217.644 201.425 212.333 206.754 205.795 210.134C202.546 211.815 199.066 212.495 191.5 212.928L181.5 213.5L181 221.174C180.59 227.463 180.072 229.302 178.124 231.372C175.001 234.691 171.06 235.47 166.67 233.635C161.9 231.642 160 227.63 160 219.55L160 213L128 213L96 213L96 219.435C96 222.974 95.57 227.001 95.045 228.383C93.223 233.175 86.479 235.719 81.378 233.539M73.295 149.226C63.545 149.075 54.99 149.174 54.284 149.445C53.311 149.818 53 153.92 53 166.387C53 175.434 53.29 183.591 53.644 184.514C54.143 185.815 58.413 182.072 72.656 167.846L91.024 149.5L73.295 149.226M154.246 86.254C177.211 63.294 196 44.169 196 43.754C196 43.34 165.407 43 128.016 43L60.032 43L56.766 45.917L53.5 48.834L53.217 88.417L52.934 128L82.712 128L112.491 128L154.246 86.254M113.378 105.563C109.225 103.756 107 100.368 107 95.854C107 91.528 110.628 86.561 114.497 85.59C116.979 84.967 117 84.87 117 73.882C117 60.991 118.333 57.019 123.478 54.577C127.61 52.617 128.39 52.617 132.522 54.577C138.201 57.272 139 60.465 139 80.451C139 99.963 138.338 102.74 133.033 105.483C129.356 107.385 117.673 107.432 113.378 105.563" />
    <glyph glyph-name="calendar-plus"
      unicode="&#xEA22;"
      horiz-adv-x="256" d="M81.5 234.055C77.098 232.253 75.521 229.123 75 221.149L74.5 213.5L63.921 212.958C54.839 212.492 52.504 211.997 47.421 209.458C40.763 206.132 35.814 200.419 33.777 193.708C32.791 190.459 32.5 172.867 32.5 116.5L32.5 43.5L34.804 38.5C39.009 29.373 46.162 23.942 56.434 22.077C64.565 20.601 191.435 20.601 199.566 22.077C209.838 23.942 216.991 29.373 221.196 38.5L223.5 43.5L223.5 116.5C223.5 172.867 223.209 190.459 222.223 193.708C220.246 200.22 215.167 206.094 208.617 209.444C203.602 212.009 201.384 212.482 192.16 212.954L181.5 213.5L181 221.174C180.59 227.463 180.072 229.302 178.124 231.372C175.001 234.691 171.06 235.47 166.67 233.635C161.9 231.642 160 227.63 160 219.55L160 213L128 213L96 213L96 219.55C96 227.547 94.091 231.646 89.466 233.579C85.665 235.167 84.402 235.242 81.5 234.055M75 184.423C75 177.382 75.207 176.639 77.923 173.923C80.05 171.796 81.808 171 84.376 171C92.658 171 96 175.154 96 185.45L96 192L128 192L160 192L160 185.45C160 175.154 163.342 171 171.624 171C174.192 171 175.95 171.796 178.077 173.923C180.793 176.639 181 177.382 181 184.423L181 192L188.453 192C202.354 192 203.191 190.468 202.775 165.8L202.5 149.5L128 149.5L53.5 149.5L53.225 165.8C52.923 183.718 53.791 189.112 57.247 190.778C58.486 191.376 62.987 191.895 67.25 191.932L75 192L75 184.423M203 89.649C203 50.131 202.63 45.942 198.961 43.979C197.818 43.367 171.069 43 127.677 43C60.793 43 58.134 43.071 55.861 44.911L53.5 46.822L53.207 87.411L52.915 128L127.957 128L203 128L203 89.649M122.217 115.439C118.714 112.986 117 108.623 117 102.159L117 96.219L109.396 95.835C102.3 95.476 101.598 95.234 98.896 92.21C95.652 88.579 95.158 84.528 97.425 80.145C99.367 76.389 102.91 75 110.547 75L117 75L117 68.901C117 61.298 119.1 56.655 123.478 54.577C127.61 52.617 128.39 52.617 132.522 54.577C136.9 56.655 139 61.298 139 68.901L139 75L145.453 75C153.09 75 156.633 76.389 158.575 80.145C160.842 84.528 160.348 88.579 157.104 92.21C154.402 95.234 153.7 95.476 146.604 95.835L139 96.219L139 101.641C139 108.045 137.113 113.107 133.883 115.369C130.935 117.434 125.115 117.469 122.217 115.439" />
    <glyph glyph-name="calendar-stats"
      unicode="&#xEA23;"
      horiz-adv-x="256" d="M70.315 233.575C65.906 231.604 64 227.399 64 219.643L64 213.187L54.25 212.844C46.561 212.573 43.508 212.011 39.807 210.188C33.279 206.973 27.281 200.83 24.151 194.155L21.5 188.5L21.204 121.224C21.016 78.448 21.28 51.939 21.928 48.429C24 37.224 29.605 29.798 39.768 24.792L46.452 21.5L86.367 21.187C115.73 20.957 127.047 21.191 129.175 22.072C136.367 25.051 138.273 33.423 133.083 39.234L130.166 42.5L88.995 43L47.824 43.5L45.412 46.306L43 49.112L43 88.556L43 128L124.596 128C205.162 128 206.227 128.026 209.061 130.043C210.644 131.171 212.282 133.523 212.715 135.293C213.147 137.057 213.275 150.2 213 164.5C212.523 189.279 212.39 190.711 210.166 195C207.058 200.992 200.93 207.169 195.183 210.104C191.41 212.03 188.604 212.562 180.75 212.841L171 213.187L171 219.193C171 226.698 168.88 231.355 164.522 233.423C160.39 235.383 159.61 235.383 155.478 233.423C151.097 231.343 149 226.703 149 219.085L149 212.972L117.25 213.236L85.5 213.5L85 221.231C84.577 227.769 84.114 229.347 82 231.457C78.845 234.605 74.414 235.409 70.315 233.575M64 185.45C64 175.154 67.342 171 75.624 171C78.192 171 79.95 171.796 82.077 173.923C84.793 176.639 85 177.382 85 184.423L85 192L116.891 192L148.781 192L149.165 184.396C149.524 177.3 149.766 176.598 152.79 173.896C157.272 169.892 162.728 169.892 167.21 173.896C170.242 176.605 170.476 177.289 170.84 184.499L171.229 192.207L178.719 191.829C185.688 191.477 186.409 191.225 189.104 188.21L192 184.968L192 166.984L192 149L117.5 149L43 149L43.022 167.25C43.041 183.036 43.278 185.786 44.772 187.62C47.572 191.055 50.104 191.937 57.25 191.97L64 192L64 185.45M178.112 115.419C154.995 109.202 138.99 88.291 139.006 64.324C139.014 51.622 141.219 44.29 148.167 33.861C154.793 23.916 165.666 16.047 177.909 12.336C180.334 11.601 186.675 11 192 11C206.763 11 217.288 15.064 227.89 24.86C245.674 41.289 250.119 66.335 239.242 88.829C233.653 100.389 219.002 111.941 205.458 115.469C198.174 117.366 185.264 117.343 178.112 115.419M181 78.401C181 53.84 181.841 53 206.421 53L222.041 53L219.979 48.959C208.399 26.26 175.214 26.57 163.935 49.481C158.544 60.431 158.977 71.614 165.164 81.256C167.888 85.501 177.891 94 180.163 94C180.623 94 181 86.981 181 78.401M209.669 90.428C214.135 87.352 222 77.985 222 75.741C222 75.334 217.725 75 212.5 75L203 75L203 84.5C203 89.725 203.334 94 203.741 94C204.149 94 206.817 92.393 209.669 90.428" />
    <glyph glyph-name="calendar-time"
      unicode="&#xEA24;"
      horiz-adv-x="256" d="M70.315 233.575C65.906 231.604 64 227.399 64 219.643L64 213.187L54.25 212.844C46.561 212.573 43.508 212.011 39.807 210.188C33.279 206.973 27.281 200.83 24.151 194.155L21.5 188.5L21.204 121.224C21.016 78.448 21.28 51.939 21.928 48.429C24 37.224 29.605 29.798 39.768 24.792L46.452 21.5L86.367 21.187C115.73 20.957 127.047 21.191 129.175 22.072C136.367 25.051 138.273 33.423 133.083 39.234L130.166 42.5L88.995 43L47.824 43.5L45.412 46.306L43 49.112L43 88.556L43 128L124.596 128C205.162 128 206.227 128.026 209.061 130.043C210.644 131.171 212.282 133.523 212.715 135.293C213.147 137.057 213.275 150.2 213 164.5C212.523 189.279 212.39 190.711 210.166 195C207.058 200.992 200.93 207.169 195.183 210.104C191.41 212.03 188.604 212.562 180.75 212.841L171 213.187L171 219.193C171 226.698 168.88 231.355 164.522 233.423C160.39 235.383 159.61 235.383 155.478 233.423C151.097 231.343 149 226.703 149 219.085L149 212.972L117.25 213.236L85.5 213.5L85 221.231C84.577 227.769 84.114 229.347 82 231.457C78.845 234.605 74.414 235.409 70.315 233.575M64 185.45C64 175.154 67.342 171 75.624 171C78.192 171 79.95 171.796 82.077 173.923C84.793 176.639 85 177.382 85 184.423L85 192L116.891 192L148.781 192L149.165 184.396C149.524 177.3 149.766 176.598 152.79 173.896C157.272 169.892 162.728 169.892 167.21 173.896C170.242 176.605 170.476 177.289 170.84 184.499L171.229 192.207L178.719 191.829C185.688 191.477 186.409 191.225 189.104 188.21L192 184.968L192 166.984L192 149L117.5 149L43 149L43.022 167.25C43.041 183.036 43.278 185.786 44.772 187.62C47.572 191.055 50.104 191.937 57.25 191.97L64 192L64 185.45M178.112 115.419C154.995 109.202 138.99 88.291 139.006 64.324C139.014 51.622 141.219 44.29 148.167 33.861C154.793 23.916 165.666 16.047 177.909 12.336C180.334 11.601 186.675 11 192 11C206.763 11 217.288 15.064 227.89 24.86C245.605 41.225 250.076 66.423 239.242 88.829C233.653 100.389 219.002 111.941 205.458 115.469C198.174 117.366 185.264 117.343 178.112 115.419M205.375 93.061C211.366 90.16 218.168 83.341 221.126 77.27C224.587 70.168 224.466 58.561 220.852 50.852C213.92 36.066 198.251 28.878 182.764 33.38C171.183 36.747 161.41 48.678 160.237 60.881C158.842 75.406 168.441 90.084 182.296 94.612C188.404 96.608 199.601 95.856 205.375 93.061M190 90.338C182.771 88.005 181 84.396 181 72C181 60.484 182.105 58.03 191.121 49.525C197.552 43.458 198.357 43 202.596 43C209.028 43 213 46.948 213 53.342C213 57.342 212.448 58.443 208 63.31C203.124 68.644 203 68.935 203 74.989C203 84.393 200.315 88.733 193.5 90.348C192.4 90.609 190.825 90.604 190 90.338" />
    <glyph glyph-name="camera"
      unicode="&#xEA25;"
      horiz-adv-x="256" d="M88.637 222.535C81.526 220 75.076 211.559 75.022 204.718C74.986 200.182 72.378 195.247 69.128 193.566C67.036 192.484 63.312 192 57.087 192C50.306 192 46.648 191.466 42.313 189.844C34.983 187.102 27.021 179.708 23.852 172.702L21.5 167.5L21.191 116.501C20.87 63.58 21.282 56.241 24.972 49.102C27.407 44.394 34.35 37.811 40 34.855L44.5 32.5L128 32.5L211.5 32.5L216.54 35.161C221.87 37.974 228.807 44.793 231.358 49.725C234.699 56.186 235.139 64.684 234.817 116.543L234.5 167.5L232.148 172.702C228.979 179.708 221.017 187.102 213.687 189.844C209.352 191.466 205.694 192 198.913 192C192.688 192 188.964 192.484 186.872 193.566C183.622 195.247 181.014 200.182 180.978 204.718C180.922 211.853 173.623 220.9 166.277 222.94C160.256 224.612 93.486 224.264 88.637 222.535M160.357 198.409C161.718 188.482 168.051 179.467 177.139 174.521C181.979 171.887 183.689 171.549 194.859 171.02L207.222 170.435L210.111 167.202L213 163.968L213 112.207C213 55.436 213.239 57.726 206.989 54.494C202.639 52.245 53.361 52.245 49.011 54.494C42.761 57.726 43 55.436 43 112.207L43 163.968L45.889 167.202L48.778 170.435L61.141 171.02C72.311 171.549 74.021 171.887 78.861 174.521C87.949 179.467 94.282 188.482 95.643 198.409L96.272 203L128 203L159.728 203L160.357 198.409M119.78 159.022C107.813 156.874 95.083 147.124 89.721 136C80.418 116.702 87.278 92.742 105.394 81.261C118.633 72.871 137.367 72.871 150.606 81.261C156.363 84.909 163.813 93.346 166.519 99.282C178.942 126.529 161.041 157.167 131.419 159.357C127.613 159.639 122.376 159.488 119.78 159.022M138.456 135.626C149.891 129.479 152.486 113.317 143.653 103.257C137.603 96.367 127.669 94.15 119.491 97.865C100.949 106.288 104.043 134.428 123.905 138.014C128.924 138.921 133.823 138.117 138.456 135.626" />
    <glyph glyph-name="camera-minus"
      unicode="&#xEA26;"
      horiz-adv-x="256" d="M88.637 222.535C81.526 220 75.076 211.559 75.022 204.718C74.986 200.182 72.378 195.247 69.128 193.566C67.036 192.484 63.312 192 57.087 192C50.306 192 46.648 191.466 42.313 189.844C34.983 187.102 27.021 179.708 23.852 172.702L21.5 167.5L21.191 116.501C20.87 63.58 21.282 56.241 24.972 49.102C27.407 44.394 34.35 37.811 40 34.855L44.5 32.5L128 32.5L211.5 32.5L216.54 35.161C221.841 37.958 228.804 44.787 231.322 49.656C234.454 55.713 235 64.255 235 107.216C235 154.293 234.865 155.467 229.128 158.434C225.302 160.412 222.698 160.412 218.872 158.434C213.109 155.454 213 154.469 213 105.255C213 56.138 213.185 57.698 206.989 54.494C202.639 52.245 53.361 52.245 49.011 54.494C42.761 57.726 43 55.436 43 112.207L43 163.968L45.889 167.202L48.778 170.435L61.141 171.02C72.311 171.549 74.021 171.887 78.861 174.521C87.949 179.467 94.282 188.482 95.643 198.409L96.272 203L114.059 203C131.536 203 131.898 203.043 134.794 205.48C140.297 210.11 139.404 219.188 133.128 222.434C129.028 224.554 94.522 224.633 88.637 222.535M155.321 201.387C152.404 199.948 149 194.893 149 192C149 189.007 152.424 184.027 155.478 182.577C160.436 180.225 223.564 180.225 228.522 182.577C231.576 184.027 235 189.007 235 192C235 194.993 231.576 199.973 228.522 201.423C223.584 203.766 160.082 203.735 155.321 201.387M119.78 159.022C107.813 156.874 95.083 147.124 89.721 136C80.418 116.702 87.278 92.742 105.394 81.261C118.633 72.871 137.367 72.871 150.606 81.261C156.363 84.909 163.813 93.346 166.519 99.282C178.942 126.529 161.041 157.167 131.419 159.357C127.613 159.639 122.376 159.488 119.78 159.022M138.456 135.626C149.891 129.479 152.486 113.317 143.653 103.257C137.603 96.367 127.669 94.15 119.491 97.865C100.949 106.288 104.043 134.428 123.905 138.014C128.924 138.921 133.823 138.117 138.456 135.626" />
    <glyph glyph-name="building-monument"
      unicode="&#xEA27;"
      horiz-adv-x="256" d="M123.331 233.391C121.588 232.532 115.001 226.556 108.693 220.113C97.986 209.175 97.151 208.035 96.123 202.949C95.518 199.952 90.968 170.95 86.013 138.5C81.057 106.05 76.778 78.522 76.502 77.327C76.023 75.249 75.411 75.141 62.416 74.827L48.831 74.5L45.915 71.234C43.025 67.996 43 67.862 43 55.484L43 43L36.901 43C29.298 43 24.655 40.9 22.577 36.522C20.617 32.39 20.617 31.61 22.577 27.478C25.814 20.658 20.249 21 128 21C235.751 21 230.186 20.658 233.423 27.478C235.383 31.61 235.383 32.39 233.423 36.522C231.345 40.9 226.702 43 219.099 43L213 43L213 55.484C213 67.862 212.975 67.996 210.085 71.234L207.169 74.5L193.584 74.827C180.589 75.141 179.977 75.249 179.498 77.327C179.222 78.522 174.943 106.05 169.987 138.5C165.032 170.95 160.482 199.952 159.877 202.949C158.849 208.036 158.015 209.175 147.289 220.132C136.719 230.929 131.341 235.036 127.849 234.977C127.107 234.965 125.074 234.251 123.331 233.391M133.969 202.531L139.37 197.062L148.667 136.781C153.781 103.627 157.972 76.162 157.982 75.75C157.992 75.338 144.5 75 128 75C104.651 75 98.007 75.277 98.03 76.25C98.047 76.937 102.244 104.407 107.358 137.294L116.656 197.089L122.044 202.544C125.007 205.545 127.687 208 128 208C128.313 208 130.999 205.539 133.969 202.531M192 48L192 43L128 43L64 43L64 48L64 53L128 53L192 53L192 48" />
    <glyph glyph-name="camera-plus"
      unicode="&#xEA28;"
      horiz-adv-x="256" d="M187.321 233.387C182.328 230.924 181 226.872 181 214.099L181 203L169.901 203C156.99 203 153.02 201.669 150.577 196.522C148.617 192.39 148.617 191.61 150.577 187.478C153.02 182.331 156.99 181 169.901 181L181 181L181 169.901C181 156.99 182.331 153.02 187.478 150.577C191.61 148.617 192.39 148.617 196.522 150.577C201.669 153.02 203 156.99 203 169.901L203 181L214.099 181C227.01 181 230.98 182.331 233.423 187.478C234.29 189.307 235 191.341 235 192C235 192.659 234.29 194.693 233.423 196.522C230.98 201.669 227.01 203 214.099 203L203 203L203 214.099C203 227.01 201.669 230.98 196.522 233.423C192.421 235.369 191.331 235.364 187.321 233.387M97.309 221.467C90.923 218.284 87.386 213.293 85.588 204.923C82.873 192.285 82.365 192 62.587 192C50.174 192 47.242 191.688 42.313 189.844C34.983 187.102 27.021 179.708 23.852 172.702L21.5 167.5L21.191 116.501C20.87 63.58 21.282 56.241 24.972 49.102C27.407 44.394 34.35 37.811 40 34.855L44.5 32.5L128 32.5L211.5 32.5L216.54 35.161C221.841 37.958 228.804 44.787 231.322 49.656C234.382 55.574 235 64.316 235 101.716C235 141.784 234.757 143.956 229.883 147.369C226.897 149.461 221.103 149.461 218.117 147.369C213.215 143.936 213 141.931 213 99.755C213 56.69 213.13 57.67 206.989 54.494C202.639 52.245 53.361 52.245 49.011 54.494C42.761 57.726 43 55.436 43 112.207L43 163.968L45.916 167.234L48.832 170.5L66.166 171.011C85.971 171.595 89.285 172.559 96.833 179.928C101.521 184.506 105.975 192.89 105.99 197.168C106.011 202.924 106.188 203 119.53 203C131.183 203 132.005 203.134 134.794 205.48C138.423 208.534 139.45 212.986 137.566 217.496C135.258 223.019 132.043 224 116.246 224C103.425 224 102.014 223.811 97.309 221.467M119.78 159.022C107.813 156.874 95.083 147.124 89.721 136C80.418 116.702 87.278 92.742 105.394 81.261C118.633 72.871 137.367 72.871 150.606 81.261C156.363 84.909 163.813 93.346 166.519 99.282C178.942 126.529 161.041 157.167 131.419 159.357C127.613 159.639 122.376 159.488 119.78 159.022M138.456 135.626C149.891 129.479 152.486 113.317 143.653 103.257C137.603 96.367 127.669 94.15 119.491 97.865C100.949 106.288 104.043 134.428 123.905 138.014C128.924 138.921 133.823 138.117 138.456 135.626" />
    <glyph glyph-name="camera-rotate"
      unicode="&#xEA29;"
      horiz-adv-x="256" d="M88.637 222.535C81.526 220 75.076 211.559 75.022 204.718C74.986 200.182 72.378 195.247 69.128 193.566C67.036 192.484 63.312 192 57.087 192C50.306 192 46.648 191.466 42.313 189.844C34.983 187.102 27.021 179.708 23.852 172.702L21.5 167.5L21.191 116.501C20.87 63.58 21.282 56.241 24.972 49.102C27.407 44.394 34.35 37.811 40 34.855L44.5 32.5L128 32.5L211.5 32.5L216.54 35.161C221.87 37.974 228.807 44.793 231.358 49.725C234.699 56.186 235.139 64.684 234.817 116.543L234.5 167.5L232.148 172.702C228.979 179.708 221.017 187.102 213.687 189.844C209.352 191.466 205.694 192 198.913 192C192.688 192 188.964 192.484 186.872 193.566C183.622 195.247 181.014 200.182 180.978 204.718C180.922 211.853 173.623 220.9 166.277 222.94C160.256 224.612 93.486 224.264 88.637 222.535M160.357 198.409C161.718 188.482 168.051 179.467 177.139 174.521C181.979 171.887 183.689 171.549 194.859 171.02L207.222 170.435L210.111 167.202L213 163.968L213 112.207C213 55.436 213.239 57.726 206.989 54.494C202.639 52.245 53.361 52.245 49.011 54.494C42.761 57.726 43 55.436 43 112.207L43 163.968L45.889 167.202L48.778 170.435L61.141 171.02C72.311 171.549 74.021 171.887 78.861 174.521C87.949 179.467 94.282 188.482 95.643 198.409L96.272 203L128 203L159.728 203L160.357 198.409M118.281 159.094C112.537 157.615 104.227 153.009 99.282 148.564L94.448 144.218L91.668 146.609C87.577 150.128 81.748 149.902 77.923 146.077L75 143.154L75 128L75 112.846L77.923 109.923L80.846 107L96 107L111.154 107L114.077 109.923C119.145 114.991 117.81 123.209 111.33 126.835C109.737 127.727 109.735 127.947 111.308 130.347C112.23 131.755 115.065 134.126 117.606 135.615C121.751 138.044 123.131 138.309 131.011 138.187C138.397 138.072 140.197 138.367 142.325 140.041C148.325 144.76 147.56 154.108 140.892 157.556C137.189 159.471 123.391 160.409 118.281 159.094M143.973 126.296C140.029 123.578 139.066 121.789 139.032 117.118C139.004 113.354 139.513 112.252 142.636 109.307L146.273 105.877L142.952 102.451C138.085 97.429 132.443 95.576 124.499 96.39C116.656 97.193 112.718 95.573 110.327 90.56C107.499 84.63 111.141 77.847 118.168 75.955C124.58 74.228 134.796 74.675 141.447 76.973C148.372 79.366 150.773 80.828 156.605 86.204L160.883 90.147L163.994 87.846C168.785 84.305 174.433 84.682 178.102 88.789L181 92.032L180.968 106.766C180.935 122.232 180.726 123.058 176.027 126.296C173.996 127.696 171.137 128 160 128C148.863 128 146.004 127.696 143.973 126.296" />
    <glyph glyph-name="camera-selfie"
      unicode="&#xEA2A;"
      horiz-adv-x="256" d="M88.637 222.535C81.526 220 75.076 211.559 75.022 204.718C74.986 200.182 72.378 195.247 69.128 193.566C67.036 192.484 63.312 192 57.087 192C50.306 192 46.648 191.466 42.313 189.844C34.983 187.102 27.021 179.708 23.852 172.702L21.5 167.5L21.191 116.501C20.87 63.58 21.282 56.241 24.972 49.102C27.407 44.394 34.35 37.811 40 34.855L44.5 32.5L128 32.5L211.5 32.5L216.54 35.161C221.87 37.974 228.807 44.793 231.358 49.725C234.699 56.186 235.139 64.684 234.817 116.543L234.5 167.5L232.148 172.702C228.979 179.708 221.017 187.102 213.687 189.844C209.352 191.466 205.694 192 198.913 192C192.688 192 188.964 192.484 186.872 193.566C183.622 195.247 181.014 200.182 180.978 204.718C180.922 211.853 173.623 220.9 166.277 222.94C160.256 224.612 93.486 224.264 88.637 222.535M160.357 198.409C161.718 188.482 168.051 179.467 177.139 174.521C181.979 171.887 183.689 171.549 194.859 171.02L207.222 170.435L210.111 167.202L213 163.968L213 112.207C213 55.436 213.239 57.726 206.989 54.494C202.639 52.245 53.361 52.245 49.011 54.494C42.761 57.726 43 55.436 43 112.207L43 163.968L45.889 167.202L48.778 170.435L61.141 171.02C72.311 171.549 74.021 171.887 78.861 174.521C87.949 179.467 94.282 188.482 95.643 198.409L96.272 203L128 203L159.728 203L160.357 198.409M88.789 146.102C86.14 143.736 85.545 142.461 85.545 139.145C85.545 128.22 98.721 124.04 104.813 133.032C111.748 143.267 98.086 154.41 88.789 146.102M152.789 146.102C150.14 143.736 149.545 142.461 149.545 139.145C149.545 128.22 162.721 124.04 168.813 133.032C175.748 143.267 162.086 154.41 152.789 146.102M97.378 105.563C93.199 103.744 91 100.362 91 95.755C91 87.764 105.659 77.249 120.294 74.742C134.396 72.327 151.993 77.845 160.859 87.462C164.233 91.123 165 92.675 165 95.843C165 103.373 157.594 108.529 150.836 105.704C149.001 104.937 146.853 103.53 146.063 102.577C140.651 96.052 125.941 93.949 116.5 98.351C113.75 99.633 110.825 101.498 110 102.496C108.595 104.194 103.024 107.048 101.282 106.961C100.852 106.939 99.095 106.31 97.378 105.563" />
    <glyph glyph-name="candy"
      unicode="&#xEA2B;"
      horiz-adv-x="256" d="M167.199 229.412C159.883 225.766 155.965 220.64 150.418 207.459C146.795 198.849 145.208 196.106 144.047 196.444C136.241 198.713 126.489 197.517 119.5 193.433C117.3 192.148 103.931 179.47 89.791 165.259C60.616 135.938 58.736 133.27 58.677 121.092C58.659 117.466 58.957 113.558 59.34 112.407C59.951 110.568 59.217 109.975 53.267 107.498C41.722 102.693 34.617 98.979 31.624 96.185C24.392 89.434 21.889 76.296 26.066 67C27.441 63.938 33.106 57.462 43.794 46.732C56.97 33.503 60.352 30.645 64.788 28.982C73.4 25.754 81.698 26.778 89.282 32.004C95.977 36.617 98.734 41.986 102.978 58.685L104.042 62.869L108.682 60.817C117.407 56.957 129.502 58.238 138.059 63.927C144.939 68.501 191.401 115.799 193.919 120.792C198.322 129.522 198.592 141.097 194.581 149.137L193.169 151.968L197.335 153.027C214.008 157.264 219.384 160.025 223.996 166.718C229.222 174.302 230.246 182.6 227.018 191.212C225.355 195.648 222.497 199.03 209.268 212.206C191.633 229.773 188.25 231.942 178.446 231.978C173.907 231.995 171.093 231.352 167.199 229.412M193.737 197.764C212.227 179.311 212.11 178.619 189.576 173.078L176.651 169.9L169.952 176.548L163.252 183.196L168.679 195.848C174.011 208.28 175.851 211 178.928 211C179.778 211 186.442 205.044 193.737 197.764M158.242 158.169L176 140.338L176 135.467L176 130.596L152.25 106.724C139.188 93.594 127.285 82.21 125.8 81.426C124.314 80.642 121.426 80 119.381 80C115.898 80 114.53 81.127 97.831 97.758L80 115.517L80 120.45L80 125.384L105.255 150.692L130.51 176L135.497 176L140.483 176L158.242 158.169M82.318 65.18C79.419 53.652 78.269 50.567 76.425 49.359C74.768 48.273 73.631 48.136 72.317 48.863C71.318 49.416 64.671 55.734 57.546 62.903C41.002 79.549 40.955 78.965 59.505 87.071L72.5 92.75L79.21 86.125L85.921 79.5L82.318 65.18" />
    <glyph glyph-name="building-factory"
      unicode="&#xEA2C;"
      horiz-adv-x="256" d="M105.5 222.007C97.696 219.39 90.802 214.224 87.427 208.465C84.946 204.232 84.823 203.534 85.918 199.881C86.717 197.211 88.159 195.264 90.304 193.956C95.809 190.6 100.011 191.582 105.635 197.54C109.296 201.417 115.41 203.382 120.765 202.401C123.606 201.881 126.105 200.084 131.203 194.899C142.031 183.886 153.381 179.712 166.187 182.034C175.039 183.639 181.14 187.111 188.797 194.899C193.895 200.084 196.394 201.881 199.235 202.401C204.59 203.382 210.704 201.417 214.365 197.54C219.989 191.582 224.191 190.6 229.696 193.956C231.841 195.264 233.283 197.211 234.082 199.881C235.177 203.534 235.054 204.232 232.573 208.465C226.827 218.271 212.833 224.779 199.837 223.69C189.844 222.852 182.974 219.369 174.225 210.704L166.95 203.5L160 203.5L153.05 203.5L145.775 210.704C136.552 219.838 129.973 223.032 119.195 223.608C113.307 223.922 110.091 223.546 105.5 222.007M60.5 170.065C59.4 169.6 57.392 168.026 56.038 166.569C53.712 164.066 53.533 163.023 52.811 147.71C51.572 121.413 47.527 95.551 39.387 61.868L34.884 43.237L31.09 42.63C23.606 41.434 19.425 34.122 22.508 27.624C25.834 20.615 19.387 21 133.451 21C222.564 21 236.48 21.197 238.989 22.494C245.669 25.949 247.089 33.629 242.084 39.234L239.169 42.5L224.368 43L209.567 43.5L206.777 51C199.153 71.489 193.776 93.911 192.185 111.844C191.367 121.067 190.98 122.475 188.613 124.844L185.958 127.5L162.979 127.802L140 128.105L139.936 131.802C139.901 133.836 139.528 141.939 139.107 149.809L138.343 164.119L135.153 167.309L131.964 170.5L97.232 170.706C78.129 170.819 61.6 170.531 60.5 170.065M118.01 143.75C118.041 126.682 124.599 85.673 132.074 55.808C133.683 49.378 135 43.866 135 43.558C135 43.251 117.45 43 96 43C74.55 43 57 43.251 57 43.558C57 43.866 58.317 49.378 59.926 55.808C67.401 85.673 73.959 126.682 73.99 143.75L74 149L96 149L118 149L118.01 143.75M171.414 103.75C171.691 101.963 172.408 97.35 173.006 93.5C174.51 83.833 179.239 65.506 183.393 53.25L186.868 43L172.021 43L157.174 43L152.642 61.75C147.777 81.879 144 100.585 144 104.551L144 107L157.455 107L170.909 107L171.414 103.75" />
    <glyph glyph-name="car"
      unicode="&#xEA2D;"
      horiz-adv-x="256" d="M50.374 202.311C49.205 202.081 47.282 200.865 46.101 199.607C44.92 198.35 38.915 184.986 32.758 169.911L21.564 142.5L21.215 109C20.978 86.202 21.225 74.287 21.988 71.702C23.651 66.068 27.669 64.008 37.006 64.004C44.511 64 44.512 64 45.95 60.75C48.094 55.905 55.255 48.731 60.696 45.977C67.526 42.519 78.472 42.063 86.08 44.921C92.514 47.337 99.881 53.886 102.964 59.929L105.041 64L128 64L150.959 64L153.036 59.929C156.119 53.886 163.486 47.337 169.92 44.921C177.528 42.063 188.474 42.519 195.304 45.977C200.745 48.731 207.906 55.905 210.05 60.75C211.488 64 211.489 64 218.994 64.004C228.363 64.008 232.339 66.06 234.051 71.774C234.841 74.414 235.091 83.413 234.837 100.072C234.472 123.982 234.408 124.62 231.831 130.155C226.592 141.405 216.613 148.188 204.353 148.832L197.207 149.208L176.662 174.917C165.36 189.06 154.945 201.159 153.512 201.813C151.6 202.684 137.806 202.964 101.703 202.864C74.641 202.789 51.543 202.54 50.374 202.311M117 165L117 149L82.393 149C49.856 149 47.824 149.105 48.428 150.75C48.781 151.713 51.61 158.912 54.715 166.75L60.359 181L88.679 181L117 181L117 165M156.75 165.596C163.488 157.135 169 149.939 169 149.606C169 149.273 162.25 149 154 149L139 149L139 165L139 181L141.75 180.991C144.096 180.982 146.3 178.721 156.75 165.596M207.835 126.585C212.664 124.088 213.082 122.053 212.779 102.5L212.5 84.5L210.331 88.551C207.181 94.435 200.277 100.954 194.261 103.724C186.152 107.458 175.885 107.202 167.463 103.056C160.86 99.806 155.382 94.432 152.517 88.395L150.906 85L128 85L105.094 85L103.483 88.395C100.618 94.432 95.14 99.806 88.537 103.056C80.115 107.202 69.848 107.458 61.739 103.724C55.745 100.964 48.734 94.359 45.899 88.801C44.832 86.711 43.743 85 43.48 85C43.216 85 43 94.675 43 106.5L43 128L124.05 128C191.966 128 205.543 127.771 207.835 126.585M82.077 82.077C86.399 77.755 86.212 72.012 81.6 67.4C79.02 64.82 77.35 64 74.677 64C66.966 64 61.787 72.735 65.458 79.551C68.795 85.748 77.138 87.016 82.077 82.077M188.728 81.472C191.94 78.26 192.205 77.567 191.69 73.722C190.616 65.715 182.744 61.675 175.99 65.665C166.999 70.976 170.649 85 181.023 85C184.47 85 185.817 84.383 188.728 81.472" />
    <glyph glyph-name="caravan"
      unicode="&#xEA2E;"
      horiz-adv-x="256" d="M42.724 211.473C34.29 208.377 27.408 201.656 23.296 192.5C21.639 188.809 21.5 184.285 21.5 133.922L21.5 79.344L24.515 74.466C26.711 70.915 28.985 68.829 32.88 66.794L38.228 64L62.594 64L86.959 64L89.036 59.929C92.119 53.886 99.486 47.337 105.92 44.921C113.528 42.063 124.474 42.519 131.304 45.977C136.745 48.731 143.906 55.905 146.05 60.75L147.488 64L186.794 64C230.645 64 230.861 64.031 233.628 70.652C234.792 73.439 234.865 74.879 233.977 77.57C232.109 83.231 228.867 85 220.365 85L213 85L213 124.727L213 164.455L188.727 188.727L164.455 213L105.477 212.93C57.82 212.873 45.775 212.593 42.724 211.473M173.74 173.76L192 155.52L192 120.26L192 85L170.02 85L148.041 85L146.101 88.801C143.266 94.359 136.255 100.964 130.261 103.724C122.152 107.458 111.885 107.202 103.463 103.056C96.86 99.806 91.382 94.432 88.517 88.395L86.906 85L64.953 85L43 85L43.022 135.25C43.046 189.847 42.837 187.725 48.5 190.839C49.881 191.599 66.752 191.949 102.99 191.97L155.48 192L173.74 173.76M66.145 179.952C61.643 178.106 57.942 174.807 55.727 170.666C53.675 166.827 53.5 165.165 53.5 149.5C53.5 134.004 53.69 132.146 55.653 128.5C61.316 117.977 64.745 117 96 117C127.256 117 130.691 117.979 136.344 128.5C138.294 132.129 138.494 134.029 138.497 149C138.5 164.344 138.334 165.837 136.129 170.316C134.64 173.339 132.249 176.131 129.704 177.816L125.651 180.5L97.075 180.709C80.469 180.83 67.514 180.514 66.145 179.952M117 149.5L117 139L96 139L75 139L75 149.5L75 160L96 160L117 160L117 149.5M124.728 81.472C127.94 78.26 128.205 77.567 127.69 73.722C126.616 65.715 118.744 61.675 111.99 65.665C102.999 70.976 106.649 85 117.023 85C120.47 85 121.817 84.383 124.728 81.472" />
    <glyph glyph-name="car-crane"
      unicode="&#xEA2F;"
      horiz-adv-x="256" d="M136.405 218.512C83.003 209.561 38.363 201.73 37.206 201.11C32.129 198.393 32 197.556 32 167.297L32 139.038L29.61 138.438C28.295 138.108 25.932 136.494 24.36 134.852L21.5 131.865L21.5 99.683L21.5 67.5L24.165 61.814C27.64 54.401 34.789 47.599 41.92 44.921C52.599 40.91 67.485 43.565 74.16 50.67L76.349 53L116.924 52.99L157.5 52.981L161.818 49.548C173.276 40.439 191.674 40.88 202 50.511C204.272 52.631 205.568 52.873 216.233 53.171L227.967 53.5L231.233 56.771L234.5 60.042L234.5 98.771C234.5 132.677 234.28 138.31 232.733 144C227.983 161.476 216.068 176.355 199.939 184.952C189.054 190.753 180.616 191.985 151.7 191.993C130.227 191.999 125.393 191.737 122.872 190.434C117.638 187.727 117 184.48 117 160.532L117 139L106.5 139L96 139L96 156.05C96 169.005 95.651 173.774 94.547 175.909C93.587 177.766 90.454 180.097 85.311 182.781C78.468 186.353 77.829 186.913 80.014 187.421C83.932 188.33 220.783 211 222.357 211C223.386 211 223.881 209.209 224.189 204.368C224.568 198.418 224.941 197.442 227.822 194.868C231.42 191.653 235.485 191.165 239.855 193.425C244.221 195.683 245 198.771 245 213.825C245 229.172 244.35 231.12 238.401 233.606C236.566 234.373 234.712 234.952 234.282 234.894C233.852 234.836 189.807 227.464 136.405 218.512M65.018 168.991L75 163.982L75 151.491L75 139L64 139L53 139L53 156.5C53 167.708 53.366 174 54.018 174C54.578 174 59.528 171.746 65.018 168.991M154.89 161.25C156.527 155.888 159.667 145.503 161.868 138.173C164.07 130.844 166.61 123.719 167.513 122.34C170.519 117.752 174.314 117 194.468 117L213 117L212.948 99.25L212.896 81.5L210.934 86.599C208.45 93.056 201.128 100.58 194.261 103.732C190.26 105.569 187.273 106.144 181.625 106.166C166.036 106.227 154.1 96.829 150.321 81.519L148.713 75L143.856 75L139 75L139 123L139 171L145.457 171L151.914 171L154.89 161.25M189.378 166.135C198.92 161.437 208.504 150.703 211.034 141.881L211.876 138.946L197.764 139.223L183.652 139.5L179.865 152C177.782 158.875 175.786 165.803 175.428 167.397L174.777 170.293L179.006 169.726C181.332 169.414 186 167.798 189.378 166.135M117 96L117 75L101 75L85 75L85 77.962C85 87.126 76.277 99.135 66.291 103.718C60.985 106.154 50.049 107.103 45.163 105.552C43.108 104.899 43 105.168 43 110.933L43 117L80 117L117 117L117 96M60.728 81.472C63.94 78.26 64.205 77.567 63.69 73.722C62.616 65.715 54.744 61.675 47.99 65.665C38.999 70.976 42.649 85 53.023 85C56.47 85 57.817 84.383 60.728 81.472M188.728 81.472C191.94 78.26 192.205 77.567 191.69 73.722C190.616 65.715 182.744 61.675 175.99 65.665C166.999 70.976 170.649 85 181.023 85C184.47 85 185.817 84.383 188.728 81.472" />
    <glyph glyph-name="cardboards"
      unicode="&#xEA30;"
      horiz-adv-x="256" d="M42.724 211.482C37.387 209.51 30.507 204.341 27.583 200.107C21.33 191.052 21.529 192.89 21.189 140.816C20.861 90.565 21.376 81.729 25.039 74.7C33.32 58.812 46.874 52.154 68.5 53.35C88.429 54.452 94.524 58.288 112.736 81.184C126.284 98.217 129.716 98.217 143.264 81.184C161.476 58.288 167.571 54.452 187.5 53.35C209.021 52.159 222.728 58.847 230.846 74.5C234.635 81.805 235.14 90.236 234.812 140.652L234.5 188.5L231.849 194.155C228.719 200.83 222.721 206.973 216.193 210.188L211.5 212.5L129 212.688C60.546 212.845 45.857 212.639 42.724 211.482M207.316 190.883C213.166 187.891 212.954 189.944 212.978 136.21C212.999 88.546 212.933 86.788 210.96 82.921C207.632 76.397 204.282 75.008 191.872 75.004C184.903 75.001 180.083 75.491 177.872 76.427C173.838 78.133 169.106 83.003 158.016 96.859C146.784 110.893 140.108 114.982 128.409 114.994C122.095 115.001 114.999 112.927 109.984 109.608C107.882 108.217 102.456 102.449 97.926 96.79C81.09 75.757 79.919 75 64.188 75C54.536 75 52.921 75.256 49.999 77.25C48.187 78.488 45.87 81.068 44.852 82.984C43.12 86.242 43.001 89.688 43.022 135.984C43.046 189.774 42.842 187.728 48.5 190.839C51.35 192.407 204.254 192.449 207.316 190.883M79.554 159.273C75.757 158.307 69.984 153.933 67.449 150.102C57.113 134.483 72.011 113.685 90.38 118.091C103.265 121.182 110.379 136.304 104.459 148.021C100.09 156.67 89.006 161.678 79.554 159.273M161.302 157.513C147.803 150.657 145.292 133.438 156.311 123.281C167.085 113.35 183.149 116.429 189.625 129.667C191.864 134.243 192.183 135.934 191.697 140.647C190.609 151.187 182.78 158.793 172.098 159.685C167.447 160.073 165.621 159.706 161.302 157.513" />
    <glyph glyph-name="caret-down"
      unicode="&#xEA31;"
      horiz-adv-x="256" d="M59.321 169.398C55.268 167.385 52.623 162.033 53.541 157.703C54.065 155.229 61.752 146.935 87.305 121.271C105.501 102.996 121.898 87.327 123.742 86.452C130.43 83.278 130.929 83.66 166.729 119.305C185.004 137.501 200.673 153.898 201.548 155.742C203.602 160.071 202.74 163.917 198.886 167.609L195.869 170.5L129.185 170.739C70.119 170.95 62.137 170.797 59.321 169.398M146.747 130.253L128 111.507L109.253 130.253L90.507 149L128 149L165.493 149L146.747 130.253" />
    <glyph glyph-name="caret-left"
      unicode="&#xEA32;"
      horiz-adv-x="256" d="M155.5 201.49C151.176 199.212 88.292 136.136 86.427 132.205C83.282 125.578 83.707 125.023 119.305 89.271C137.501 70.996 153.898 55.327 155.742 54.452C160.072 52.398 163.917 53.26 167.609 57.114L170.5 60.131L170.5 128.046L170.5 195.962L167.5 198.958C163.763 202.69 159.49 203.592 155.5 201.49M149 127.753L149 90.507L130.257 109.25L111.513 127.993L129.997 146.497C140.162 156.673 148.597 165 148.74 165C148.883 165 149 148.239 149 127.753" />
    <glyph glyph-name="caret-right"
      unicode="&#xEA33;"
      horiz-adv-x="256" d="M91.321 201.387C84.757 198.15 84.929 200.257 85.229 126.62L85.5 60.13L88.391 57.114C92.075 53.268 95.929 52.398 100.233 54.44C104.656 56.539 168.573 120.669 169.984 124.424C172.344 130.704 171.513 131.76 136.695 166.729C118.499 185.004 102.167 200.642 100.404 201.479C96.426 203.366 95.312 203.355 91.321 201.387M125.747 109.253L107 90.507L107 128L107 165.493L125.747 146.747L144.493 128L125.747 109.253" />
    <glyph glyph-name="caret-up"
      unicode="&#xEA34;"
      horiz-adv-x="256" d="M123.5 169.449C119.238 167.262 56.315 104.184 54.427 100.205C52.398 95.93 53.277 92.067 57.114 88.391L60.131 85.5L128 85.5L195.869 85.5L198.886 88.391C202.459 91.814 203.495 95.555 201.984 99.576C200.601 103.256 136.701 167.439 132.379 169.491C128.405 171.376 127.246 171.371 123.5 169.449M147 125.5L165.48 107L128 107L90.52 107L109 125.5C119.164 135.675 127.714 144 128 144C128.286 144 136.836 135.675 147 125.5" />
    </font>
</defs>
</svg>
