<?xml version="1.0" standalone="no"?>
<!DOCTYPE svg PUBLIC "-//W3C//DTD SVG 1.1//EN" "http://www.w3.org/Graphics/SVG/1.1/DTD/svg11.dtd" >
<svg xmlns="http://www.w3.org/2000/svg">
<defs>
  <font id="DesignaIcon-Light" horiz-adv-x="256">
    <font-face font-family="DesignaIcon-Light"
      units-per-em="256" ascent="256"
      descent="0" />
    <missing-glyph horiz-adv-x="0" />
    <glyph glyph-name="browser"
      unicode="&#xEA02;"
      horiz-adv-x="256" d="M47.604 217.974C43.516 216.733 39.16 212.236 37.999 208.057C36.576 202.935 36.669 53.757 38.099 48.5C39.478 43.427 43.378 39.267 47.943 37.999C52.735 36.668 203.294 36.65 207.931 37.98C213.169 39.482 216.76 43.545 218.028 49.401C218.795 52.946 219.035 78.017 218.816 131.677C218.504 207.817 218.472 208.892 216.438 211.616C215.304 213.134 213.134 215.304 211.615 216.438C208.886 218.476 207.948 218.502 129.677 218.676C86.13 218.773 49.197 218.457 47.604 217.974M80 192L80 176L64 176L48 176L48 190.8C48 200.978 48.375 205.975 49.2 206.8C50.025 207.625 55.022 208 65.2 208L80 208L80 192M206.8 206.8C207.625 205.975 208 200.978 208 190.8L208 176L149.5 176L91 176L91 192L91 208L148.3 208C191.533 208 205.895 207.705 206.8 206.8M208 107.7C208 64.467 207.705 50.105 206.8 49.2C205.063 47.463 50.937 47.463 49.2 49.2C48.295 50.105 48 64.467 48 107.7L48 165L128 165L208 165L208 107.7" />
    <glyph glyph-name="building"
      unicode="&#xEA03;"
      horiz-adv-x="256" d="M65.741 227.586C58.617 225.015 52.564 219.124 49.998 212.264C48.058 207.081 48 204.442 48 121.962L48 37L38.7 37C32.8 37 28.961 36.561 28.2 35.8C26.653 34.253 26.653 29.747 28.2 28.2C29.941 26.459 226.059 26.459 227.8 28.2C228.46 28.86 229 30.57 229 32C229 36.299 227.36 37 217.3 37L208 37L208 121.962C208 205.069 207.955 207.044 205.957 212.385C203.836 218.055 199.006 223.311 192.81 226.693C189.736 228.371 185.224 228.516 129.5 228.722C81.056 228.901 68.776 228.682 65.741 227.586M188.03 216.75C190.48 215.513 193.5 212.971 194.742 211.102L197 207.704L197 122.352L197 37L128 37L59 37L59 122.352L59 207.704L61.258 211.102C62.5 212.971 65.52 215.513 67.97 216.75L72.424 219L128 219L183.576 219L188.03 216.75M92.571 174.429C91.707 173.564 91 171.79 91 170.485C91 166.858 94.557 165 101.5 165C108.388 165 112 166.858 112 170.402C112 174.473 109.067 176 101.243 176C96.122 176 93.705 175.562 92.571 174.429M145.655 174.171C143.35 171.625 143.591 168.4 146.223 166.557C149.217 164.459 159.783 164.459 162.777 166.557C165.37 168.372 165.684 172.173 163.429 174.429C161.03 176.827 147.886 176.637 145.655 174.171M92.2 131.8C90.653 130.253 90.653 125.747 92.2 124.2C94.076 122.324 108.475 122.618 110.429 124.571C112.436 126.578 112.436 129.422 110.429 131.429C108.475 133.382 94.076 133.676 92.2 131.8M145.571 131.429C144.707 130.564 144 129.021 144 128C144 124.239 146.695 123 154.871 123C163.28 123 165 123.849 165 128C165 132.151 163.28 133 154.871 133C149.179 133 146.729 132.586 145.571 131.429M93.223 89.443C90.63 87.628 90.316 83.827 92.571 81.571C95.029 79.114 108.118 79.368 110.425 81.918C112.748 84.484 112.075 88.16 109 89.71C105.443 91.504 95.934 91.343 93.223 89.443M147 89.71C143.925 88.16 143.252 84.484 145.575 81.918C147.882 79.368 160.971 79.114 163.429 81.571C165.684 83.827 165.37 87.628 162.777 89.443C160.066 91.343 150.557 91.504 147 89.71" />
    <glyph glyph-name="building-arch"
      unicode="&#xEA04;"
      horiz-adv-x="256" d="M57.718 217.925C49.872 216.043 44.117 211.239 39.837 203L37.5 198.5L37.216 117.75L36.933 37L33.166 37C31.095 37 28.86 36.46 28.2 35.8C26.653 34.253 26.653 29.747 28.2 28.2C29.941 26.459 226.059 26.459 227.8 28.2C229.347 29.747 229.347 34.253 227.8 35.8C227.14 36.46 224.905 37 222.834 37L219.067 37L218.784 117.75L218.5 198.5L216.033 203.33C214.676 205.986 211.814 209.742 209.672 211.677C201.717 218.864 206.076 218.482 130 218.666C91.789 218.759 59.827 218.431 57.718 217.925M201.188 204.806C208.369 199.328 208 204.132 208 116.079L208 36.96L186.75 37.23L165.5 37.5L164.967 82C164.586 113.841 164.076 127.56 163.177 130.226C161.816 134.257 156.436 141.792 152.163 145.651C141.902 154.916 123.9 157.067 111.138 150.553C104.857 147.347 97.513 139.743 94.218 133.033L91.5 127.5L91 82.5L90.5 37.5L69.233 37.23L47.965 36.96L48.233 117.308L48.5 197.656L51.18 201.169C56.646 208.335 52.714 208.003 129.078 207.738L197.657 207.5L201.188 204.806M139.582 141.213C144.96 138.469 149.787 133.485 152.376 128C154.439 123.63 154.5 122.259 154.5 80.5L154.5 37.5L128 37.5L101.5 37.5L101.5 80.5C101.5 122.259 101.561 123.63 103.624 128C106.996 135.143 113.242 140.582 120.994 143.126C125.117 144.479 135.218 143.439 139.582 141.213" />
    <glyph glyph-name="building-bank"
      unicode="&#xEA05;"
      horiz-adv-x="256" d="M88.651 213.104C68.384 204.398 50.947 196.543 49.901 195.647C46.34 192.598 48.553 187.002 53.321 186.999C54.52 186.998 71.813 193.989 91.75 202.534L128 218.071L164.25 202.534C184.188 193.989 201.48 186.998 202.679 186.999C207.447 187.002 209.66 192.598 206.099 195.647C203.24 198.095 130.884 228.933 128 228.933C126.625 228.933 108.918 221.81 88.651 213.104M29.223 153.443C26.37 151.445 26.2 146.498 28.934 145.035C29.998 144.466 32.248 144 33.934 144L37 144L37 90.5L37 37L33.2 37C31.11 37 28.86 36.46 28.2 35.8C26.653 34.253 26.653 29.747 28.2 28.2C29.941 26.459 226.059 26.459 227.8 28.2C229.347 29.747 229.347 34.253 227.8 35.8C227.14 36.46 224.89 37 222.8 37L219 37L219 90.5L219 144L222.066 144C226.719 144 229 145.638 229 148.978C229 155.323 234.415 155 128 155C42.229 155 31.197 154.826 29.223 153.443M208 90.5L208 37L128 37L48 37L48 90.5L48 144L128 144L208 144L208 90.5M81.655 110.171C80.246 108.615 80 105.711 80 90.671C80 74.333 80.151 72.849 82 71C84.589 68.411 85.57 68.479 88.545 71.455C90.96 73.869 91 74.19 91 90.955C91 106.667 90.844 108.156 89 110C86.509 112.491 83.811 112.554 81.655 110.171M124.571 110.429C123.257 109.114 123 105.851 123 90.452L123 72.046L125.5 70.408C127.816 68.891 128.184 68.891 130.5 70.408L133 72.046L133 90.452C133 109.988 132.533 112 128 112C126.979 112 125.436 111.293 124.571 110.429M167 110C165.156 108.156 165 106.667 165 90.955C165 74.19 165.04 73.869 167.455 71.455C170.43 68.479 171.411 68.411 174 71C175.851 72.851 176 74.333 176 90.845C176 106.863 175.813 108.859 174.171 110.345C171.741 112.544 169.433 112.433 167 110" />
    <glyph glyph-name="building-bridge"
      unicode="&#xEA06;"
      horiz-adv-x="256" d="M60.571 206.429C59.535 205.392 59 203.038 59 199.514C59 194.393 58.802 193.995 54.25 189.984C48.921 185.288 38.667 178.984 32.241 176.453C26.176 174.064 25.188 168.807 30.209 165.64C31.982 164.522 45.624 170.581 53.44 175.958C55.871 177.631 58.122 179 58.442 179C58.762 179 58.906 161.562 58.762 140.25L58.5 101.5L38.212 101C17.099 100.48 16.031 100.239 16.031 96C16.031 91.761 17.099 91.52 38.212 91L58.5 90.5L58.771 70.219L59.042 49.938L61.521 48.809C63.363 47.969 64.637 47.969 66.479 48.809L68.958 49.938L69.229 70.219L69.5 90.5L128 90.5L186.5 90.5L186.771 70.219L187.042 49.938L189.521 48.809C191.363 47.969 192.637 47.969 194.479 48.809L196.958 49.938L197.229 70.219L197.5 90.5L217.788 91C238.901 91.52 239.969 91.761 239.969 96C239.969 100.239 238.901 100.48 217.788 101L197.5 101.5L197.238 140.25C197.094 161.562 197.193 179 197.457 179C197.721 179 200.989 177.059 204.719 174.687C214.266 168.614 223.96 164.485 225.858 165.682C228.351 167.255 229.331 169.545 228.658 172.225C228.178 174.138 226.656 175.313 222.445 177.022C215.754 179.738 206.706 185.464 201.095 190.533C197.28 193.98 197 194.596 197 199.545C197 205.211 195.351 208 192 208C188.618 208 187 205.216 187 199.395C187 182.968 165.967 162.216 143.54 156.515C135.768 154.539 120.447 154.57 112.702 156.577C89.525 162.583 69 182.693 69 199.395C69 205.216 67.382 208 64 208C62.979 208 61.436 207.293 60.571 206.429M84.41 158.062C92.62 152.414 105.447 146.903 114.436 145.163L123.03 143.5L122.765 122.5L122.5 101.5L96 101.5L69.5 101.5L69.237 136.873L68.974 172.246L74.406 166.727C77.394 163.691 81.895 159.792 84.41 158.062M186.538 102.239C186.157 101.244 180.32 101.025 159.775 101.233L133.5 101.5L133.231 122.59L132.961 143.68L141.731 145.379C156.869 148.313 176.468 159.431 184.207 169.476L186.5 172.452L186.763 137.982C186.908 119.024 186.807 102.94 186.538 102.239" />
    <glyph glyph-name="building-bridge-2"
      unicode="&#xEA07;"
      horiz-adv-x="256" d="M58.782 185.993C49.384 184.364 40.109 175.398 38.092 165.994C37.384 162.691 37.008 143.437 37.022 111.201C37.042 64.894 37.171 61.22 38.905 57.401C39.929 55.147 42.282 52.222 44.133 50.901C47.361 48.599 48.183 48.5 64 48.5C79.675 48.5 80.663 48.616 83.765 50.829C89.746 55.095 90.416 57.568 90.986 77.5C91.482 94.877 91.6 95.698 94.392 101.208C101.948 116.119 117.085 124.146 133.46 121.924C145.268 120.322 155.88 112.511 161.608 101.208C164.4 95.698 164.518 94.877 165.014 77.5C165.584 57.568 166.254 55.095 172.235 50.829C175.338 48.615 176.321 48.5 192.078 48.5C208.597 48.5 208.668 48.51 212.239 51.233C219.148 56.503 219.121 56.242 218.793 114.506C218.468 172.17 218.727 169.869 211.677 177.672C209.742 179.814 205.986 182.676 203.33 184.033L198.5 186.5L131 186.655C93.875 186.74 61.377 186.442 58.782 185.993M198.655 174.359C200.557 173.457 203.325 171.13 204.806 169.188L207.5 165.657L207.776 113.926C208.023 67.639 207.884 62.027 206.454 60.597C205.158 59.3 202.473 59.003 192.179 59.015C185.205 59.024 178.825 59.456 178 59.977C176.797 60.735 176.385 64.439 175.918 78.711C175.253 99.035 174.032 103.656 166.713 113.536C158.064 125.209 145.655 131.917 131.128 132.771C116.098 133.655 104.478 129.319 94.123 118.962C83.026 107.864 80 98.843 80 76.861C80 64.814 79.715 61.858 78.429 60.571C77.163 59.306 74.355 59 64 59C53.645 59 50.837 59.306 49.571 60.571C48.184 61.958 48 68.055 48 112.506C48 145.753 48.363 163.827 49.067 165.685C50.486 169.432 53.822 172.954 57.5 174.588C59.901 175.655 73.957 175.93 127.849 175.961C188.262 175.996 195.554 175.831 198.655 174.359" />
    <glyph glyph-name="building-carousel"
      unicode="&#xEA08;"
      horiz-adv-x="256" d="M121.5 239.123C116.412 237.786 112.567 235.339 108.33 230.743C100.775 222.547 99.374 211.799 104.517 201.499C106.157 198.213 107.65 195.182 107.833 194.762C108.017 194.343 107.554 194 106.805 194C103.997 194 91.215 187.112 85.725 182.64C82.592 180.088 79.803 178 79.528 178C79.252 178 78.323 179.687 77.463 181.75C72.135 194.523 55.402 200.689 42.5 194.634C32.758 190.062 27.895 183.043 27.224 172.586C26.846 166.703 27.164 164.491 28.995 160.233C33.42 149.948 44.414 143.289 55.459 144.205L60.708 144.64L59.878 141.07C58.793 136.404 58.81 119.523 59.905 114.811L60.762 111.122L56.048 111.681C45.015 112.987 33.485 106.205 28.995 95.767C27.153 91.484 26.846 89.309 27.232 83.28C27.63 77.092 28.204 75.242 31.002 71.142C32.818 68.481 36.468 64.826 39.114 63.021C45.329 58.78 55.337 57.711 62.657 60.507C68.691 62.811 74.833 68.401 77.207 73.75C78.245 76.087 79.444 78 79.872 78C80.301 78 81.742 76.835 83.076 75.412C84.409 73.988 88.088 71.224 91.25 69.27C94.412 67.315 97 65.552 97 65.352C97 65.151 93.175 55.438 88.5 43.767C83.825 32.095 80 21.818 80 20.928C80 20.038 80.914 18.483 82.03 17.473C83.632 16.023 84.634 15.834 86.78 16.579C89.191 17.415 90.507 20.025 98.371 39.567L107.241 61.611L113.371 60.327C121.221 58.681 134.779 58.681 142.629 60.327L148.759 61.611L157.629 39.567C165.493 20.025 166.809 17.415 169.22 16.579C171.366 15.834 172.368 16.023 173.97 17.473C175.086 18.483 176 19.983 176 20.805C176 21.627 172.175 31.931 167.5 43.702C162.825 55.473 159 65.242 159 65.41C159 65.578 161.588 67.315 164.75 69.27C167.912 71.224 171.591 73.988 172.924 75.412C174.258 76.835 175.699 78 176.128 78C176.556 78 177.755 76.088 178.793 73.75C181.167 68.401 187.309 62.811 193.343 60.507C200.663 57.711 210.671 58.78 216.886 63.021C219.532 64.826 223.182 68.481 224.998 71.142C227.796 75.242 228.37 77.092 228.768 83.28C229.154 89.309 228.847 91.484 227.005 95.767C222.515 106.205 210.985 112.987 199.952 111.681L195.238 111.122L196.095 114.811C197.19 119.523 197.207 136.404 196.122 141.07L195.292 144.64L200.541 144.205C211.586 143.289 222.58 149.948 227.005 160.233C229.888 166.936 229.49 177.853 226.165 183.233C216.215 199.333 195.054 201.804 182.871 188.288C180.875 186.073 178.701 182.624 178.041 180.623L176.84 176.985L171.67 181.536C166.623 185.978 152.226 194 149.301 194C148.494 194 147.983 194.343 148.167 194.762C148.35 195.182 149.809 198.146 151.41 201.349C154.711 207.958 155.327 215.779 153.068 222.416C151.422 227.254 144.857 234.522 139.807 237.098C135.559 239.266 126.044 240.318 121.5 239.123M136.01 226.75C143.495 221.656 145.673 214.57 142.18 206.674C139.486 200.584 135.271 198.007 128 198.007C121.07 198.007 116.827 200.459 113.93 206.137C108.606 216.573 116.254 229 128 229C131.232 229 133.739 228.296 136.01 226.75M61.497 184.074C63.145 183.149 65.547 180.841 66.835 178.946C68.767 176.104 69.109 174.525 68.788 169.935C68.131 160.534 62.219 154.996 52.849 155.004C39.185 155.015 32.501 171.968 42.297 181.764C47.54 187.006 54.731 187.871 61.497 184.074M146.898 183.536C156.651 180.217 162.491 176.343 170.432 167.925C181.478 156.215 186.357 143.955 186.319 128C186.278 111.123 181.183 98.95 169.114 86.895C162.586 80.375 155.405 75.084 154.565 76.176C154.429 76.354 149.478 88.65 143.565 103.5C137.651 118.35 132.35 131.062 131.784 131.75C131.218 132.437 129.515 133 128 133C126.485 133 124.782 132.437 124.216 131.75C123.65 131.062 118.349 118.35 112.435 103.5C106.522 88.65 101.55 76.333 101.387 76.129C100.499 75.016 91.487 81.801 85.693 87.943C74.538 99.767 69.659 111.958 69.659 128C69.659 143.982 74.542 156.236 85.568 167.925C95.313 178.256 104.887 183.608 118 186.057C125.541 187.465 138.736 186.314 146.898 183.536M209.061 185.4C212.121 184.587 217.231 178.205 217.925 174.329C219.806 163.83 213.064 155.012 203.151 155.004C193.761 154.996 187.845 160.549 187.245 169.935C186.479 181.931 196.192 188.817 209.061 185.4M136.315 92.74C140.542 82.146 144 72.968 144 72.342C144 71.149 133.711 69 128 69C122.289 69 112 71.149 112 72.342C112 74.106 127.288 112 128 112C128.347 112 132.089 103.333 136.315 92.74M60.619 99.377C65.649 96.99 68.33 92.621 68.788 86.065C69.281 79.012 66.571 74.529 59.777 71.157C53.415 68 48.167 68.837 42.785 73.865C29.402 86.371 44.005 107.26 60.619 99.377M210.696 99.044C219.723 93.54 220.989 81.111 213.257 73.899C207.829 68.835 202.599 67.994 196.223 71.157C189.429 74.529 186.719 79.012 187.212 86.065C187.665 92.542 190.302 96.914 195.218 99.337C199.747 101.569 206.773 101.436 210.696 99.044" />
    <glyph glyph-name="building-castle"
      unicode="&#xEA09;"
      horiz-adv-x="256" d="M29 207.022C27.732 206.221 27.423 200.857 27 172.287C26.725 153.704 26.725 117.945 27 92.822C27.567 41.04 27.101 43.808 36.02 39.25C40.219 37.105 41.522 37 64 37C86.463 37 87.787 37.106 92.03 39.25C99.88 43.216 100.704 45.474 101.158 64.254C101.529 79.647 101.707 80.881 104.329 86.239C108.968 95.722 117.341 100.912 128 100.912C138.619 100.912 147.034 95.717 151.629 86.326C154.192 81.087 154.392 79.704 154.813 64.321C155.33 45.432 156.144 43.204 163.97 39.25C168.213 37.106 169.537 37 192 37C214.478 37 215.781 37.105 219.98 39.25C228.899 43.808 228.433 41.04 229 92.822C229.275 117.945 229.275 153.704 229 172.287C228.577 200.857 228.268 206.221 227 207.022C226.169 207.547 215.194 207.976 202.405 207.985C181.29 207.999 179.168 207.843 177.655 206.171C176.279 204.651 176 201.954 176 190.171L176 176L165.5 176L155 176L155 190C155 209.405 157.108 208 128 208C98.892 208 101 209.405 101 190L101 176L90.5 176L80 176L80 190.345C80 202.972 79.781 204.888 78.171 206.345C76.58 207.785 73.36 207.998 53.421 207.985C40.742 207.976 29.83 207.546 29 207.022M69.176 182.547C69.403 172.407 69.887 167.707 70.797 166.797C71.736 165.859 76.949 165.413 89.623 165.185C113.369 164.757 112 163.696 112 182.523L112 197L128 197L144 197L144 182.523C144 163.696 142.631 164.757 166.377 165.185C179.051 165.413 184.264 165.859 185.203 166.797C186.113 167.707 186.597 172.407 186.824 182.547L187.148 197L203.074 197L219 197L219 170.5L219 144L128 144L37 144L37 170.5L37 197L52.926 197L68.852 197L69.176 182.547M218.985 93.25C218.974 63.222 218.661 52.889 217.706 51L216.442 48.5L192.358 48.233C170.886 47.994 168.123 48.146 166.887 49.633C165.879 50.846 165.36 55.837 164.987 67.901C164.423 86.107 163.415 89.901 156.975 98.031C142.733 116.014 113.264 116.01 99.018 98.023C92.586 89.901 91.576 86.103 91.013 67.901C90.64 55.837 90.121 50.846 89.113 49.633C87.877 48.146 85.114 47.994 63.642 48.233L39.558 48.5L38.294 51C37.339 52.889 37.026 63.222 37.015 93.25L37 133L128 133L219 133L218.985 93.25" />
    <glyph glyph-name="building-church"
      unicode="&#xEA0A;"
      horiz-adv-x="256" d="M124.2 227.8C123.439 227.039 123 223.2 123 217.3L123 208L114 208C106.333 208 104.704 207.704 103 206C100.411 203.411 100.479 202.43 103.455 199.455C105.678 197.231 106.715 197 114.455 197L123 197L123 185.245L123 173.491L81.435 131.995C58.574 109.173 39.195 89.228 38.37 87.674C37.027 85.144 37.036 84.594 38.458 82.424C41.072 78.435 43.926 79.362 51 86.5C54.543 90.075 57.8 93 58.237 93C58.674 93 58.912 80.512 58.766 65.25L58.5 37.5L44.068 37.221C35.509 37.056 29.1 36.498 28.318 35.849C26.671 34.482 26.599 29.801 28.2 28.2C29.941 26.459 226.059 26.459 227.8 28.2C229.401 29.801 229.329 34.482 227.682 35.849C226.9 36.498 220.491 37.056 211.932 37.221L197.5 37.5L197.234 65.25C197.088 80.512 197.326 93 197.763 93C198.2 93 201.457 90.075 205 86.5C212.074 79.362 214.928 78.435 217.542 82.424C218.964 84.594 218.973 85.144 217.63 87.674C216.805 89.228 197.426 109.173 174.565 131.995L133 173.491L133 185.245L133 197L141.545 197C149.285 197 150.322 197.231 152.545 199.455C155.521 202.43 155.589 203.411 153 206C151.296 207.704 149.667 208 142 208L133 208L133 217.3C133 227.36 132.299 229 128 229C126.57 229 124.86 228.46 124.2 227.8M157.77 133.73L187.028 104.46L186.764 70.98L186.5 37.5L170.835 37.225L155.17 36.95L154.835 58.725C154.504 80.24 154.467 80.568 151.697 86.208C147.022 95.728 138.667 100.912 128 100.912C117.333 100.912 108.978 95.728 104.303 86.208C101.532 80.564 101.496 80.254 101.18 58.725L100.86 36.95L85.18 37.225L69.5 37.5L69.236 70.98L68.972 104.46L98.23 133.73C114.321 149.828 127.718 163 128 163C128.282 163 141.679 149.828 157.77 133.73M136.781 87.768C143.218 83.904 144 80.63 144 57.54L144 37L128 37L112 37L112 57.54C112 75.903 112.206 78.483 113.942 81.887C118.212 90.256 128.306 92.856 136.781 87.768" />
    <glyph glyph-name="building-community"
      unicode="&#xEA0B;"
      horiz-adv-x="256" d="M98.5 226.718C91.303 222.673 91.003 221.216 91.002 190.25C91.001 175.262 90.769 163 90.486 163C90.204 163 89.147 163.516 88.137 164.146C87.128 164.777 85.221 165.018 83.901 164.683C82.58 164.348 69.237 151.776 54.25 136.745L27 109.416L27 69.408C27 39.624 27.307 29.093 28.2 28.2C29.941 26.459 226.059 26.459 227.8 28.2C228.716 29.116 229 51.632 228.998 123.45C228.997 229.2 229.504 222.219 221.5 226.718L217.5 228.967L160 228.967L102.5 228.967L98.5 226.718M216.551 216.54L219.011 214.08L218.755 125.79L218.5 37.5L181.25 37.238L144 36.976L144 72.747L144 108.517L122.5 130L101 151.483L101 182.787L101 214.091L103.455 216.545L105.909 219L160 219L214.091 219L216.551 216.54M136.338 185.933C133.336 184.817 132.48 181.443 134.44 178.451C136.356 175.527 140.002 175.24 142.345 177.829C146.357 182.262 142.06 188.061 136.338 185.933M178.893 185.638C175.914 184.159 175.281 180.452 177.575 177.918C179.925 175.321 183.618 175.488 185.443 178.272C188.513 182.958 183.913 188.132 178.893 185.638M109.242 128.258L133 104.516L133 70.758L133 37L112 37L91 37L91 56.5C91 74.667 90.863 76.137 89 78C86.567 80.433 84.259 80.544 81.829 78.345C80.174 76.848 80 74.801 80 56.845L80 37L58.5 37L37 37L37 70.742L37 104.485L60.742 128.242C73.8 141.309 84.709 152 84.985 152C85.26 152 96.176 141.316 109.242 128.258M177.655 142.171C176.745 141.165 176 139.391 176 138.228C176 136.087 179.379 133 181.723 133C183.48 133 187 136.668 187 138.5C187 140.59 183.376 144 181.155 144C180.14 144 178.565 143.177 177.655 142.171M177.571 99.429C176.707 98.564 176 97.185 176 96.363C176 90.863 182.578 88.9 185.592 93.5C187.109 95.816 187.109 96.184 185.592 98.5C183.709 101.374 179.952 101.809 177.571 99.429" />
    <glyph glyph-name="building-cottage"
      unicode="&#xEA0C;"
      horiz-adv-x="256" d="M95.513 215.154L65.526 201.473L51.278 175.986L37.03 150.5L37.015 93.75L37 37L33.2 37C31.11 37 28.86 36.46 28.2 35.8C26.653 34.253 26.653 29.747 28.2 28.2C29.941 26.459 226.059 26.459 227.8 28.2C228.46 28.86 229 30.57 229 32C229 35.593 227.256 37 222.8 37L219 37L218.956 93.75L218.912 150.5L204.679 175.991L190.446 201.483L160.08 215.241C143.379 222.809 128.766 228.963 127.607 228.918C126.448 228.873 112.006 222.679 95.513 215.154M155.068 205.932C169.606 199.294 182.021 193.332 182.658 192.682C183.294 192.032 189.257 181.705 195.908 169.732L208 147.964L208 92.482L208 37L186.5 37L165 37L165 63.099C165 92.005 164.642 93.979 158.627 98.27C155.574 100.447 154.845 100.5 128 100.5C89.139 100.5 91 102.381 91 63.099L91 37L69.5 37L48 37L48 92.482L48 147.964L60.092 169.732C66.743 181.705 72.706 192.032 73.342 192.683C74.575 193.943 125.761 217.754 127.568 217.909C128.156 217.959 140.531 212.569 155.068 205.932M122.782 185.904C113.26 184.432 104.056 175.403 102.004 165.521C98.115 146.785 114.735 130.104 133.427 133.985C147.507 136.908 157.027 151.32 154.05 165.204C150.927 179.763 138.078 188.269 122.782 185.904M134.655 174.359C144.696 169.595 146.921 157.206 139.194 149.084C135.075 144.753 130.43 143.321 124.259 144.479C119.492 145.373 113.351 151.614 112.435 156.493C109.956 169.707 122.761 180.003 134.655 174.359M152.545 88.545L155 86.091L155 61.545L155 37L128 37L101 37L101 61.545L101 86.091L103.455 88.545L105.909 91L128 91L150.091 91L152.545 88.545" />
    <glyph glyph-name="brush"
      unicode="&#xEA0D;"
      horiz-adv-x="256" d="M210 226.872C195.581 223.858 183.926 219.68 168.5 211.996C133.561 194.593 106.051 166.942 89.656 132.748L84.5 121.996L78.5 122.576C71.033 123.297 60.158 121.127 52.957 117.478C42.283 112.069 32.481 100.431 28.895 88.909C27.234 83.575 27 79.518 27 56.111C27 36.669 27.327 29.073 28.2 28.2C29.073 27.327 36.669 27 56.111 27C79.518 27 83.575 27.234 88.909 28.895C105.884 34.178 119.216 49.703 122.006 67.435C122.607 71.25 122.847 76.65 122.54 79.435L121.983 84.5L134.742 90.775C151.992 99.26 164.104 108.079 179 123.002C202.262 146.305 217.139 172.011 224.994 202.476C228.632 216.585 229.699 225.452 228.006 227.493C226.362 229.474 221.674 229.312 210 226.872M217 215.417C217 214.546 216.091 210.272 214.979 205.919C208.014 178.64 193.504 152.981 172.992 131.674L162.392 120.664L158.291 127.082C149.998 140.06 140.999 149.072 127.649 157.766L120.799 162.227L125.649 167.229C148.558 190.851 174.187 206.335 203.859 214.481C214.334 217.357 217 217.547 217 215.417M119.912 150.346C127.749 145.811 136.52 138.312 142.232 131.262C147.647 124.577 153 116.194 153 114.397C153 112.526 122.385 95 119.117 95C118.607 95 117.007 97.019 115.561 99.487C112.238 105.156 104.29 113.147 99.037 116.099C96.817 117.347 95 118.788 95 119.301C95 122.685 112.696 153 114.672 153C115.031 153 117.389 151.806 119.912 150.346M87.728 109.548C94.162 107.564 104.083 98.768 107.434 92.076C115.345 76.28 112.253 58.829 99.473 47.149C90.179 38.656 86.458 37.728 59.641 37.218L36.783 36.783L37.218 59.641C37.714 85.726 38.592 89.55 46.083 98.263C56.732 110.649 71.329 114.605 87.728 109.548" />
    <glyph glyph-name="building-fortress"
      unicode="&#xEA0E;"
      horiz-adv-x="256" d="M55.385 217.584C45.977 211.306 37.991 205.419 37.639 204.503C37.288 203.586 37 166.294 37 121.63L37 40.424L39.25 35.97C40.488 33.52 43.029 30.5 44.898 29.258C48.148 27.098 49.187 27 68.747 27C91.409 27 94.143 27.584 98.207 33.29C99.975 35.774 100.515 38.436 101.141 47.762C102.08 61.752 103.127 65.097 108.337 70.75C114.451 77.383 119.028 79.395 128 79.395C136.972 79.395 141.549 77.383 147.663 70.75C152.873 65.097 153.92 61.752 154.859 47.762C155.485 38.436 156.025 35.774 157.793 33.29C161.857 27.584 164.591 27 187.253 27C206.813 27 207.852 27.098 211.102 29.258C212.971 30.5 215.512 33.52 216.75 35.97L219 40.424L219 121.778C219 170.182 218.622 203.837 218.067 204.874C216.749 207.337 183.863 229 181.443 229C180.343 229 171.581 223.713 161.971 217.25L144.5 205.5L144.236 174.75L143.971 144L128 144L112.029 144L111.764 174.75L111.5 205.5L94.029 217.25C84.419 223.713 75.642 229 74.524 229C73.406 229 64.793 223.863 55.385 217.584M88.779 208.148L100.92 200.014L101.21 168.056C101.433 143.478 101.8 135.797 102.8 134.799C104.681 132.92 151.319 132.92 153.2 134.799C154.2 135.797 154.567 143.478 154.79 168.056L155.08 200.014L167.081 208.054C173.681 212.476 179.694 216.329 180.443 216.616C181.192 216.904 187.698 213.213 194.902 208.414L208 199.689L208 120.344C208 42.333 207.966 40.966 206 39C204.163 37.163 202.677 37.001 187.75 37.014C178.813 37.021 170.524 37.289 169.332 37.609C166.222 38.443 165.165 42.141 164.783 53.533C164.5 61.974 164.02 64.44 161.756 69.067C150.403 92.272 119.765 97.526 101.619 79.381C94.197 71.958 91.659 65.635 91.232 53.5C90.832 42.131 89.772 38.442 86.668 37.609C85.476 37.289 77.188 37.021 68.25 37.014C53.323 37.001 51.837 37.163 50 39C48.034 40.966 48 42.333 48 120.344L48 199.688L60.75 208.305C67.763 213.044 74.206 216.777 75.069 216.602C75.932 216.426 82.102 212.622 88.779 208.148M72.338 185.933C69.336 184.817 68.48 181.443 70.44 178.451C72.356 175.527 76.002 175.24 78.345 177.829C82.357 182.262 78.06 188.061 72.338 185.933M178.893 185.638C175.914 184.159 175.281 180.452 177.575 177.918C179.925 175.321 183.618 175.488 185.443 178.272C188.513 182.958 183.913 188.132 178.893 185.638M72.338 153.933C69.336 152.817 68.48 149.443 70.44 146.451C72.356 143.527 76.002 143.24 78.345 145.829C82.357 150.262 78.06 156.061 72.338 153.933M178.893 153.638C175.914 152.159 175.281 148.452 177.575 145.918C179.925 143.321 183.618 143.488 185.443 146.272C188.513 150.958 183.913 156.132 178.893 153.638M72.338 121.933C69.336 120.817 68.48 117.443 70.44 114.451C72.356 111.527 76.002 111.24 78.345 113.829C82.357 118.262 78.06 124.061 72.338 121.933M178.893 121.638C175.914 120.159 175.281 116.452 177.575 113.918C179.925 111.321 183.618 111.488 185.443 114.272C188.513 118.958 183.913 124.132 178.893 121.638" />
    <glyph glyph-name="building-hospital"
      unicode="&#xEA0F;"
      horiz-adv-x="256" d="M65.741 227.586C58.617 225.015 52.564 219.124 49.998 212.264C48.058 207.081 48 204.442 48 121.962L48 37L38.7 37C32.8 37 28.961 36.561 28.2 35.8C26.653 34.253 26.653 29.747 28.2 28.2C29.941 26.459 226.059 26.459 227.8 28.2C228.46 28.86 229 30.57 229 32C229 36.299 227.36 37 217.3 37L208 37L208 121.962C208 205.069 207.955 207.044 205.957 212.385C203.836 218.055 199.006 223.311 192.81 226.693C189.736 228.371 185.224 228.516 129.5 228.722C81.056 228.901 68.776 228.682 65.741 227.586M188.03 216.75C190.48 215.513 193.5 212.971 194.742 211.102L197 207.704L197 122.352L197 37L181.066 37L165.133 37L164.816 60.25C164.516 82.311 164.385 83.684 162.257 87.107C158.854 92.579 155.02 96.043 149.5 98.634C144.886 100.799 143.225 100.98 128 100.98C112.775 100.98 111.114 100.799 106.5 98.634C100.98 96.043 97.146 92.579 93.743 87.107C91.615 83.684 91.484 82.311 91.184 60.25L90.867 37L74.934 37L59 37L59 122.352L59 207.704L61.258 211.102C62.5 212.971 65.52 215.513 67.97 216.75L72.424 219L128 219L183.576 219L188.03 216.75M125.127 185.25C123.33 183.749 122.995 182.221 122.766 174.5L122.5 165.5L113.248 165.212C104.676 164.946 103.879 164.744 102.383 162.462C100.899 160.197 100.899 159.803 102.383 157.538C103.879 155.256 104.676 155.054 113.248 154.788L122.5 154.5L122.788 145.248C123.054 136.676 123.256 135.879 125.538 134.383C127.803 132.899 128.197 132.899 130.462 134.383C132.744 135.879 132.946 136.676 133.212 145.248L133.5 154.5L142.752 154.788C151.324 155.054 152.121 155.256 153.617 157.538C155.101 159.803 155.101 160.197 153.617 162.462C152.121 164.744 151.324 164.946 142.752 165.212L133.5 165.5L133.234 174.5C133.005 182.221 132.67 183.749 130.873 185.25C129.721 186.213 128.428 187 128 187C127.572 187 126.279 186.213 125.127 185.25M142.415 90.044C147.853 88.783 152.999 83.407 154.069 77.871C154.533 75.467 154.932 65.287 154.956 55.25L155 37L128 37L101 37L101.024 55.75C101.037 66.062 101.456 76.262 101.956 78.415C103.078 83.254 108.533 88.915 113.115 89.996C117.831 91.109 137.683 91.142 142.415 90.044" />
    <glyph glyph-name="building-lighthouse"
      unicode="&#xEA10;"
      horiz-adv-x="256" d="M113.181 211.231L101.384 193.462L99.565 179.231L97.746 165L90.444 165C82.714 165 80 163.701 80 160C80 156.437 82.75 155 89.571 155C94.126 155 96 154.627 96 153.721C96 153.017 92.4 125.468 88 92.5C83.6 59.532 80 32.015 80 31.351C80 30.686 80.707 29.436 81.571 28.571C82.954 27.189 88.608 27 128.593 27L174.043 27L175.085 29.288C175.88 31.033 174.212 45.937 168.063 92.038C163.627 125.292 159.998 153.062 159.999 153.75C160 154.62 161.953 155 166.429 155C173.25 155 176 156.437 176 160C176 163.701 173.286 165 165.556 165L158.254 165L156.435 179.231L154.616 193.462L142.819 211.231C127.109 234.895 128.891 234.895 113.181 211.231M136.307 202.103C144.047 190.347 144.126 190.16 145.525 180.372C146.302 174.943 146.951 169.263 146.968 167.75L147 165L128 165L109 165L109.032 167.75C109.049 169.263 109.698 174.943 110.475 180.372C111.874 190.16 111.953 190.347 119.693 202.103C123.987 208.625 127.725 213.962 128 213.962C128.275 213.962 132.013 208.625 136.307 202.103M29.223 185.443C24.887 182.406 26.222 179.319 36.207 169.292L45.414 160.047L36.207 150.658C29.344 143.66 27 140.604 27 138.658C27 135.299 31.027 132.401 33.683 133.848C36.686 135.483 59 158.578 59 160.05C59 161.594 33.952 187 32.43 187C31.888 187 30.445 186.299 29.223 185.443M209.792 174.208C202.757 167.172 197 160.801 197 160.05C197 158.578 219.314 135.483 222.317 133.848C224.973 132.401 229 135.299 229 138.658C229 140.604 226.656 143.66 219.793 150.658L210.586 160.047L219.793 169.292C226.803 176.331 229 179.176 229 181.212C229 183.739 225.941 187 223.57 187C223.028 187 216.828 181.243 209.792 174.208M149 154.439C149 154.13 152.375 128.613 156.5 97.735C160.625 66.856 164 40.559 164 39.296L164 37L128 37L92 37L92 39.296C92 40.559 95.375 66.856 99.5 97.735C103.625 128.613 107 154.13 107 154.439C107 154.747 116.45 155 128 155C139.55 155 149 154.747 149 154.439" />
    <glyph glyph-name="bucket"
      unicode="&#xEA11;"
      horiz-adv-x="256" d="M119.5 218.353C117.85 218.09 113.537 217.006 109.916 215.945C91.594 210.573 74.635 191.567 70.639 171.928L69.331 165.5L59.436 165C49.965 164.521 49.506 164.393 48.712 162C47.626 158.726 69.819 58.901 73.009 52.711C75.838 47.221 79.447 43.444 85 40.161L89.5 37.5L128 37.5L166.5 37.5L171 40.161C176.553 43.444 180.162 47.221 182.991 52.711C184.775 56.173 208.042 156.452 207.985 160.433C207.938 163.72 205.935 164.507 196.373 165L186.668 165.5L185.36 171.928C183.353 181.799 178.158 191.687 170.885 199.48C163.197 207.719 156.228 212.361 146.654 215.619C139.552 218.037 126.043 219.397 119.5 218.353M137.447 206.925C146.818 205.193 153.765 201.339 161.552 193.552C168.625 186.478 172.99 179.181 174.442 172C174.831 170.075 175.371 167.713 175.642 166.75C176.106 165.101 173.368 165 128.092 165L80.05 165L80.654 168.25C82.68 179.156 87.54 187.638 96.407 195.741C107.618 205.987 121.725 209.832 137.447 206.925M195.658 152.75C195.351 151.513 190.566 130.086 185.024 105.136C179.482 80.186 174.454 58.811 173.849 57.636C172.198 54.427 168.827 50.98 165.8 49.405C161.836 47.343 94.164 47.343 90.2 49.405C87.173 50.98 83.802 54.427 82.151 57.636C81.546 58.811 76.518 80.186 70.976 105.136C65.434 130.086 60.649 151.513 60.342 152.75L59.783 155L128 155L196.217 155L195.658 152.75" />
    <glyph glyph-name="building-pavilon"
      unicode="&#xEA12;"
      horiz-adv-x="256" d="M124.869 227.75C124.036 227.062 122.118 223.258 120.607 219.297C110.21 192.038 82.699 171.451 50 166.461C44.775 165.664 37.968 165.009 34.872 165.006C27.666 164.998 26.624 163.81 27.192 156.252C28.293 141.609 40.233 127.488 54.568 123.879L59.021 122.757L58.761 80.129L58.5 37.5L44 37C36.025 36.725 28.938 36.136 28.25 35.691C26.658 34.661 26.626 29.774 28.2 28.2C29.093 27.307 39.562 27 69.129 27C103.912 27 109.053 27.196 110.429 28.571C111.744 29.887 112 33.161 112 48.67C112 69.521 112.62 72.083 118.813 76.806C123.857 80.654 132.143 80.654 137.187 76.806C143.38 72.083 144 69.521 144 48.67C144 33.161 144.256 29.887 145.571 28.571C146.947 27.196 152.088 27 186.871 27C216.438 27 226.907 27.307 227.8 28.2C229.374 29.774 229.342 34.661 227.75 35.691C227.063 36.136 219.975 36.725 212 37L197.5 37.5L197.239 80.129L196.979 122.757L201.432 123.879C215.844 127.508 227.707 141.602 228.82 156.417C229.361 163.624 228.041 164.997 220.559 165.006C212.714 165.015 197.234 167.659 189.5 170.311C163.716 179.153 143.872 197.116 135.383 219.297C132.037 228.04 131.363 229 128.569 229C127.366 229 125.701 228.437 124.869 227.75M132.327 201.418C136.744 193.865 146.921 182.717 155.248 176.31C170.802 164.34 196.173 155 213.13 155C217.982 155 218.03 154.969 217.359 152.25C215.696 145.516 210.073 139.295 202.488 135.799L197.5 133.5L128 133.5L58.5 133.5L53.382 135.816C47.59 138.438 43.176 142.647 40.1 148.485C37.004 154.36 37.278 155 42.89 155C59.877 155 85.205 164.346 100.856 176.389C108.928 182.6 119.446 194.183 123.839 201.699C125.853 205.143 127.725 207.962 128 207.962C128.275 207.962 130.222 205.017 132.327 201.418M186.5 80L186.5 37.5L170.866 37.225L155.232 36.95L154.831 53.725C154.465 69.06 154.222 70.915 151.998 75.33C149.199 80.888 143.402 86.501 138.14 88.749C133.132 90.887 123.519 90.882 117.945 88.736C112.606 86.682 107.11 81.324 103.854 75C101.762 70.937 101.5 68.871 101.153 53.725L100.768 36.95L85.134 37.225L69.5 37.5L69.239 78.999C69.095 101.824 69.195 121.065 69.46 121.757C69.843 122.753 82.116 122.962 128.222 122.758L186.5 122.5L186.5 80" />
    <glyph glyph-name="building-skyscraper"
      unicode="&#xEA13;"
      horiz-adv-x="256" d="M93.5 207.362C69.85 195.522 49.938 185.11 49.25 184.226C48.276 182.973 48 166.532 48 109.809L48 37L38.7 37C32.8 37 28.961 36.561 28.2 35.8C26.653 34.253 26.653 29.747 28.2 28.2C29.941 26.459 226.059 26.459 227.8 28.2C228.46 28.86 229 30.57 229 32C229 36.298 227.359 37 217.309 37L208.018 37L207.759 89.25L207.5 141.5L175.75 162.767L144 184.033L144 204.945C144 227.453 143.642 229.07 138.679 228.945C137.48 228.915 117.15 219.203 93.5 207.362M133 126L133 37L96 37L59 37L59 107.497L59 177.995L95.75 196.443C115.963 206.59 132.613 214.916 132.75 214.946C132.887 214.976 133 174.95 133 126M171.75 152.804L197 135.981L197 86.49L197 37L170.5 37L144 37L144 104.059C144 157.437 144.255 170.966 145.25 170.373C145.938 169.963 157.863 162.057 171.75 152.804M92.2 163.8C90.653 162.253 90.653 157.747 92.2 156.2C92.86 155.54 94.57 155 96 155C97.43 155 99.14 155.54 99.8 156.2C100.46 156.86 101 158.57 101 160C101 161.43 100.46 163.14 99.8 163.8C98.253 165.347 93.747 165.347 92.2 163.8M92.2 131.8C90.653 130.253 90.653 125.747 92.2 124.2C92.86 123.54 94.57 123 96 123C99.305 123 101 124.695 101 128C101 129.43 100.46 131.14 99.8 131.8C98.253 133.347 93.747 133.347 92.2 131.8M92.2 99.8C90.653 98.253 90.653 93.747 92.2 92.2C92.86 91.54 94.57 91 96 91C99.305 91 101 92.695 101 96C101 99.305 99.305 101 96 101C94.57 101 92.86 100.46 92.2 99.8M92.2 67.8C90.653 66.253 90.653 61.747 92.2 60.2C92.86 59.54 94.57 59 96 59C99.305 59 101 60.695 101 64C101 67.305 99.305 69 96 69C94.57 69 92.86 68.46 92.2 67.8" />
    <glyph glyph-name="building-skyscrappers"
      unicode="&#xEA14;"
      horiz-adv-x="256" d="M93.5 207.362C69.85 195.522 49.938 185.11 49.25 184.226C48.276 182.973 48 166.532 48 109.809L48 37L38.7 37C32.8 37 28.961 36.561 28.2 35.8C26.653 34.253 26.653 29.747 28.2 28.2C29.941 26.459 226.059 26.459 227.8 28.2C228.46 28.86 229 30.57 229 32C229 36.298 227.359 37 217.309 37L208.018 37L207.759 89.25L207.5 141.5L175.75 162.767L144 184.033L144 204.945C144 227.453 143.642 229.07 138.679 228.945C137.48 228.915 117.15 219.203 93.5 207.362M133 126L133 37L96 37L59 37L59 107.497L59 177.995L95.75 196.443C115.963 206.59 132.613 214.916 132.75 214.946C132.887 214.976 133 174.95 133 126M171.75 152.804L197 135.981L197 86.49L197 37L170.5 37L144 37L144 104.059C144 157.437 144.255 170.966 145.25 170.373C145.938 169.963 157.863 162.057 171.75 152.804M92.2 163.8C90.653 162.253 90.653 157.747 92.2 156.2C92.86 155.54 94.57 155 96 155C97.43 155 99.14 155.54 99.8 156.2C100.46 156.86 101 158.57 101 160C101 161.43 100.46 163.14 99.8 163.8C98.253 165.347 93.747 165.347 92.2 163.8M92.2 131.8C90.653 130.253 90.653 125.747 92.2 124.2C92.86 123.54 94.57 123 96 123C99.305 123 101 124.695 101 128C101 129.43 100.46 131.14 99.8 131.8C98.253 133.347 93.747 133.347 92.2 131.8M92.2 99.8C90.653 98.253 90.653 93.747 92.2 92.2C92.86 91.54 94.57 91 96 91C99.305 91 101 92.695 101 96C101 99.305 99.305 101 96 101C94.57 101 92.86 100.46 92.2 99.8M92.2 67.8C90.653 66.253 90.653 61.747 92.2 60.2C92.86 59.54 94.57 59 96 59C99.305 59 101 60.695 101 64C101 67.305 99.305 69 96 69C94.57 69 92.86 68.46 92.2 67.8" />
    <glyph glyph-name="building-store"
      unicode="&#xEA15;"
      horiz-adv-x="256" d="M38.402 205.805L26.797 182.61L27.176 171.555C27.496 162.246 27.964 159.632 30.141 155C32.876 149.181 40.386 140.886 45.15 138.422L48 136.949L48 86.974L48 37L38.7 37C32.8 37 28.961 36.561 28.2 35.8C26.653 34.253 26.653 29.747 28.2 28.2C29.941 26.459 226.059 26.459 227.8 28.2C229.347 29.747 229.347 34.253 227.8 35.8C227.039 36.561 223.2 37 217.3 37L208 37L208 86.974L208 136.949L210.75 138.385C215.366 140.797 222.913 149.124 225.778 154.967C228.127 159.757 228.539 161.984 228.848 171.555L229.203 182.61L217.598 205.805L205.992 229L128 229L50.008 229L38.402 205.805M207 203L215.012 187L128 187L40.988 187L49 203L57.012 219L128 219L198.988 219L207 203M90.5 169.75C89.64 162.03 87.265 156.516 82.929 152.17C77.234 146.463 72.476 144.546 64 144.546C55.524 144.546 50.766 146.463 45.071 152.17C40.735 156.516 38.36 162.03 37.5 169.75L36.804 176L64 176L91.196 176L90.5 169.75M154.5 169.75C153.64 162.03 151.265 156.516 146.929 152.17C141.234 146.463 136.476 144.546 128 144.546C119.524 144.546 114.766 146.463 109.071 152.17C104.735 156.516 102.36 162.03 101.5 169.75L100.804 176L128 176L155.196 176L154.5 169.75M218.5 169.75C217.64 162.03 215.265 156.516 210.929 152.17C205.234 146.463 200.476 144.546 192 144.546C183.524 144.546 178.766 146.463 173.071 152.17C168.735 156.516 166.36 162.03 165.5 169.75L164.804 176L192 176L219.196 176L218.5 169.75M111.606 137.323C128.206 129.722 145.459 133.645 157.102 147.668L159.704 150.802L165.064 145.248C168.084 142.12 172.671 138.667 175.568 137.34C181.61 134.574 191.27 132.6 194.632 133.444L197 134.038L197 85.519L197 37L181.066 37L165.133 37L164.816 60.25C164.516 82.311 164.385 83.684 162.257 87.107C158.854 92.579 155.02 96.043 149.5 98.634C144.886 100.799 143.225 100.98 128 100.98C112.775 100.98 111.114 100.799 106.5 98.634C100.98 96.043 97.146 92.579 93.743 87.107C91.615 83.684 91.484 82.311 91.184 60.25L90.867 37L74.934 37L59 37L59.003 85.25L59.006 133.5L65.356 133.651C76.109 133.906 86.623 139.23 93.071 147.686L95.5 150.871L101 145.266C104.025 142.184 108.798 138.609 111.606 137.323M142.415 90.044C147.853 88.783 152.999 83.407 154.069 77.871C154.533 75.467 154.932 65.287 154.956 55.25L155 37L128 37L101 37L101.024 55.75C101.037 66.062 101.456 76.262 101.956 78.415C103.078 83.254 108.533 88.915 113.115 89.996C117.831 91.109 137.683 91.142 142.415 90.044" />
    <glyph glyph-name="bug"
      unicode="&#xEA16;"
      horiz-adv-x="256" d="M118.78 206.603C103.403 203.298 91.08 187.825 91.024 171.75L91 165L86.559 165C84.116 165 81.854 164.573 81.532 164.052C81.209 163.53 74.095 167.483 65.723 172.836C43.268 187.193 43.651 186.983 41.122 186.322C38.331 185.592 36.607 181.602 37.977 179.043C38.514 178.039 47.257 171.954 57.404 165.521L75.854 153.824L74.09 149.662C71.741 144.119 70.304 137.936 69.462 129.75L68.767 123L50.106 123C34.835 123 31.041 122.717 29.223 121.443C26.37 119.445 26.2 114.498 28.934 113.035C30.074 112.425 38.704 112 49.934 112L69 112L69.02 103.25C69.039 94.88 70.024 85.548 71.492 79.829C72.152 77.258 71.547 76.785 55.199 67.089C45.862 61.551 37.959 56.337 37.639 55.501C36.684 53.013 38.753 49.1 41.371 48.443C43.28 47.964 47.366 49.939 60.106 57.502L76.399 67.173L78.413 64.336C84.279 56.074 93.657 47.772 101.475 43.919C119.254 35.157 135.965 35.012 153.765 43.466C159.098 45.998 163.069 48.921 168.377 54.222C172.387 58.225 176.552 62.776 177.634 64.336L179.601 67.173L195.894 57.502C208.661 49.923 212.717 47.963 214.637 48.445C217.268 49.105 218.989 52.326 218.24 55.19C217.981 56.179 210.321 61.394 200.802 67.06C184.456 76.79 183.851 77.265 184.518 79.833C185.848 84.953 186.935 95.563 186.967 103.75L187 112L206.066 112C217.296 112 225.926 112.425 227.066 113.035C229.8 114.498 229.63 119.445 226.777 121.443C224.959 122.717 221.165 123 205.893 123L187.23 123L186.572 128.75C185.542 137.755 183.952 144.947 181.969 149.572L180.146 153.824L198.596 165.521C208.743 171.954 217.486 178.039 218.023 179.043C219.098 181.051 217.734 186 216.107 186C215.588 186 214.55 186.236 213.8 186.523C213.049 186.811 204.068 181.688 193.84 175.139C180.869 166.832 174.83 163.493 173.873 164.1C173.118 164.578 170.813 164.976 168.75 164.985L165 165L164.976 171.75C164.919 188.116 152.515 203.339 136.5 206.699C129.244 208.222 126.236 208.205 118.78 206.603M137.175 195.6C146.723 192.19 153.265 183.01 154.526 171.25L155.196 165L127.969 165L100.742 165L101.416 171.25C102.678 182.95 109.287 192.193 118.825 195.6C123.538 197.283 132.462 197.283 137.175 195.6M169.437 151.25C174.902 139.911 175.305 137.578 175.763 114.598C176.243 90.555 175.528 84.332 171.225 75.115C167.946 68.091 156.353 56.251 149.583 53.012C144.238 50.455 134.465 47.868 133.562 48.771C133.253 49.08 133 62.726 133 79.095C133 104.818 132.787 109.07 131.429 110.429C130.564 111.293 129.021 112 128 112C126.979 112 125.436 111.293 124.571 110.429C123.213 109.07 123 104.818 123 79.095C123 62.726 122.747 49.08 122.438 48.771C121.535 47.868 111.762 50.455 106.417 53.012C99.704 56.224 88.052 68.094 84.832 75C80.829 83.587 80 89.654 80 110.366C80 132.338 80.883 138.747 85.217 148.25L88.296 155L127.963 155L167.63 155L169.437 151.25" />
    <glyph glyph-name="bulb"
      unicode="&#xEA17;"
      horiz-adv-x="256" d="M124.75 227.92C123.301 227.076 123 225.442 123 218.429C123 210.363 123.12 209.903 125.5 208.818C127.37 207.966 128.63 207.966 130.5 208.818C132.881 209.903 133 210.362 133 218.443C133 225.81 132.745 227.066 131.066 227.965C128.67 229.247 127.009 229.235 124.75 227.92M55.632 198.885C53.683 196.102 54.374 194.443 59.853 188.75C64.539 183.881 68.271 182.671 70.8 185.2C73.323 187.723 72.114 191.463 67.216 196.288C61.841 201.582 58.107 202.419 55.632 198.885M188.712 196.216C183.906 191.336 182.735 187.665 185.2 185.2C187.729 182.671 191.461 183.881 196.147 188.75C201.626 194.443 202.317 196.102 200.368 198.885C197.847 202.484 194.023 201.608 188.712 196.216M119.547 185.889C105.974 183.91 95.614 178.485 85.917 168.276C70.261 151.794 65.438 130.474 72.561 109.231C75.84 99.453 78.741 95.056 88.625 84.88C99.391 73.796 101.281 69.704 101.499 57C101.746 42.663 106.05 34.646 116.22 29.578C129.227 23.096 145.18 28.493 151.56 41.534C153.817 46.145 154.262 48.484 154.454 56.742C154.759 69.763 156.491 73.473 167.826 85.371C185.828 104.268 190.937 124.406 183.419 146.828C174.58 173.187 147.214 189.923 119.547 185.889M138.514 174.697C162.474 169.673 179.395 144.422 175.199 119.952C173.409 109.518 169.263 102.327 158.204 90.478L148.5 80.08L127.25 80.04C113.732 80.015 106 80.364 106 80.999C106 81.549 101.926 86.276 96.946 91.503C86.388 102.585 82.325 110.096 80.669 121.589C78.484 136.758 83.73 151.669 95.05 162.467C106.85 173.722 122.357 178.085 138.514 174.697M28.75 131.92C26.74 130.749 26.401 125.999 28.2 124.2C30.076 122.324 44.475 122.618 46.429 124.571C48.436 126.578 48.436 129.422 46.429 131.429C44.601 133.256 31.662 133.616 28.75 131.92M209.571 131.429C208.707 130.564 208 129.021 208 128C208 124.239 210.695 123 218.871 123C223.549 123 227.074 123.474 227.8 124.2C229.701 126.101 229.258 130.792 227.066 131.965C223.912 133.653 211.413 133.27 209.571 131.429M143.993 58.751C143.608 50.972 142.999 47.656 141.47 45C139.269 41.178 132.234 37 128 37C123.771 37 116.731 41.179 114.523 45C112.982 47.667 112.381 50.941 112 58.752L111.5 69.004L128 69.003L144.5 69.003L143.993 58.751" />
    <glyph glyph-name="bulb-off"
      unicode="&#xEA18;"
      horiz-adv-x="256" d="M119.547 185.889C105.974 183.91 95.614 178.485 85.917 168.276C70.261 151.794 65.438 130.474 72.561 109.231C75.84 99.453 78.741 95.056 88.625 84.88C99.391 73.796 101.281 69.704 101.499 57C101.746 42.663 106.05 34.646 116.22 29.578C129.227 23.096 145.18 28.493 151.56 41.534C153.817 46.145 154.262 48.484 154.454 56.742C154.759 69.763 156.491 73.473 167.826 85.371C185.828 104.268 190.937 124.406 183.419 146.828C174.58 173.187 147.214 189.923 119.547 185.889M138.514 174.697C162.474 169.673 179.395 144.422 175.199 119.952C173.409 109.518 169.263 102.327 158.204 90.478L148.5 80.08L127.25 80.04C113.732 80.015 106 80.364 106 80.999C106 81.549 101.926 86.276 96.946 91.503C86.388 102.585 82.325 110.096 80.669 121.589C78.484 136.758 83.73 151.669 95.05 162.467C106.85 173.722 122.357 178.085 138.514 174.697M143.993 58.751C143.608 50.972 142.999 47.656 141.47 45C139.269 41.178 132.234 37 128 37C123.771 37 116.731 41.179 114.523 45C112.982 47.667 112.381 50.941 112 58.752L111.5 69.004L128 69.003L144.5 69.003L143.993 58.751" />
    <glyph glyph-name="bulldozer"
      unicode="&#xEA19;"
      horiz-adv-x="256" d="M82.13 185.13C80.07 183.07 80 182.175 80 158L80 133L69.886 133C61.341 133 59.17 132.661 55.886 130.816C49.938 127.473 48 122.525 48 110.684L48 101L42.25 100.978C18.826 100.889 7.403 72.692 24.048 56.048C32.265 47.83 30.858 48 90.641 48C140.42 48 143.18 48.096 148.253 49.994C154.6 52.368 160.101 57.688 162.997 64.25L165.094 69L176.047 69L187 69L187 59.535C187 51.201 187.231 49.947 188.934 49.035C191.491 47.667 224.509 47.667 227.066 49.035C229.8 50.498 229.63 55.445 226.777 57.443C225.026 58.67 221.623 59 210.714 59L196.873 59L197.007 66.75C197.081 71.012 197.109 84.727 197.071 97.227L197 119.954L194.5 121.592C192.184 123.109 191.816 123.109 189.5 121.592L187 119.954L187 99.977L187 80L175.969 80C166.332 80 164.87 80.221 164.405 81.75C162.129 89.231 156.721 95.291 149.25 98.73L144 101.147L143.984 126.823C143.963 161.298 142.413 167.23 130.757 177.436C122.6 184.578 117.26 186.164 99.38 186.758C84.939 187.237 84.164 187.164 82.13 185.13M115.205 174.446C121.472 172.311 127.812 166.6 130.626 160.556C132.657 156.195 132.982 153.953 132.99 144.25L133 133L112 133L91 133L91 154.5L91 176L100.822 176C107.082 176 112.298 175.436 115.205 174.446M133 112L133 101L96 101L59 101L59 110.443C59 119.068 59.193 120.022 61.223 121.443C63.131 122.78 68.365 123 98.223 123L133 123L133 112M53.733 85.733C63.469 75.998 56.746 59.015 43.151 59.004C33.761 58.996 27.845 64.549 27.245 73.935C26.972 78.216 27.353 80.237 28.897 82.696C34.398 91.453 46.53 92.937 53.733 85.733M114.276 84.831C111.296 77.454 111.438 69.735 114.674 63.193L116.749 59L90.875 59C76.644 59 65 59.168 65 59.373C65 59.578 65.954 61.903 67.121 64.54C69.937 70.906 69.432 81.948 66.077 87.376L63.837 91L90.302 91L116.768 91L114.276 84.831M149.632 85.632C153.801 81.463 154 80.995 153.996 75.382C153.99 65.476 148.13 59.011 139.151 59.004C129.761 58.996 123.845 64.549 123.245 73.935C122.607 83.933 128.692 89.989 139.382 89.996C144.995 90 145.463 89.801 149.632 85.632" />
    <glyph glyph-name="bus"
      unicode="&#xEA1A;"
      horiz-adv-x="256" d="M25.18 206.318C23.353 205.418 20.653 203.101 19.18 201.169L16.5 197.657L16.228 135.35C15.907 61.908 14.557 69 28.864 69L37.728 69L39.361 64.724C41.319 59.597 46.864 53.649 52.437 50.698C58.166 47.664 69.834 47.664 75.563 50.698C81.136 53.649 86.681 59.597 88.639 64.724L90.272 69L128 69L165.728 69L167.361 64.724C169.319 59.597 174.864 53.649 180.437 50.698C183.552 49.048 186.249 48.546 192 48.546C197.751 48.546 200.448 49.048 203.563 50.698C209.136 53.649 214.681 59.597 216.639 64.724L218.272 69L227.136 69C241.239 69 240.274 65.913 239.755 109.343C239.361 142.266 239.133 146.192 237.204 153.242C234.483 163.187 231.069 171.599 226.855 178.745C222.591 185.974 211.053 197.549 203.966 201.708C193.05 208.113 194.758 208.002 107.54 207.977C36.407 207.957 28.168 207.791 25.18 206.318M69 176L69 155L48 155L27 155L27 174.95C27 192.896 27.176 195.003 28.75 195.92C29.769 196.513 38.544 196.952 49.75 196.97L69 197L69 176M123 176L123 155L101.5 155L80 155L80 176L80 197L101.5 197L123 197L123 176M170.764 176.75C173.108 165.612 175.021 156.162 175.013 155.75C175.006 155.338 165.55 155 154 155L133 155L133 176L133 197L149.75 197L166.5 197L170.764 176.75M196.482 193.637C210.14 187.384 222.97 168.596 227.035 148.895C228.101 143.728 228.98 138.037 228.987 136.25L229 133L210.019 133C191.16 133 191.035 133.014 190.505 135.25C190.211 136.487 187.264 150.325 183.955 166C180.646 181.675 177.718 195.124 177.448 195.886C176.598 198.293 189.692 196.745 196.482 193.637M178 143.607C178 143.391 178.717 139.678 179.593 135.357C182.28 122.1 180.319 123 206.523 123L229 123L229 101.5L229 80L223.75 80.01L218.5 80.021L215.754 85.923C211.242 95.622 202.858 100.912 192 100.912C181.142 100.912 172.758 95.622 168.246 85.923L165.5 80.021L128 80.021L90.5 80.021L87.754 85.923C83.242 95.622 74.858 100.912 64 100.912C53.142 100.912 44.758 95.622 40.246 85.923L37.5 80.021L32.25 80.01L27 80L27 112L27 144L102.5 144C144.025 144 178 143.823 178 143.607M72.781 87.768C85.766 79.973 79.365 59 64 59C52.372 59 44.606 71.427 49.832 81.671C54.212 90.257 64.21 92.913 72.781 87.768M200.781 87.768C213.766 79.973 207.365 59 192 59C180.372 59 172.606 71.427 177.832 81.671C182.212 90.257 192.21 92.913 200.781 87.768" />
    <glyph glyph-name="businessplan"
      unicode="&#xEA1B;"
      horiz-adv-x="256" d="M153 227.562C144.316 225.729 136.637 222.754 129.44 218.432C121.746 213.813 118.879 211.01 115.369 204.677L112.5 199.5L112.5 128L112.5 56.5L114.828 52.137C120.448 41.605 136.479 31.613 152.919 28.397C163.218 26.383 184.313 26.929 193.5 29.449C210.865 34.211 225.081 45.159 228.006 56.021C229.426 61.294 229.437 194.662 228.018 199.932C225.002 211.133 211.328 221.343 192.301 226.602C184.334 228.804 161.524 229.361 153 227.562M180.678 217.953C191.24 216.54 199.675 213.656 206.896 208.989C214.718 203.933 218 198.839 218 191.752C218 184.852 214.861 180.159 206.731 174.905C185.279 161.039 147.384 162.913 129.906 178.704C124.82 183.299 123 186.803 123 192C123 197.197 124.82 200.701 129.906 205.296C141.42 215.699 161.017 220.584 180.678 217.953M49.655 174.171C48.745 173.165 48 170.75 48 168.803C48 165.453 47.794 165.236 44.153 164.747C39.254 164.09 33.206 160.069 30 155.337C27.873 152.197 27.5 150.506 27.5 144C27.5 137.495 27.873 135.802 30 132.661C31.375 130.629 34.245 127.749 36.378 126.259C39.818 123.857 41.457 123.486 50.878 122.979C56.72 122.665 62.489 121.862 63.699 121.196C69.705 117.886 70.837 110.089 66.084 104.766L63.169 101.5L46.352 101.18C36.548 100.993 29.007 100.421 28.268 99.807C26.663 98.475 26.621 93.779 28.2 92.2C28.961 91.439 32.8 91 38.7 91L48 91L48 87.155C48 82.881 50.324 80 53.772 80C56.548 80 59 83.622 59 87.723C59 90.448 59.379 91.004 61.25 91.022C64.633 91.055 71.156 94.381 74.197 97.624C84.276 108.373 80.472 125.729 66.782 131.447C64.455 132.419 60.022 133 54.933 133C45.81 133 41.061 134.649 38.978 138.541C37.331 141.618 37.295 146.314 38.894 149.302C41.339 153.87 43.549 154.431 61.289 154.98C78.798 155.522 79.945 155.841 79.985 160.179C80.019 163.894 77.254 165 67.929 165L59 165L59 168.5C59 174.668 53.258 178.153 49.655 174.171M137.009 161.619C159.109 151.258 193.558 153.089 212.171 165.615C214.999 167.518 217.76 169.352 218.307 169.689C218.955 170.09 219.115 165.738 218.766 157.151C218.237 144.111 218.204 143.961 214.866 139.562C207.526 129.886 193.124 124.073 174.5 123.268C155.309 122.439 139.857 126.714 130.062 135.563C123.57 141.428 123 143.198 123 157.501L123 170.102L126.259 167.616C128.051 166.249 132.889 163.55 137.009 161.619M134.856 120.059C145.648 114.635 154.664 112.743 170 112.685C188.267 112.615 201.969 116.077 213.115 123.577C215.912 125.46 218.442 127 218.735 127C219.029 127 219.056 121.488 218.795 114.75C218.251 100.745 217.316 98.153 210.776 92.513C202.17 85.092 190.59 81.142 175 80.311C157.587 79.384 141.502 83.682 130.865 92.107C124.27 97.33 123 101.032 123 115.028L123 127.136L125.75 125.195C127.263 124.127 131.36 121.816 134.856 120.059M218.806 70.357C218.418 60.218 218.121 58.781 215.639 55.03C214.121 52.737 210.167 49.125 206.772 46.931C185.278 33.039 147.401 34.898 129.906 50.704C123.629 56.375 123 58.309 123 71.95C123 78.578 123.18 84 123.4 84C123.619 84 126.088 82.46 128.885 80.577C148.528 67.358 184.025 65.964 207 77.508C210.575 79.304 214.625 81.692 216 82.814C219.236 85.454 219.362 84.893 218.806 70.357" />
    <glyph glyph-name="brightness-half"
      unicode="&#xEA1C;"
      horiz-adv-x="256" d="M112.036 210.5L98.412 197L79.906 197C66.846 197 61.047 196.647 60.2 195.8C59.353 194.953 59 189.154 59 176.094L59 157.588L45.5 143.964C35.895 134.271 32 129.665 32 128C32 126.335 35.895 121.729 45.5 112.036L59 98.412L59 79.906C59 66.846 59.353 61.047 60.2 60.2C61.047 59.353 66.846 59 79.906 59L98.412 59L112.036 45.5C121.729 35.895 126.335 32 128 32C129.665 32 134.271 35.895 143.964 45.5L157.588 59L176.094 59C189.154 59 194.953 59.353 195.8 60.2C196.647 61.047 197 66.846 197 79.906L197 98.412L210.5 112.036C220.105 121.729 224 126.335 224 128C224 129.665 220.105 134.271 210.5 143.964L197 157.588L197 176.094C197 189.154 196.647 194.953 195.8 195.8C194.953 196.647 189.154 197 176.094 197L157.588 197L143.964 210.5C134.271 220.105 129.665 224 128 224C126.335 224 121.729 220.105 112.036 210.5M140.5 199L152.469 187L169.734 187L187 187L187 169.764L187 152.529L199.235 140.264L211.47 128L199.235 115.736L187 103.471L187 86.236L187 69L169.764 69L152.529 69L140.264 56.765L128 44.53L115.736 56.765L103.471 69L86.236 69L69 69L69 86.236L69 103.471L56.765 115.736L44.53 128L56.765 140.264L69 152.529L69 169.764L69 187L86.266 187L103.531 187L115.5 199C122.083 205.6 127.708 211 128 211C128.292 211 133.917 205.6 140.5 199M114.892 162.646C103.221 157.844 95.823 149.885 92.08 138.101C90.646 133.587 90.707 122.743 92.195 117.616C96.49 102.816 111.572 91 126.166 91C128.605 91 131.14 91.54 131.8 92.2C133.52 93.92 133.52 162.08 131.8 163.8C129.839 165.761 120.998 165.158 114.892 162.646M123 128C123 110.794 122.651 102 121.968 102C119.567 102 113.948 105.052 110.328 108.323C99.141 118.429 98.704 136.669 109.404 146.853C112.69 149.981 119.624 154 121.735 154C122.723 154 123 148.296 123 128" />
    <glyph glyph-name="calendar"
      unicode="&#xEA1D;"
      horiz-adv-x="256" d="M81.571 227.429C80.378 226.235 80 223.712 80 216.929L80 208L69.682 208C56.212 208 49.897 206.16 44.359 200.622C37.307 193.57 37.5 195.943 37.5 116.429L37.5 45.358L40.515 39.462C42.823 34.95 44.682 32.855 48.437 30.533L53.343 27.5L128 27.5L202.657 27.5L207.563 30.533C211.318 32.855 213.177 34.95 215.485 39.462L218.5 45.358L218.5 116.429C218.5 195.943 218.693 193.57 211.641 200.622C206.103 206.16 199.788 208 186.318 208L176 208L176 216.929C176 226.66 174.931 229 170.485 229C166.495 229 165 225.533 165 216.277L165 208L128 208L91 208L91 216.277C91 222.151 90.548 225.201 89.443 226.777C87.628 229.37 83.827 229.684 81.571 227.429M80 188.329C80 178.846 81.292 176 85.598 176C89.502 176 91 179.528 91 188.723L91 197L128 197L165 197L165 188.723C165 179.645 166.498 176 170.228 176C174.766 176 176 178.616 176 188.239L176 197.167L187.931 196.834C207.272 196.293 207.86 195.349 207.944 164.75L208 144L127.931 144L47.863 144L48.181 166.297C48.461 185.863 48.724 188.935 50.325 191.377C53.176 195.723 57.223 196.917 69.25 196.961L80 197L80 188.329M207.978 90.75C207.958 51.793 207.812 48.182 206.105 44.424C202.834 37.223 205.957 37.5 128 37.5C50.043 37.5 53.166 37.223 49.895 44.424C48.188 48.182 48.042 51.793 48.022 90.75L48 133L128 133L208 133L207.978 90.75M113.571 99.429C110.028 95.885 112.237 91.87 118.165 91.079L122.5 90.5L122.779 76.068C122.944 67.509 123.502 61.1 124.151 60.318C125.561 58.619 130.435 58.615 131.843 60.311C133.436 62.23 133.539 97.645 131.958 99.551C130.196 101.674 115.72 101.578 113.571 99.429" />
    <glyph glyph-name="calendar-1"
      unicode="&#xEA1E;"
      horiz-adv-x="256" d="M81.571 227.429C80.38 226.237 80 223.722 80 217.034L80 208.211L68.25 207.815C58.715 207.494 55.736 207.018 52.447 205.29C46.996 202.426 42.198 197.454 39.624 192C37.522 187.546 37.5 186.785 37.5 117.5L37.5 47.5L40.303 41.792C43.426 35.431 48.602 30.757 55.035 28.488C61.557 26.187 194.507 26.272 201.285 28.582C207.015 30.534 213.493 36.668 216.348 42.844C218.486 47.47 218.5 47.957 218.5 117.5C218.5 186.785 218.478 187.546 216.376 192C213.802 197.454 209.004 202.426 203.553 205.29C200.264 207.018 197.285 207.494 187.75 207.815L176 208.211L176 217.034C176 226.653 174.918 229 170.485 229C166.495 229 165 225.533 165 216.277L165 208L128 208L91 208L91 216.277C91 222.151 90.548 225.201 89.443 226.777C87.628 229.37 83.827 229.684 81.571 227.429M80 188.329C80 178.846 81.292 176 85.598 176C89.502 176 91 179.528 91 188.723L91 197L128 197L165 197L165 188.723C165 179.645 166.498 176 170.228 176C174.755 176 176 178.622 176 188.155L176 197L186.352 197C195.441 197 197.108 196.726 200.01 194.75C207.322 189.773 207.466 189.232 207.805 165.43L208.11 144L128.055 144L48 144L48 164.184C48 182.297 48.204 184.791 49.992 188.483C53.207 195.126 57.45 196.949 69.75 196.977L80 197L80 188.329M207.781 90.25C207.501 47.695 207.49 47.486 205.243 44.336C204.002 42.596 201.047 40.233 198.677 39.086C194.441 37.035 193.259 37 127.934 37.022C65.309 37.043 61.265 37.151 57.401 38.905C55.147 39.929 52.222 42.282 50.901 44.133L48.5 47.5L48.219 90.25L47.938 133L128 133L208.062 133L207.781 90.25" />
    <glyph glyph-name="calendar-event"
      unicode="&#xEA1F;"
      horiz-adv-x="256" d="M81.571 227.429C80.378 226.235 80 223.712 80 216.929L80 208L69.682 208C56.212 208 49.897 206.16 44.359 200.622C37.307 193.57 37.5 195.943 37.5 116.429L37.5 45.358L40.515 39.462C42.823 34.95 44.682 32.855 48.437 30.533L53.343 27.5L128 27.5L202.657 27.5L207.563 30.533C211.318 32.855 213.177 34.95 215.485 39.462L218.5 45.358L218.5 116.429C218.5 195.943 218.693 193.57 211.641 200.622C206.103 206.16 199.788 208 186.318 208L176 208L176 216.929C176 226.66 174.931 229 170.485 229C166.495 229 165 225.533 165 216.277L165 208L128 208L91 208L91 216.277C91 222.151 90.548 225.201 89.443 226.777C87.628 229.37 83.827 229.684 81.571 227.429M80 188.329C80 178.846 81.292 176 85.598 176C89.502 176 91 179.528 91 188.723L91 197L128 197L165 197L165 188.723C165 179.645 166.498 176 170.228 176C174.766 176 176 178.616 176 188.239L176 197.167L187.931 196.834C207.272 196.293 207.86 195.349 207.944 164.75L208 144L127.931 144L47.863 144L48.181 166.297C48.461 185.863 48.724 188.935 50.325 191.377C53.176 195.723 57.223 196.917 69.25 196.961L80 197L80 188.329M207.978 90.75C207.958 51.793 207.812 48.182 206.105 44.424C202.834 37.223 205.957 37.5 128 37.5C50.043 37.5 53.166 37.223 49.895 44.424C48.188 48.182 48.042 51.793 48.022 90.75L48 133L128 133L208 133L207.978 90.75M81.571 99.429C80.306 98.163 80 95.354 80 84.985C80 68.655 79.654 69 96 69C112.346 69 112 68.655 112 84.985C112 95.354 111.694 98.163 110.429 99.429C108.127 101.731 83.873 101.731 81.571 99.429M101 85.5L101 80L96 80L91 80L91 85.5L91 91L96 91L101 91L101 85.5" />
    <glyph glyph-name="calendar-minus"
      unicode="&#xEA20;"
      horiz-adv-x="256" d="M81.571 227.429C80.378 226.235 80 223.712 80 216.929L80 208L69.682 208C56.212 208 49.897 206.16 44.359 200.622C37.307 193.57 37.5 195.943 37.5 116.429L37.5 45.358L40.515 39.462C42.823 34.95 44.682 32.855 48.437 30.533L53.343 27.5L128 27.5L202.657 27.5L207.563 30.533C211.318 32.855 213.177 34.95 215.485 39.462L218.5 45.358L218.5 116.429C218.5 195.943 218.693 193.57 211.641 200.622C206.103 206.16 199.788 208 186.318 208L176 208L176 216.929C176 226.66 174.931 229 170.485 229C166.495 229 165 225.533 165 216.277L165 208L128 208L91 208L91 216.277C91 222.151 90.548 225.201 89.443 226.777C87.628 229.37 83.827 229.684 81.571 227.429M80 188.329C80 178.846 81.292 176 85.598 176C89.502 176 91 179.528 91 188.723L91 197L128 197L165 197L165 188.723C165 179.645 166.498 176 170.228 176C174.766 176 176 178.616 176 188.239L176 197.167L187.931 196.834C207.272 196.293 207.86 195.349 207.944 164.75L208 144L127.931 144L47.863 144L48.181 166.297C48.461 185.863 48.724 188.935 50.325 191.377C53.176 195.723 57.223 196.917 69.25 196.961L80 197L80 188.329M207.978 90.75C207.958 51.793 207.812 48.182 206.105 44.424C202.834 37.223 205.957 37.5 128 37.5C50.043 37.5 53.166 37.223 49.895 44.424C48.188 48.182 48.042 51.793 48.022 90.75L48 133L128 133L208 133L207.978 90.75M104.762 89.927C101.586 88.076 100.68 85.137 102.452 82.433L104.046 80L128 80L151.954 80L153.548 82.433C155.361 85.2 154.365 88.199 151.043 89.977C148.514 91.33 107.094 91.285 104.762 89.927" />
    <glyph glyph-name="calendar-off"
      unicode="&#xEA21;"
      horiz-adv-x="256" d="M28.2 227.8C25.211 224.811 26.875 221.661 36.604 211.895L46.209 202.255L42.672 197.114C40.671 194.205 38.658 189.669 38.034 186.665C37.278 183.021 37.021 160.361 37.216 114.428L37.5 47.5L40.303 41.792C41.91 38.52 44.768 34.767 47.001 32.999C54.854 26.78 52.659 26.933 129.533 27.23L199.5 27.5L204 29.843C206.475 31.131 209.424 33.039 210.553 34.082C212.585 35.959 212.65 35.932 217.011 31.489C221.532 26.882 225.326 25.726 227.8 28.2C231.583 31.983 232.374 31.13 131.748 131.752C31.147 232.349 31.978 231.578 28.2 227.8M81.571 227.429C79.173 225.03 79.363 211.886 81.829 209.655C86.753 205.198 91 209.294 91 218.5C91 225.443 89.142 229 85.515 229C84.21 229 82.436 228.293 81.571 227.429M166.557 226.777C165.452 225.201 165 222.151 165 216.277L165 208L129.571 208C91.105 208 91 207.985 91 202.485C91 197.205 92.463 197 130.223 197L165 197L165 188.723C165 179.528 166.498 176 170.402 176C174.708 176 176 178.846 176 188.329L176 197L186.352 197C195.441 197 197.108 196.726 200.01 194.75C207.322 189.773 207.466 189.232 207.805 165.43L208.11 144L183.127 144C156.051 144 155 143.794 155 138.485C155 133.45 157.355 133 183.723 133L208 133L208 108.155C208 85.356 208.151 83.174 209.829 81.655C212.438 79.294 215.698 79.61 217.528 82.402C218.918 84.524 219.066 90.79 218.801 136.152C218.508 186.097 218.442 187.623 216.376 192C213.802 197.454 209.004 202.426 203.553 205.29C200.264 207.018 197.285 207.494 187.75 207.815L176 208.211L176 217.034C176 223.722 175.62 226.237 174.429 227.429C172.173 229.684 168.372 229.37 166.557 226.777M79.5 169L104.485 144L76.242 144L48 144L48 164.55C48 181.539 48.282 185.654 49.625 188.3C51.522 192.035 52.988 194 53.88 194C54.229 194 65.758 182.75 79.5 169M160.302 88.198C204.238 44.254 205.057 43.362 203.114 41.603C198.205 37.16 197.014 37.089 127.5 37.066C65.245 37.045 61.267 37.15 57.401 38.905C55.147 39.929 52.222 42.282 50.901 44.133L48.5 47.5L48.219 90.25L47.938 133L81.723 133L115.508 133L160.302 88.198M113.571 99.429C110.028 95.885 112.237 91.87 118.165 91.079L122.5 90.5L122.779 76.068C122.944 67.509 123.502 61.1 124.151 60.318C125.561 58.619 130.435 58.615 131.843 60.311C133.436 62.23 133.539 97.645 131.958 99.551C130.196 101.674 115.72 101.578 113.571 99.429" />
    <glyph glyph-name="calendar-plus"
      unicode="&#xEA22;"
      horiz-adv-x="256" d="M81.571 227.429C80.378 226.235 80 223.712 80 216.929L80 208L69.682 208C56.212 208 49.897 206.16 44.359 200.622C37.307 193.57 37.5 195.943 37.5 116.429L37.5 45.358L40.515 39.462C42.823 34.95 44.682 32.855 48.437 30.533L53.343 27.5L128 27.5L202.657 27.5L207.563 30.533C211.318 32.855 213.177 34.95 215.485 39.462L218.5 45.358L218.5 116.429C218.5 195.943 218.693 193.57 211.641 200.622C206.103 206.16 199.788 208 186.318 208L176 208L176 216.929C176 226.66 174.931 229 170.485 229C166.495 229 165 225.533 165 216.277L165 208L128 208L91 208L91 216.277C91 222.151 90.548 225.201 89.443 226.777C87.628 229.37 83.827 229.684 81.571 227.429M80 188.329C80 178.846 81.292 176 85.598 176C89.502 176 91 179.528 91 188.723L91 197L128 197L165 197L165 188.723C165 179.645 166.498 176 170.228 176C174.766 176 176 178.616 176 188.239L176 197.167L187.931 196.834C207.272 196.293 207.86 195.349 207.944 164.75L208 144L127.931 144L47.863 144L48.181 166.297C48.461 185.863 48.724 188.935 50.325 191.377C53.176 195.723 57.223 196.917 69.25 196.961L80 197L80 188.329M207.978 90.75C207.958 51.793 207.812 48.182 206.105 44.424C202.834 37.223 205.957 37.5 128 37.5C50.043 37.5 53.166 37.223 49.895 44.424C48.188 48.182 48.042 51.793 48.022 90.75L48 133L128 133L208 133L207.978 90.75M124.571 110.429C123.378 109.235 123 106.712 123 99.929L123 91L114.934 91C106.331 91 103.697 90.17 101.952 86.91C101.106 85.33 101.22 84.313 102.452 82.433C103.955 80.139 104.587 80 113.523 80L123 80L123 70.7C123 60.64 123.701 59 128 59C132.299 59 133 60.64 133 70.7L133 80L142.477 80C151.413 80 152.045 80.139 153.548 82.433C154.78 84.313 154.894 85.33 154.048 86.91C152.303 90.17 149.669 91 141.066 91L133 91L133 99.929C133 109.365 131.909 112 128 112C126.979 112 125.436 111.293 124.571 110.429" />
    <glyph glyph-name="calendar-stats"
      unicode="&#xEA23;"
      horiz-adv-x="256" d="M70.557 226.777C69.452 225.201 69 222.151 69 216.277L69 208L59.178 208C52.863 208 47.706 207.438 44.734 206.425C38.384 204.261 31.742 198.153 29.126 192.071C26.991 187.108 26.974 186.509 26.992 117.784C27.004 70.892 27.363 47.231 28.101 44.575C29.581 39.243 39.069 29.843 44.616 28.211C47.537 27.352 60.375 27 88.831 27C127.452 27 128.968 27.071 129.965 28.934C131.417 31.647 131.255 33.602 129.429 35.429C128.055 36.803 123.036 37 89.494 37C64.875 37 50.122 37.38 48.315 38.061C44.128 39.64 39.113 44.935 37.996 48.956C37.425 51.01 37.009 69.42 37.006 92.75L37 133L120.277 133C194.032 133 203.809 133.178 205.777 134.557C207.97 136.093 208 136.437 208 160.375C208 188.866 207.335 192.419 200.733 199.198C193.973 206.14 190.354 207.443 176.75 207.832L165 208.167L165 217.384C165 227.355 164.292 229 160 229C155.701 229 155 227.36 155 217.3L155 208L117.5 208L80 208L80 216.929C80 223.712 79.622 226.235 78.429 227.429C76.173 229.684 72.372 229.37 70.557 226.777M69 188.723C69 179.645 70.498 176 74.228 176C78.755 176 80 178.622 80 188.155L80 197L117.5 197L155 197L155 187.479C155 178.293 155.088 177.917 157.5 176.818C159.37 175.966 160.63 175.966 162.5 176.818C164.912 177.917 165 178.293 165 187.479L165 197L175.25 196.984C184.006 196.969 186.083 196.639 189.5 194.718C196.415 190.831 196.997 188.506 196.998 164.75L197 144L117 144L37 144L37 162.557C37 182.398 37.928 188.647 41.348 191.851C45.817 196.038 49.123 196.987 59.25 196.994L69 197L69 188.723M181 110.638C172.207 108.727 166 105.135 158.42 97.568C150.842 90.002 147.03 83.307 145.115 74.201C141.623 57.6 146.136 42.781 158.448 30.42C168.273 20.557 178.876 16 192 16C205.124 16 215.727 20.557 225.552 30.42C245.081 50.026 245.081 78.023 225.552 97.552C213.098 110.006 198.215 114.377 181 110.638M187 81.2C187 67.133 187.347 61.053 188.2 60.2C189.053 59.347 195.157 59 209.308 59L229.217 59L228.539 56.25C225.847 45.335 218.12 35.59 208 30.349C202.977 27.747 201.589 27.5 192 27.5C182.411 27.5 181.023 27.747 176 30.349C168.363 34.304 161.682 41.122 158.324 48.39C155.821 53.805 155.5 55.637 155.5 64.5C155.5 73.542 155.773 75.027 158.351 80C163.286 89.519 171.445 96.474 181.286 99.549C183.604 100.274 185.838 100.896 186.25 100.933C186.662 100.97 187 92.09 187 81.2M208.5 96.968C218.088 92.397 226.5 81.997 228.494 72.25L229.159 69L213.079 69L197 69L197 85.019L197 101.038L199.75 100.433C201.262 100.101 205.2 98.541 208.5 96.968" />
    <glyph glyph-name="calendar-time"
      unicode="&#xEA24;"
      horiz-adv-x="256" d="M70.557 226.777C69.452 225.201 69 222.151 69 216.277L69 208L59.178 208C52.863 208 47.706 207.438 44.734 206.425C38.384 204.261 31.742 198.153 29.126 192.071C26.991 187.108 26.974 186.509 26.992 117.784C27.004 70.892 27.363 47.231 28.101 44.575C29.581 39.243 39.069 29.843 44.616 28.211C47.537 27.352 60.375 27 88.831 27C127.452 27 128.968 27.071 129.965 28.934C131.417 31.647 131.255 33.602 129.429 35.429C128.055 36.803 123.036 37 89.494 37C64.875 37 50.122 37.38 48.315 38.061C44.128 39.64 39.113 44.935 37.996 48.956C37.425 51.01 37.009 69.42 37.006 92.75L37 133L120.277 133C194.032 133 203.809 133.178 205.777 134.557C207.97 136.093 208 136.437 208 160.375C208 188.866 207.335 192.419 200.733 199.198C193.973 206.14 190.354 207.443 176.75 207.832L165 208.167L165 217.384C165 227.355 164.292 229 160 229C155.701 229 155 227.36 155 217.3L155 208L117.5 208L80 208L80 216.929C80 223.712 79.622 226.235 78.429 227.429C76.173 229.684 72.372 229.37 70.557 226.777M69 188.723C69 179.645 70.498 176 74.228 176C78.755 176 80 178.622 80 188.155L80 197L117.5 197L155 197L155 187.479C155 178.293 155.088 177.917 157.5 176.818C159.37 175.966 160.63 175.966 162.5 176.818C164.912 177.917 165 178.293 165 187.479L165 197L175.25 196.984C184.006 196.969 186.083 196.639 189.5 194.718C196.415 190.831 196.997 188.506 196.998 164.75L197 144L117 144L37 144L37 162.557C37 182.398 37.928 188.647 41.348 191.851C45.817 196.038 49.123 196.987 59.25 196.994L69 197L69 188.723M181 110.638C172.207 108.727 166 105.135 158.42 97.568C150.842 90.002 147.03 83.307 145.115 74.201C141.623 57.6 146.136 42.781 158.448 30.42C168.273 20.557 178.876 16 192 16C205.124 16 215.727 20.557 225.552 30.42C245.081 50.026 245.081 78.023 225.552 97.552C213.098 110.006 198.215 114.377 181 110.638M208.155 97.238C215.681 93.525 221.731 87.564 225.65 80C228.227 75.028 228.5 73.541 228.5 64.5C228.5 55.637 228.179 53.805 225.676 48.39C222.318 41.122 215.637 34.304 208 30.349C202.977 27.747 201.589 27.5 192 27.5C182.411 27.5 181.023 27.747 176 30.349C168.363 34.304 161.682 41.122 158.324 48.39C155.821 53.805 155.5 55.637 155.5 64.5C155.5 73.542 155.773 75.027 158.351 80C165.648 94.075 177.93 101.268 193.655 100.676C200.392 100.422 202.912 99.824 208.155 97.238M188.2 83.8C187.418 83.018 187 78.916 187 72.023L187 61.446L193.775 54.723C200.869 47.684 203.483 46.666 206.345 49.829C209.099 52.872 208.259 55.313 202.5 61L197 66.432L197 74.516C197 83.298 196.188 85 192 85C190.57 85 188.86 84.46 188.2 83.8" />
    <glyph glyph-name="camera"
      unicode="&#xEA25;"
      horiz-adv-x="256" d="M88.907 216.675C83.853 214.008 80.042 208.24 80.016 203.218C79.994 198.691 77.83 194.049 74.111 190.552C71.112 187.73 70.46 187.574 58.976 186.92C43.321 186.029 37.509 183.435 31.5 174.656L27.5 168.812L27.5 112.156C27.5 59.871 27.636 55.25 29.267 52.266C31.918 47.417 37.755 42.008 42.911 39.623C47.468 37.515 48.057 37.5 128 37.5C207.943 37.5 208.532 37.515 213.089 39.623C218.245 42.008 224.082 47.417 226.733 52.266C228.364 55.25 228.5 59.871 228.5 112.156L228.5 168.812L224.5 174.656C218.491 183.435 212.679 186.029 197.024 186.92C185.54 187.574 184.888 187.73 181.889 190.552C178.17 194.049 176.006 198.691 175.984 203.218C175.958 208.24 172.147 214.008 167.093 216.675C162.725 218.979 162.371 219 128 219C93.629 219 93.275 218.979 88.907 216.675M163.369 206.488C164.201 205.656 165.183 202.844 165.551 200.238C166.923 190.543 172.102 183.067 180.447 178.737C183.602 177.1 187.049 176.508 196 176.067C208.928 175.43 212.87 173.844 216.5 167.819C218.432 164.612 218.5 162.727 218.5 112C218.5 59.643 218.494 59.49 216.299 55.962C215.089 54.016 212.328 51.428 210.163 50.212L206.228 48L127.952 48L49.676 48L45.343 50.539C37.163 55.333 37.5 52.693 37.5 112C37.5 162.727 37.568 164.612 39.5 167.819C43.13 173.844 47.072 175.43 60 176.067C68.951 176.508 72.398 177.1 75.553 178.737C83.898 183.067 89.077 190.543 90.449 200.238C91.599 208.367 89.825 208 128 208C156.881 208 162.079 207.778 163.369 206.488M122.357 153.921C110.86 152.409 99.275 143.825 94.119 133C91.835 128.203 91.5 126.222 91.5 117.5C91.5 108.722 91.83 106.795 94.204 101.73C97.06 95.635 104.969 87.102 110.336 84.325C114.935 81.946 122.828 80.024 128 80.024C133.172 80.024 141.065 81.946 145.664 84.325C151.062 87.118 158.94 95.631 161.77 101.73C165.177 109.071 165.952 120.212 163.616 128.25C161.907 134.127 156.73 141.75 151.302 146.382C144.388 152.281 132.81 155.296 122.357 153.921M139.762 141.099C144.724 138.538 150.521 132.416 152.514 127.633C153.433 125.426 154.125 120.976 154.125 117.27C154.125 102.052 143.02 91 127.728 91C112.81 91 101.725 102.333 101.813 117.497C101.856 125.043 103.9 130.26 108.799 135.332C112.774 139.449 116.712 141.865 121.5 143.123C126.049 144.319 135.567 143.264 139.762 141.099" />
    <glyph glyph-name="camera-minus"
      unicode="&#xEA26;"
      horiz-adv-x="256" d="M88.907 216.675C83.853 214.008 80.042 208.24 80.016 203.218C79.994 198.691 77.83 194.049 74.111 190.552C71.112 187.73 70.46 187.574 58.976 186.92C43.321 186.029 37.509 183.435 31.5 174.656L27.5 168.812L27.5 112.156C27.5 59.871 27.636 55.25 29.267 52.266C31.918 47.417 37.755 42.008 42.911 39.623C47.468 37.515 48.057 37.5 128 37.5C207.943 37.5 208.532 37.515 213.089 39.623C218.245 42.008 224.082 47.417 226.733 52.266C228.341 55.209 228.526 59.83 228.786 103.703L229.073 151.906L226.536 153.568C224.197 155.101 223.808 155.104 221.538 153.617L219.076 152.003L218.788 105.752C218.504 60.08 218.472 59.456 216.299 55.962C215.089 54.016 212.328 51.428 210.163 50.212L206.228 48L127.952 48L49.676 48L45.343 50.539C37.163 55.333 37.5 52.693 37.5 112C37.5 164.215 37.512 164.519 39.681 168C43.423 174.005 47.003 175.426 60 176.067C68.951 176.508 72.398 177.1 75.553 178.737C83.898 183.067 89.077 190.543 90.449 200.238C91.538 207.939 91.704 208 111.637 208C121.784 208 129.944 208.435 131.066 209.035C133.8 210.498 133.63 215.445 130.777 217.443C128.97 218.709 125.264 219 110.935 219C94.424 219 93.037 218.854 88.907 216.675M156.2 195.8C155.54 195.14 155 193.43 155 192C155 187.004 155.033 187 192 187C228.967 187 229 187.004 229 192C229 193.43 228.46 195.14 227.8 195.8C226.08 197.52 157.92 197.52 156.2 195.8M122.357 153.921C110.86 152.409 99.275 143.825 94.119 133C91.835 128.203 91.5 126.222 91.5 117.5C91.5 108.722 91.83 106.795 94.204 101.73C97.06 95.635 104.969 87.102 110.336 84.325C114.935 81.946 122.828 80.024 128 80.024C133.172 80.024 141.065 81.946 145.664 84.325C151.062 87.118 158.94 95.631 161.77 101.73C165.177 109.071 165.952 120.212 163.616 128.25C161.907 134.127 156.73 141.75 151.302 146.382C144.388 152.281 132.81 155.296 122.357 153.921M139.762 141.099C144.724 138.538 150.521 132.416 152.514 127.633C153.433 125.426 154.125 120.976 154.125 117.27C154.125 102.052 143.02 91 127.728 91C112.81 91 101.725 102.333 101.813 117.497C101.856 125.043 103.9 130.26 108.799 135.332C112.774 139.449 116.712 141.865 121.5 143.123C126.049 144.319 135.567 143.264 139.762 141.099" />
    <glyph glyph-name="building-monument"
      unicode="&#xEA27;"
      horiz-adv-x="256" d="M113.658 217.108L101.653 205.215L91.344 138.358C85.675 101.586 81.028 70.937 81.018 70.25C81.004 69.307 77.338 69 66.071 69C53.833 69 50.86 68.717 49.571 67.429C48.288 66.145 48 63.212 48 51.429L48 37L38.7 37C32.8 37 28.961 36.561 28.2 35.8C26.653 34.253 26.653 29.747 28.2 28.2C29.941 26.459 226.059 26.459 227.8 28.2C228.46 28.86 229 30.57 229 32C229 36.299 227.36 37 217.3 37L208 37L208 51.429C208 63.212 207.712 66.145 206.429 67.429C205.14 68.717 202.167 69 189.929 69C178.662 69 174.996 69.307 174.982 70.25C174.972 70.937 170.325 101.586 164.656 138.358L154.347 205.215L142.342 217.108C133.888 225.483 129.646 229 128 229C126.354 229 122.112 225.483 113.658 217.108M136.405 208.095L144.264 200.191L154.121 136.345C159.542 101.23 163.983 71.713 163.989 70.75C163.999 69.116 161.623 69 128 69L92 69L92.03 71.25C92.046 72.488 96.487 102.006 101.898 136.846L111.737 200.191L119.595 208.096C123.917 212.443 127.699 216 128 216C128.301 216 132.083 212.443 136.405 208.095M197 48L197 37L128 37L59 37L59 48L59 59L128 59L197 59L197 48" />
    <glyph glyph-name="camera-plus"
      unicode="&#xEA28;"
      horiz-adv-x="256" d="M188.151 227.682C187.502 226.9 186.944 220.491 186.779 211.932L186.5 197.5L172.068 197.221C163.509 197.056 157.1 196.498 156.318 195.849C155.593 195.247 155 193.515 155 192C155 190.485 155.593 188.753 156.318 188.151C157.1 187.502 163.509 186.944 172.068 186.779L186.5 186.5L186.779 172.068C186.944 163.509 187.502 157.1 188.151 156.318C188.753 155.593 190.485 155 192 155C193.515 155 195.247 155.593 195.849 156.318C196.498 157.1 197.056 163.509 197.221 172.068L197.5 186.5L211.932 186.779C220.491 186.944 226.9 187.502 227.682 188.151C228.407 188.753 229 190.485 229 192C229 193.515 228.407 195.247 227.682 195.849C226.9 196.498 220.491 197.056 211.932 197.221L197.5 197.5L197.221 211.932C197.056 220.491 196.498 226.9 195.849 227.682C194.436 229.384 189.564 229.384 188.151 227.682M99.97 216.75C94.381 213.927 91.469 209.606 90.683 202.975C89.974 196.985 87.668 192.581 83.681 189.605C81.158 187.72 79.114 187.446 64.156 186.984C48.116 186.488 47.211 186.349 41.475 183.484C36.767 181.133 34.651 179.26 31.5 174.656L27.5 168.812L27.5 112.156C27.5 59.871 27.636 55.25 29.267 52.266C31.918 47.417 37.755 42.008 42.911 39.623C47.468 37.515 48.057 37.5 128 37.5C207.943 37.5 208.532 37.515 213.089 39.623C218.245 42.008 224.082 47.417 226.733 52.266C228.33 55.189 228.528 59.594 228.79 98.138C229.05 136.265 228.91 140.947 227.469 142.388C225.66 144.198 223.237 144.435 221 143.022C219.72 142.214 219.427 136.026 219 100.788C218.511 60.421 218.451 59.421 216.299 55.962C215.089 54.016 212.328 51.428 210.163 50.212L206.228 48L127.952 48L49.676 48L45.343 50.539C37.163 55.333 37.5 52.693 37.5 112C37.5 164.357 37.506 164.51 39.701 168.038C40.911 169.984 43.672 172.572 45.837 173.788C49.398 175.789 51.16 176 64.349 176C76.461 176 79.826 176.337 84.253 177.994C93.323 181.387 100.927 191.506 100.978 200.25C101.018 207.001 103.09 208 117.066 208C130.67 208 133 208.728 133 212.978C133 217.983 130.211 219 116.489 219C105.963 219 103.856 218.713 99.97 216.75M122.357 153.921C110.86 152.409 99.275 143.825 94.119 133C91.835 128.203 91.5 126.222 91.5 117.5C91.5 108.722 91.83 106.795 94.204 101.73C97.06 95.635 104.969 87.102 110.336 84.325C114.935 81.946 122.828 80.024 128 80.024C133.172 80.024 141.065 81.946 145.664 84.325C151.062 87.118 158.94 95.631 161.77 101.73C165.177 109.071 165.952 120.212 163.616 128.25C161.907 134.127 156.73 141.75 151.302 146.382C144.388 152.281 132.81 155.296 122.357 153.921M139.762 141.099C144.724 138.538 150.521 132.416 152.514 127.633C153.433 125.426 154.125 120.976 154.125 117.27C154.125 102.052 143.02 91 127.728 91C112.81 91 101.725 102.333 101.813 117.497C101.856 125.043 103.9 130.26 108.799 135.332C112.774 139.449 116.712 141.865 121.5 143.123C126.049 144.319 135.567 143.264 139.762 141.099" />
    <glyph glyph-name="camera-rotate"
      unicode="&#xEA29;"
      horiz-adv-x="256" d="M88.907 216.675C83.853 214.008 80.042 208.24 80.016 203.218C79.994 198.691 77.83 194.049 74.111 190.552C71.112 187.73 70.46 187.574 58.976 186.92C43.321 186.029 37.509 183.435 31.5 174.656L27.5 168.812L27.5 112.156C27.5 59.871 27.636 55.25 29.267 52.266C31.918 47.417 37.755 42.008 42.911 39.623C47.468 37.515 48.057 37.5 128 37.5C207.943 37.5 208.532 37.515 213.089 39.623C218.245 42.008 224.082 47.417 226.733 52.266C228.364 55.25 228.5 59.871 228.5 112.156L228.5 168.812L224.5 174.656C218.491 183.435 212.679 186.029 197.024 186.92C185.54 187.574 184.888 187.73 181.889 190.552C178.17 194.049 176.006 198.691 175.984 203.218C175.958 208.24 172.147 214.008 167.093 216.675C162.725 218.979 162.371 219 128 219C93.629 219 93.275 218.979 88.907 216.675M163.369 206.488C164.201 205.656 165.183 202.844 165.551 200.238C166.923 190.543 172.102 183.067 180.447 178.737C183.602 177.1 187.049 176.508 196 176.067C208.928 175.43 212.87 173.844 216.5 167.819C218.432 164.612 218.5 162.727 218.5 112C218.5 59.643 218.494 59.49 216.299 55.962C215.089 54.016 212.328 51.428 210.163 50.212L206.228 48L127.952 48L49.676 48L45.343 50.539C37.163 55.333 37.5 52.693 37.5 112C37.5 162.727 37.568 164.612 39.5 167.819C43.13 173.844 47.072 175.43 60 176.067C68.951 176.508 72.398 177.1 75.553 178.737C83.898 183.067 89.077 190.543 90.449 200.238C91.599 208.367 89.825 208 128 208C156.881 208 162.079 207.778 163.369 206.488M123 154.328C109.117 151.897 97.53 142.455 93.01 129.889L91.072 124.5L91.036 132.25C91.006 138.636 90.648 140.352 89 142C86.509 144.491 83.811 144.554 81.655 142.171C80.301 140.675 80 138.069 80 127.826C80 111.505 79.494 112 96.174 112C107.029 112 108.91 112.243 110.345 113.829C112.372 116.068 112.485 119.353 110.589 120.926C109.813 121.57 107.552 122.361 105.565 122.683C102.462 123.187 102.038 123.569 102.565 125.385C103.764 129.51 109.426 136.83 113.425 139.423C119.025 143.053 124.469 144.329 131.329 143.618C134.661 143.273 137.981 143.455 139.079 144.042C141.837 145.518 141.638 150.552 138.75 152.371C136.331 153.895 127.085 155.044 123 154.328M147 121.754C141.638 118.957 144.293 112 150.722 112C153.793 112 154.068 111.775 153.464 109.75C152.169 105.412 147.925 99.044 144.674 96.565C138.875 92.142 134.422 90.849 125.974 91.137C116.882 91.447 114.735 90.341 115.199 85.585C115.454 82.975 116.115 82.294 119.5 81.163C121.967 80.338 126.183 79.99 130.5 80.255C145.739 81.19 158.961 91.604 163.549 106.286L164.866 110.5L164.933 102.973C165.008 94.508 166.635 91 170.485 91C175.285 91 176 93.068 176 106.949C176 117.629 175.726 119.983 174.35 121.128C172.028 123.058 150.45 123.552 147 121.754" />
    <glyph glyph-name="camera-selfie"
      unicode="&#xEA2A;"
      horiz-adv-x="256" d="M88.907 216.675C83.853 214.008 80.042 208.24 80.016 203.218C79.994 198.691 77.83 194.049 74.111 190.552C71.112 187.73 70.46 187.574 58.976 186.92C43.321 186.029 37.509 183.435 31.5 174.656L27.5 168.812L27.5 112.156C27.5 59.871 27.636 55.25 29.267 52.266C31.918 47.417 37.755 42.008 42.911 39.623C47.468 37.515 48.057 37.5 128 37.5C207.943 37.5 208.532 37.515 213.089 39.623C218.245 42.008 224.082 47.417 226.733 52.266C228.364 55.25 228.5 59.871 228.5 112.156L228.5 168.812L224.5 174.656C218.491 183.435 212.679 186.029 197.024 186.92C185.54 187.574 184.888 187.73 181.889 190.552C178.17 194.049 176.006 198.691 175.984 203.218C175.958 208.24 172.147 214.008 167.093 216.675C162.725 218.979 162.371 219 128 219C93.629 219 93.275 218.979 88.907 216.675M163.369 206.488C164.201 205.656 165.183 202.844 165.551 200.238C166.923 190.543 172.102 183.067 180.447 178.737C183.602 177.1 187.049 176.508 196 176.067C208.928 175.43 212.87 173.844 216.5 167.819C218.432 164.612 218.5 162.727 218.5 112C218.5 59.643 218.494 59.49 216.299 55.962C215.089 54.016 212.328 51.428 210.163 50.212L206.228 48L127.952 48L49.676 48L45.343 50.539C37.163 55.333 37.5 52.693 37.5 112C37.5 162.727 37.568 164.612 39.5 167.819C43.13 173.844 47.072 175.43 60 176.067C68.951 176.508 72.398 177.1 75.553 178.737C83.898 183.067 89.077 190.543 90.449 200.238C91.599 208.367 89.825 208 128 208C156.881 208 162.079 207.778 163.369 206.488M92.571 142.429C90.191 140.048 90.626 136.291 93.5 134.408C95.816 132.891 96.184 132.891 98.5 134.408C103.1 137.422 101.137 144 95.637 144C94.815 144 93.436 143.293 92.571 142.429M156.571 142.429C154.191 140.048 154.626 136.291 157.5 134.408C159.816 132.891 160.184 132.891 162.5 134.408C167.1 137.422 165.137 144 159.637 144C158.815 144 157.436 143.293 156.571 142.429M97.571 99.429C96.707 98.564 96 96.966 96 95.878C96 93.068 102.406 87.482 109.898 83.759C115.371 81.039 117.635 80.521 125.548 80.175C136.611 79.691 145.289 82.091 152.804 87.712C160.318 93.332 161.682 96.175 158.429 99.429C156.046 101.811 152.851 101.326 148.771 97.963C142.541 92.828 136.42 90.666 128 90.628C119.595 90.589 113.61 92.703 107.229 97.963C103.149 101.326 99.954 101.811 97.571 99.429" />
    <glyph glyph-name="candy"
      unicode="&#xEA2B;"
      horiz-adv-x="256" d="M171.684 225.608C163.872 222.705 161.407 219.48 154.403 203C151.248 195.575 148.527 189.323 148.357 189.107C148.187 188.892 147.346 189.298 146.488 190.01C145.63 190.722 141.663 191.515 137.674 191.771C125.241 192.568 124.286 191.899 93.329 160.692C64.156 131.283 64 131.068 64 120.26C64 117.505 64.617 113.501 65.372 111.363L66.744 107.474L52.903 101.601C37.644 95.127 33.209 91.733 30.399 84.376C28.479 79.348 28.853 73.22 31.408 67.836C32.343 65.865 39.721 57.739 47.804 49.779C60.314 37.458 63.271 35.051 67.683 33.595C73.443 31.693 78.212 32.115 84 35.038C91.181 38.664 93.353 42.537 97.472 59.062C98.902 64.803 100.27 70.069 100.51 70.763C100.805 71.614 102.424 70.9 105.469 68.575C112.252 63.398 123.813 62.435 132.068 66.359C134.069 67.31 147.499 80.014 162.641 95.278C191.837 124.71 192 124.934 192 135.717C192 142.063 190.514 146.524 186.821 151.26C184.742 153.927 184.269 155.152 185.195 155.474C185.913 155.723 191.197 157.098 196.938 158.528C213.456 162.646 217.317 164.809 220.975 172C223.936 177.82 224.291 181.488 222.491 187.68C220.974 192.898 219.6 194.644 206.665 207.791C198.874 215.71 190.782 223.071 188.682 224.15C183.595 226.761 176.439 227.376 171.684 225.608M196.695 202.75C213.79 185.963 215.277 183.247 211.115 176.42C208.809 172.639 207.178 171.978 189.066 167.472L174.632 163.882L165.723 172.791L156.813 181.7L162.929 196.1C169.989 212.725 172.653 216 179.117 216C183.013 216 183.827 215.386 196.695 202.75M143 179.952C143.825 179.52 152.651 170.916 162.613 160.833C189.107 134.018 189.569 137.411 154.629 102.226C118.731 66.078 122.148 66.555 94.693 93.865C66.575 121.835 66.165 118.393 101.877 154.177C122.752 175.094 129.148 180.944 131.5 181.274C134.977 181.76 140.83 181.087 143 179.952M83.244 90.25L91.946 81.5L87.686 64.814C85.189 55.033 82.661 47.282 81.576 46.084C79.183 43.44 73.761 42.442 70.077 43.968C68.488 44.626 61.071 51.38 53.594 58.976C40.602 72.176 40 72.969 40 76.878C40 83.295 43.298 86.012 59.5 92.943C67.2 96.236 73.734 98.947 74.021 98.966C74.307 98.985 78.458 95.062 83.244 90.25" />
    <glyph glyph-name="building-factory"
      unicode="&#xEA2C;"
      horiz-adv-x="256" d="M110 218.121C101.541 216.26 91 207.678 91 202.652C91 200.224 93.767 197 95.851 197C96.508 197 98.991 198.794 101.371 200.988C106.758 205.953 111.54 208 117.756 208C124.199 208 129.215 205.28 135.239 198.521C137.955 195.474 142.275 191.747 144.839 190.24C149.12 187.723 150.355 187.5 160 187.5C169.669 187.5 170.872 187.719 175.207 190.267C177.796 191.789 182.046 195.504 184.652 198.522C194.904 210.397 207.435 211.306 218.629 200.988C223.461 196.534 224.937 196.168 227.345 198.829C229.914 201.668 229.327 204.633 225.313 209.075C219.299 215.732 213.069 218.344 203 218.428C195.622 218.491 193.744 218.129 188.775 215.689C185.078 213.873 181.408 210.955 178.415 207.452C171.66 199.546 168.006 197.588 160 197.588C151.994 197.588 148.34 199.546 141.585 207.452C135.702 214.338 128.738 217.883 119.951 218.464C116.403 218.699 111.925 218.545 110 218.121M60.723 163.75C59.368 162.73 58.866 159.286 57.991 145C56.262 116.787 51.598 88.155 43.475 55.899C38.552 36.351 38.887 37 33.725 37C31.346 37 28.86 36.46 28.2 35.8C26.653 34.253 26.653 29.747 28.2 28.2C29.118 27.282 53.784 27 133.129 27C226.094 27 237.02 27.163 238.429 28.571C240.436 30.578 240.436 33.422 238.429 35.429C237.137 36.72 234.134 37 221.564 37L206.272 37L202.218 48.25C193.078 73.615 188.457 92.448 187.321 108.96C186.317 123.559 187.44 123 159.113 123C138.102 123 136.088 123.15 135.593 124.75C135.295 125.713 134.579 134.6 134.002 144.5C133.138 159.316 132.658 162.721 131.285 163.75C130.028 164.692 121.338 165 96 165C70.658 165 61.974 164.692 60.723 163.75M123.003 149.75C123.017 128.751 129.232 89.183 138.075 53.795C140.234 45.157 142 37.845 142 37.545C142 37.245 121.3 37 96 37C70.7 37 50 37.348 50 37.774C50 38.2 51.775 45.513 53.944 54.024C62.366 87.076 68.996 129.231 68.999 149.75L69 155L96 155L123 155L123.003 149.75M176 110.878C176 110.261 176.698 104.974 177.55 99.128C179.615 84.971 183.808 68.597 189.809 51.25L194.738 37L174.344 37L153.95 37L152.903 39.75C149.989 47.397 141.27 86.766 137.51 109.25L137.05 112L156.525 112C170.25 112 176 111.669 176 110.878" />
    <glyph glyph-name="car"
      unicode="&#xEA2D;"
      horiz-adv-x="256" d="M49.14 195.259C48.624 194.292 43.431 181.583 37.6 167.019L27 140.537L27 106.325L27 72.113L29.223 70.557C30.817 69.44 33.882 69 40.064 69L48.683 69L49.879 65.011C51.521 59.529 59.534 51.688 65.608 49.618C79.026 45.046 93.279 51.292 98.997 64.25L101.094 69L128 69L154.906 69L157.003 64.25C162.721 51.292 176.974 45.046 190.392 49.618C196.466 51.688 204.479 59.529 206.121 65.011L207.317 69L215.936 69C229.824 69 229.002 67.185 228.99 97.807C228.981 122.61 228.9 123.673 226.649 128.507C224.079 134.026 218.582 139.409 213.073 141.802C211.108 142.656 206.062 143.612 201.86 143.927L194.22 144.5L173.36 170.5L152.5 196.5L101.29 196.759C53.288 197.002 50.021 196.908 49.14 195.259M122.77 165.25L123.04 144L81.413 144C48.514 144 39.89 144.262 40.282 145.25C40.554 145.937 44.026 154.6 47.996 164.5C51.967 174.4 55.608 183.519 56.088 184.764L56.961 187.027L89.73 186.764L122.5 186.5L122.77 165.25M163.099 166.328C172.12 154.958 179.65 145.283 179.833 144.828C180.017 144.372 169.554 144 156.583 144L133 144L133 165.5L133 187L139.849 187L146.699 187L163.099 166.328M212.656 129.391C218.134 124.957 218.834 121.589 218.923 99.25L219 80L213.158 80L207.317 80L206.1 84.062C204.466 89.514 198.608 95.797 192.5 98.647C178.044 105.393 160.319 97.277 155.595 81.75C155.105 80.14 152.905 80 128 80C103.095 80 100.895 80.14 100.405 81.75C95.681 97.277 77.956 105.393 63.5 98.647C57.392 95.797 51.534 89.514 49.9 84.062L48.683 80L42.842 80L37 80L37 106.516L37 133.033L122.907 132.766L208.815 132.5L212.656 129.391M81.061 89.4C84.121 88.587 89.231 82.205 89.925 78.329C91.806 67.83 85.064 59.012 75.151 59.004C65.761 58.996 59.845 64.549 59.245 73.935C58.479 85.931 68.192 92.817 81.061 89.4M189.497 88.074C191.145 87.149 193.547 84.841 194.835 82.946C196.767 80.104 197.109 78.525 196.788 73.935C196.131 64.534 190.219 58.996 180.849 59.004C167.266 59.015 160.531 75.997 170.253 85.72C175.539 91.006 182.71 91.883 189.497 88.074" />
    <glyph glyph-name="caravan"
      unicode="&#xEA2E;"
      horiz-adv-x="256" d="M44.385 206.383C38.483 204.29 32.1 198.41 29.374 192.556L27.02 187.5L27.01 133.898L27 80.296L29.258 76.898C30.5 75.029 33.52 72.488 35.97 71.25C40.238 69.094 41.475 69 65.665 69L90.906 69L93.003 64.25C98.721 51.292 112.974 45.046 126.392 49.618C132.466 51.688 140.479 59.529 142.121 65.011L143.317 69L183.936 69C228.054 69 229 69.115 229 74.485C229 78.931 226.66 80 216.929 80L208 80L208 121.226L208 162.452L185.226 185.226L162.452 208L105.476 207.921C58.232 207.856 47.797 207.593 44.385 206.383M177.741 177.76L197 158.519L197 119.26L197 80L170.158 80L143.317 80L142.1 84.062C140.466 89.514 134.608 95.797 128.5 98.647C114.044 105.393 96.319 97.277 91.595 81.75C91.106 80.143 88.98 80 65.588 80C40.397 80 40.096 80.025 38.557 82.223C37.2 84.16 37 90.651 37 132.78C37 183.397 37.346 188.103 41.348 191.851C46.967 197.115 45.413 196.987 103.991 196.994L158.481 197L177.741 177.76M67.02 174.248C65.106 173.287 62.518 170.971 61.27 169.102C59.144 165.92 59 164.679 59 149.587C59 131.338 59.917 128.123 66.062 124.827C69.116 123.189 72.215 123 96 123C119.785 123 122.884 123.189 125.938 124.827C132.083 128.123 133 131.338 133 149.587C133 164.679 132.856 165.92 130.73 169.102C126.37 175.629 124.516 175.997 96 175.997C73.717 175.997 70.061 175.776 67.02 174.248M122.109 162.25C123.77 157.936 122.877 135.165 121 133.979C119.036 132.737 72.964 132.737 71 133.979C69.123 135.165 68.23 157.936 69.891 162.25L70.95 165L96 165L121.05 165L122.109 162.25M125.497 88.074C127.145 87.149 129.547 84.841 130.835 82.946C132.767 80.104 133.109 78.525 132.788 73.935C132.131 64.534 126.219 58.996 116.849 59.004C103.266 59.015 96.531 75.997 106.253 85.72C111.539 91.006 118.71 91.883 125.497 88.074" />
    <glyph glyph-name="car-crane"
      unicode="&#xEA2F;"
      horiz-adv-x="256" d="M134.5 212.875C59.717 200.348 39.234 196.606 38.25 195.29C37.314 194.038 37 185.998 37 163.309L37 133L33.691 133C26.866 133 27.042 133.868 26.944 99.807C26.861 70.602 26.959 68.88 28.978 64.307C31.897 57.691 37.382 52.375 43.747 49.994C53.668 46.282 62.759 47.954 71.158 55.036L75.859 59L117.733 59L159.608 59L163.002 55.498C164.869 53.571 168.8 51.096 171.736 49.998C181.668 46.282 190.756 47.951 199.158 55.036L203.859 59L215.229 59C222.74 59 227.007 59.407 227.8 60.2C229.753 62.153 229.473 134.724 227.482 142.54C222.621 161.628 207.249 177.847 188 184.197C182.175 186.119 178.718 186.386 154.721 186.767C131.328 187.139 127.632 186.989 125.489 185.584L123.034 183.976L122.767 158.738L122.5 133.5L106.75 133.225L91 132.949L91 152.252C91 167.158 90.682 172.004 89.605 173.527C88.837 174.612 81.841 178.648 74.058 182.494L59.907 189.489L141.704 203.183C186.692 210.714 224.738 216.904 226.25 216.938L229 217L229 209.455C229 202.777 229.282 201.627 231.455 199.455C234.43 196.479 235.411 196.411 238 199C239.784 200.784 240 202.333 240 213.345C240 227.324 239.197 229.088 232.921 228.894C231.04 228.836 186.75 221.627 134.5 212.875M64.492 175.265L80 167.53L80 150.265L80 133L64 133L48 133L48 158C48 171.75 48.221 183 48.492 183C48.762 183 55.962 179.519 64.492 175.265M158.887 166.25C160.522 160.888 163.961 149.525 166.528 141C169.095 132.475 171.649 124.946 172.205 124.269C172.938 123.374 179.416 122.963 195.857 122.769L218.5 122.5L218.5 96L218.5 69.5L213.25 69.198L208 68.895L208 73.91C208 93.581 187.929 106.814 170.5 98.634C160.671 94.021 155.896 87.061 155.208 76.344L154.733 68.935L144.116 69.218L133.5 69.5L133.241 122.75L132.982 176L144.448 176L155.914 176L158.887 166.25M181.769 174.492C190.931 172.332 197.654 168.533 204.547 161.621C211.397 154.751 216.634 145.199 217.634 137.75L218.272 133L199.179 133L180.086 133L176.966 143.25C175.25 148.888 172.505 158 170.867 163.5C169.228 169 167.702 174.062 167.475 174.75C166.903 176.484 173.855 176.358 181.769 174.492M122.5 96L122.5 69.5L101.25 69.23L80 68.96L80 73.943C80 93.724 59.958 106.781 42.25 98.536L37 96.092L37 109.557L37 123.021L79.75 122.761L122.5 122.5L122.5 96M61.497 88.074C63.145 87.149 65.547 84.841 66.835 82.946C68.767 80.104 69.109 78.525 68.788 73.935C68.131 64.534 62.219 58.996 52.849 59.004C43.908 59.011 38.01 65.481 38.004 75.289C38 80.604 38.308 81.408 41.769 85.118C47.258 91.002 54.378 92.069 61.497 88.074M189.497 88.074C191.145 87.149 193.547 84.841 194.835 82.946C196.767 80.104 197.109 78.525 196.788 73.935C196.131 64.534 190.219 58.996 180.849 59.004C167.185 59.015 160.501 75.968 170.297 85.764C175.54 91.006 182.731 91.871 189.497 88.074" />
    <glyph glyph-name="cardboards"
      unicode="&#xEA30;"
      horiz-adv-x="256" d="M44.324 206.362C38.321 204.235 31.662 197.966 29.114 192.043C26.972 187.065 26.952 186.439 27.224 134.255L27.5 81.5L29.894 76.817C32.832 71.068 39.01 64.941 45 61.834C48.942 59.789 51.181 59.46 63.069 59.178C85.031 58.656 89.356 60.938 106.712 82.213C112.495 89.302 118.393 95.867 119.819 96.801C123.34 99.108 132.699 99.083 136.249 96.756C137.712 95.797 143.411 89.431 148.913 82.608C166.167 61.211 170.967 58.656 192.931 59.178C204.899 59.462 207.053 59.783 211.183 61.894C216.932 64.832 223.059 71.01 226.166 77L228.5 81.5L228.776 134.255C229.048 186.439 229.028 187.065 226.886 192.043C225.62 194.987 222.889 198.689 220.305 200.963C211.962 208.306 215.922 208.009 127.572 207.921C60.461 207.854 47.868 207.618 44.324 206.362M212.642 193.402C219.021 188.239 219.09 187.573 218.777 133.5C218.505 86.283 218.464 85.433 216.309 81.405C213.713 76.555 208.054 71.334 204.232 70.264C202.729 69.844 196.775 69.504 191 69.509C175.562 69.522 171.93 71.437 160.386 85.649C146.875 102.285 142.172 106.604 135.435 108.562C128.812 110.487 121.74 109.928 116.06 107.031C111.95 104.934 108.374 101.182 95.65 85.621C84.053 71.438 80.408 69.522 65 69.509C59.225 69.504 53.271 69.844 51.768 70.264C47.946 71.334 42.287 76.555 39.691 81.405C37.54 85.425 37.494 86.358 37.176 132.5C36.832 182.337 37.224 187.988 41.291 191.798C47.128 197.265 42.918 197.028 129.158 196.754L208.815 196.5L212.642 193.402M81.019 153.937C76.138 152.845 70.427 146.484 69.523 141.134C68.616 135.769 71.99 128.504 76.898 125.251C83.33 120.99 93.701 122.963 98.219 129.308C101.554 133.991 101.852 142.507 98.835 146.946C94.848 152.812 88 155.499 81.019 153.937M167.275 154.004C159.083 152.121 154.712 146.282 155.245 137.935C155.847 128.511 161.755 123 171.253 123C180.162 123 187.974 132.276 186.485 141.088C185.757 145.396 180.363 152.506 177.172 153.364C172.883 154.518 170.25 154.688 167.275 154.004M88.24 142.75C93.11 138.997 88.255 131.187 82.85 134.08C80.102 135.551 79.417 139.699 81.536 142.04C83.576 144.294 85.914 144.542 88.24 142.75M174.464 142.04C176.583 139.699 175.898 135.551 173.15 134.08C167.745 131.187 162.89 138.997 167.76 142.75C170.086 144.542 172.424 144.294 174.464 142.04" />
    <glyph glyph-name="caret-down"
      unicode="&#xEA31;"
      horiz-adv-x="256" d="M60.75 163.92C59.766 163.347 59 161.717 59 160.195C59 157.974 64.965 151.525 92.256 124.244C118.191 98.318 126.061 91 128.011 91C129.961 91 137.823 98.314 163.756 124.256C191.051 151.56 197 157.996 197 160.22C197 161.875 196.247 163.332 195.066 163.965C192.419 165.381 63.185 165.338 60.75 163.92M153.748 129.252L128 103.505L102.252 129.252L76.505 155L128 155L179.495 155L153.748 129.252" />
    <glyph glyph-name="caret-left"
      unicode="&#xEA32;"
      horiz-adv-x="256" d="M124.285 163.77C98.129 137.658 91 129.999 91 128.014C91 126.031 98.135 118.356 124.256 92.244C158.371 58.14 160.232 56.632 163.8 60.2C164.709 61.109 165 77.57 165 128.165C165 193.15 164.948 194.957 163.066 195.965C162.002 196.534 160.33 197 159.35 197C158.346 197 143.06 182.515 124.285 163.77M155 127.752L155 76.505L129.255 102.25L103.51 127.995L128.998 153.498C143.016 167.524 154.601 179 154.743 179C154.884 179 155 155.939 155 127.752" />
    <glyph glyph-name="caret-right"
      unicode="&#xEA33;"
      horiz-adv-x="256" d="M92.75 195.92C91.111 194.965 91 190.667 91 128.15C91 77.567 91.291 61.109 92.2 60.2C95.78 56.62 97.629 58.118 131.756 92.256C157.784 118.292 165 126.057 165 128.026C165 129.996 157.793 137.735 131.715 163.77C110.237 185.213 97.734 196.989 96.465 196.97C95.384 196.953 93.713 196.481 92.75 195.92M126.748 102.252L101 76.505L101 128L101 179.495L126.748 153.748L152.495 128L126.748 102.252" />
    <glyph glyph-name="caret-up"
      unicode="&#xEA34;"
      horiz-adv-x="256" d="M92.285 131.77C58.087 97.629 56.602 95.798 60.2 92.2C61.109 91.291 77.533 91 128 91C178.467 91 194.891 91.291 195.8 92.2C199.398 95.798 197.913 97.629 163.715 131.77C138.275 157.168 129.858 165 128 165C126.142 165 117.725 157.168 92.285 131.77M154 126.5L179.485 101L128 101L76.515 101L102 126.5C116.017 140.525 127.717 152 128 152C128.283 152 139.983 140.525 154 126.5" />
    </font>
</defs>
</svg>
